<?xml version="1.0" encoding="UTF-8"?>
<svg width="588px" height="729px" viewBox="0 0 588 729" version="1.1" xmlns="http://www.w3.org/2000/svg" xmlns:xlink="http://www.w3.org/1999/xlink">
    <title>编组 20</title>
    <defs>
        <path d="M0,5.68434189e-14 L225,5.68434189e-14 C349.264069,5.68434189e-14 450,100.735931 450,225 C450,349.264069 349.264069,450 225,450 C100.735931,450 0,349.264069 0,225 L0,225 L0,5.68434189e-14 Z" id="path-1"></path>
        <filter x="-15.6%" y="-11.1%" width="131.1%" height="131.1%" filterUnits="objectBoundingBox" id="filter-2">
            <feOffset dx="0" dy="20" in="SourceAlpha" result="shadowOffsetOuter1"></feOffset>
            <feGaussianBlur stdDeviation="20" in="shadowOffsetOuter1" result="shadowBlurOuter1"></feGaussianBlur>
            <feColorMatrix values="0 0 0 0 0   0 0 0 0 0.647058824   0 0 0 0 0.941176471  0 0 0 0.1 0" type="matrix" in="shadowBlurOuter1"></feColorMatrix>
        </filter>
    </defs>
    <g id="页面-1" stroke="none" stroke-width="1" fill="none" fill-rule="evenodd">
        <g id="inst-导航" transform="translate(-280.000000, -1476.000000)">
            <g id="why-crypto" transform="translate(320.000000, 1232.000000)">
                <g id="编组-20" transform="translate(0.000000, 244.000000)">
                    <g id="编组-11" transform="translate(0.000000, 99.000000)">
                        <g id="形状结合">
                            <use fill="black" fill-opacity="1" filter="url(#filter-2)" xlink:href="#path-1"></use>
                            <use fill="#0045FF" fill-rule="evenodd" xlink:href="#path-1"></use>
                        </g>
                        <path d="M180,630 L180,450 C140.636947,450 80.6369468,450 0,450 C0,549.411255 80.588745,630 180,630 Z" id="椭圆形备份-6" fill="#FF5670" opacity="0.253963" transform="translate(90.000000, 540.000000) scale(1, -1) rotate(90.000000) translate(-90.000000, -540.000000) "></path>
                    </g>
                    <g id="编组-4" transform="translate(348.000000, 0.000000)" fill="#00B5FF" opacity="0.198266">
                        <polygon id="矩形" points="0 0 100 100 0 100"></polygon>
                        <polygon id="矩形备份" points="100 0 200 100 100 100"></polygon>
                        <polygon id="矩形备份-4" points="100 98 200 198 100 198"></polygon>
                    </g>
                </g>
            </g>
        </g>
    </g>
</svg>