<?xml version="1.0" encoding="UTF-8"?>
<svg width="102px" height="102px" viewBox="0 0 102 102" version="1.1" xmlns="http://www.w3.org/2000/svg" xmlns:xlink="http://www.w3.org/1999/xlink">
    <title>icon4</title>
    <g id="页面-1" stroke="none" stroke-width="1" fill="none" fill-rule="evenodd">
        <g id="inst-导航" transform="translate(-1059.000000, -1983.000000)">
            <g id="why-crypto" transform="translate(320.000000, 1232.000000)">
                <g id="icon4" transform="translate(740.000000, 752.000000)">
                    <circle id="椭圆形备份-2" stroke="#0045FF" stroke-width="2" opacity="0.054292" cx="50" cy="50" r="50"></circle>
                    <g id="编组" transform="translate(28.000000, 26.000000)" fill="#0045FF" fill-rule="nonzero">
                        <path d="M22.258291,0 L42.8416436,3.88407144 C43.8145444,4.07990661 44.5149224,4.93385589 44.5165799,5.92626941 L44.5165799,34.172038 C44.5165799,34.9027205 44.1346987,35.5802593 43.5093923,35.9582657 L22.258291,48 L1.01275422,36.0723394 C0.384463178,35.6951944 1.04782706e-06,35.0161241 1.04782706e-06,34.2833295 L1.04782706e-06,5.93183398 C-0.000989194612,4.93732881 0.699988043,4.08032008 1.6749383,3.88407144 L22.258291,0 Z M22.258291,3.76999769 L3.52515861,7.14491072 L3.52515861,32.6696035 L16.6937187,23.1820079 L16.6937187,26.5680501 L5.81219775,34.4057501 L22.2471618,43.8043125 L41.0609805,32.9979133 L41.0609805,9.00904244 L27.8228632,18.5495015 L27.8228632,15.1634593 L39.3721328,6.83885924 L22.2555087,3.76721543 L22.258291,3.76999769 Z M21.9049406,11.0011593 C23.7968952,11.0011593 25.3354994,12.5397635 25.3354994,14.4289358 C25.3354994,15.6698354 24.5926291,17.1333179 23.5464894,17.3614653 L23.5464894,21.2511013 C25.7166726,20.7725481 27.7366123,21.4625551 29.2307,23.1987016 C31.194994,25.4746116 31.2061231,28.6352886 29.2668697,31.0558776 C28.0262057,32.6341238 26.1326981,33.5593605 24.1252049,33.5682819 C23.0735008,33.5682819 22.005103,33.3123116 21.0090445,32.7753304 C20.451899,32.4761319 20.0966959,31.9024275 20.0772367,31.270326 C20.0577775,30.6382246 20.3770185,30.0437575 20.9147048,29.7108546 C21.4523911,29.3779518 22.1268353,29.3571891 22.6839808,29.6563877 C24.3171827,30.5328078 25.7639715,29.7621145 26.5040596,28.8383955 C27.1857197,27.9925806 27.5529814,26.6709946 26.5485762,25.5079991 C26.3899858,25.3243682 24.9515439,23.7662879 22.9232574,25.3188036 C22.3948025,25.7217984 21.6853046,25.7952827 21.0854749,25.5091469 C20.4856452,25.2230112 20.0963032,24.6253491 20.0769787,23.961048 L20.1437535,17.3725945 C18.8229495,16.5792984 18.1930397,15.0027552 18.6035327,13.5177173 C19.0140257,12.0326794 20.3642146,11.0034735 21.9049406,11.0011593 L21.9049406,11.0011593 Z M21.9327635,13.6248551 C21.4736863,13.6248551 21.0980776,14.0338512 21.0980776,14.5374449 C21.0980776,15.5446325 22.7674493,15.5446325 22.7674493,14.5374449 C22.7674493,14.0338512 22.394623,13.6248551 21.9327635,13.6248551 Z" id="形状"></path>
                    </g>
                </g>
            </g>
        </g>
    </g>
</svg>