<?xml version="1.0" encoding="UTF-8"?>
<svg width="102px" height="102px" viewBox="0 0 102 102" version="1.1" xmlns="http://www.w3.org/2000/svg" xmlns:xlink="http://www.w3.org/1999/xlink">
    <title>icon1</title>
    <g id="页面-1" stroke="none" stroke-width="1" fill="none" fill-rule="evenodd">
        <g id="inst-导航" transform="translate(-1059.000000, -1728.000000)">
            <g id="why-crypto" transform="translate(320.000000, 1232.000000)">
                <g id="icon1" transform="translate(740.000000, 497.000000)">
                    <circle id="椭圆形" stroke="#0045FF" stroke-width="2" opacity="0.052875" cx="50" cy="50" r="50"></circle>
                    <g id="编组" transform="translate(23.000000, 30.000000)" fill="#0045FF" fill-rule="nonzero">
                        <path d="M11.0454546,2.45454542 L42.9545455,2.45454542 C43.6909092,2.45454542 44.1818182,1.96363634 44.1818182,1.22727271 C44.1818182,0.490909072 43.6909092,0 42.9545455,0 L11.0454546,0 C10.309091,0 9.81818189,0.490909072 9.81818189,1.22727271 C9.81818189,1.96363634 10.309091,2.45454542 11.0454546,2.45454542 Z M6.13636365,7.36363636 L47.8636363,7.36363636 C48.6,7.36363636 49.0909091,6.87272729 49.0909091,6.13636365 C49.0909091,5.40000002 48.6,4.90909089 47.8636363,4.90909089 L6.13636365,4.90909089 C5.40000002,4.90909089 4.90909095,5.39999996 4.90909095,6.1363636 C4.90909095,6.87272723 5.40000002,7.36363636 6.13636365,7.36363636 Z M13.5,14.7272727 L11.0454545,14.7272727 C10.3090909,14.7272727 9.81818183,15.2181818 9.81818183,15.9545454 C9.81818183,16.6909091 10.3090909,17.1818181 11.0454545,17.1818181 L13.5,17.1818181 C14.2363637,17.1818181 14.7272727,16.6909091 14.7272727,15.9545454 C14.7272727,15.2181818 14.2363637,14.7272727 13.5,14.7272727 Z M42.9545455,31.9090909 L40.5,31.9090909 C39.7636363,31.9090909 39.2727273,32.3999999 39.2727273,33.1363636 C39.2727273,33.8727272 39.7636363,34.3636363 40.5,34.3636363 L42.9545455,34.3636363 C43.6909091,34.3636363 44.1818182,33.8727272 44.1818182,33.1363636 C44.1818182,32.3999999 43.6909091,31.9090909 42.9545455,31.9090909 Z M51.5454546,9.81818178 L2.45454547,9.81818178 C1.10454545,9.81818178 0,10.9227272 0,12.2727272 L0,36.8181818 C0,38.1681818 1.10454545,39.2727273 2.45454547,39.2727273 L51.5454545,39.2727273 C52.8954545,39.2727273 54,38.1681818 54,36.8181818 L54,12.2727272 C54,10.9227272 52.8954545,9.81818178 51.5454546,9.81818178 Z M3.68181824,12.2727272 C4.41818187,12.2727272 4.90909095,12.7636363 4.90909095,13.5 C4.90909095,14.2363636 4.41818187,14.7272727 3.68181824,14.7272727 C2.9454546,14.7272727 2.45454553,14.2363636 2.45454553,13.5 C2.45454553,12.7636363 2.9454546,12.2727272 3.68181824,12.2727272 Z M3.68181824,36.8181818 C2.9454546,36.8181818 2.45454553,36.3272727 2.45454553,35.5909091 C2.45454553,34.8545455 2.9454546,34.3636364 3.68181824,34.3636364 C4.41818187,34.3636364 4.90909095,34.8545455 4.90909095,35.5909091 C4.90909095,36.3272727 4.41818187,36.8181818 3.68181824,36.8181818 Z M50.3181818,36.8181818 C49.5818182,36.8181818 49.0909091,36.3272727 49.0909091,35.5909091 C49.0909091,34.8545455 49.5818182,34.3636364 50.3181818,34.3636364 C51.0545455,34.3636364 51.5454545,34.8545455 51.5454545,35.5909091 C51.5454545,36.3272727 51.0545455,36.8181818 50.3181818,36.8181818 Z M51.5454546,32.1545454 C51.1772728,32.0318182 50.8090909,31.9090909 50.3181819,31.9090909 C48.2318182,31.9090909 46.6363637,33.5045454 46.6363637,35.590909 C46.6363637,36.0818181 46.759091,36.4499999 46.8818183,36.8181818 L7.11818185,36.8181818 C7.24090911,36.45 7.36363642,36.0818182 7.36363642,35.590909 C7.36363642,33.5045454 5.76818189,31.9090909 3.68181824,31.9090909 C3.19090917,31.9090909 2.82272735,32.0318181 2.45454547,32.1545454 L2.45454547,16.9363636 C2.82272729,17.0590909 3.19090911,17.1818181 3.68181824,17.1818181 C5.76818189,17.1818181 7.36363642,15.5863636 7.36363642,13.5 C7.36363642,13.0090909 7.24090917,12.6409091 7.11818185,12.2727272 L46.8818182,12.2727272 C46.759091,12.6409091 46.6363636,13.0090909 46.6363636,13.5 C46.6363636,15.5863636 48.2318182,17.1818181 50.3181818,17.1818181 C50.8090909,17.1818181 51.1772727,17.0590909 51.5454546,16.9363636 L51.5454546,32.1545454 Z M50.3181818,14.7272727 C49.5818182,14.7272727 49.0909091,14.2363637 49.0909091,13.5 C49.0909091,12.7636364 49.5818182,12.2727273 50.3181818,12.2727273 C51.0545455,12.2727273 51.5454545,12.7636364 51.5454545,13.5 C51.5454545,14.2363637 51.0545455,14.7272727 50.3181818,14.7272727 Z M24.7909091,21.4772727 C24.7909091,21.7227273 24.7909091,21.9681818 24.9136364,22.2136363 C25.0363636,22.4590909 25.1590909,22.5818182 25.2818182,22.7045454 C25.4045454,22.8272727 25.65,22.95 25.8954546,23.0727272 C26.1409091,23.1954545 26.2636364,23.1954545 26.3863636,23.3181818 L26.3863636,20.0045454 C25.7727273,20.0045454 25.5272728,20.1272727 25.1590909,20.3727272 C24.9136364,20.3727272 24.7909091,20.8636363 24.7909091,21.4772727 Z M27,14.7272727 C21.6,14.7272727 17.1818182,19.1454545 17.1818182,24.5454546 C17.1818182,29.9454546 21.6,34.3636364 27,34.3636364 C32.4,34.3636364 36.8181819,29.9454546 36.8181819,24.5454546 C36.8181819,19.1454545 32.4,14.7272727 27,14.7272727 Z M30.9272728,28.5954545 C30.6818182,29.0863636 30.4363637,29.4545454 30.0681819,29.7 C29.7000001,30.0681818 29.3318182,30.190909 28.8409092,30.4363636 C28.3500001,30.5590908 27.9818183,30.6818181 27.4909092,30.6818181 L27.4909091,31.9090909 L26.5090909,31.9090909 L26.5090909,30.8045454 C25.8954545,30.8045454 25.5272727,30.6818181 25.0363636,30.5590908 C24.5454546,30.4363636 24.1772727,30.0681818 23.8090909,29.8227272 C23.4409091,29.4545454 23.1954545,29.0863636 22.95,28.5954545 C22.7045455,28.1045454 22.7045455,27.6136363 22.7045455,27 L24.5454546,27 C24.5454546,27.7363636 24.6681818,28.35 25.0363636,28.7181818 C25.4045454,29.0863636 25.7727273,29.3318182 26.5090909,29.3318182 L26.5090909,25.2818182 C26.0181818,25.1590909 25.7727273,25.0363636 25.2818182,24.7909091 C24.7909091,24.6681819 24.4227273,24.4227273 24.0545455,24.1772727 C23.6863637,23.9318182 23.4409091,23.5636364 23.1954546,23.1954545 C22.95,22.8272727 22.8272728,22.2136363 22.8272728,21.6 C22.8272728,21.1090909 22.95,20.6181818 23.0727273,20.25 C23.1954547,19.8818182 23.5636364,19.5136364 23.9318182,19.2681818 C24.3,19.0227272 24.6681819,18.7772727 25.1590909,18.6545454 C25.65,18.5318182 25.8954546,18.4090908 26.3863636,18.4090908 L26.3863636,17.1818181 L27.3681818,17.1818181 L27.3681818,18.2863636 C27.8590909,18.2863636 28.2272727,18.4090908 28.5954546,18.5318182 C29.0863636,18.6545454 29.4545454,18.9 29.7,19.1454545 C30.0681818,19.3909091 30.3136364,19.7590909 30.4363636,20.1272727 C30.6818182,20.4954546 30.6818182,20.9863636 30.6818182,21.6 L28.8409091,21.6 C28.8409091,20.9863636 28.7181819,20.6181818 28.35,20.25 C28.1045455,20.0045454 27.7363637,19.7590909 27.2454546,19.7590909 L27.2454546,23.3181818 C27.7363637,23.440909 28.1045455,23.5636364 28.5954546,23.8090909 C29.0863637,24.0545454 29.4545455,24.1772727 29.8227273,24.5454545 C30.1909091,24.7909091 30.4363637,25.1590909 30.6818182,25.5272727 C30.9272728,25.8954545 31.05,26.3863636 31.05,27 C31.2954546,27.6136364 31.1727273,28.2272727 30.9272728,28.5954545 Z M28.7181819,26.0181818 C28.4727273,25.8954545 28.35,25.7727272 28.1045455,25.65 C27.8590909,25.5272727 27.7363637,25.5272727 27.4909091,25.4045454 L27.4909091,29.3318181 C28.1045455,29.3318181 28.4727273,29.0863636 28.8409091,28.8409091 C29.2090909,28.5954545 29.4545455,28.1045454 29.4545455,27.3681818 C29.4545455,27 29.4545455,26.7545454 29.3318182,26.6318182 C29.0863637,26.2636363 28.9636364,26.1409091 28.7181819,26.0181818 Z" id="形状"></path>
                    </g>
                </g>
            </g>
        </g>
    </g>
</svg>