<?xml version="1.0" encoding="UTF-8"?>
<svg width="102px" height="102px" viewBox="0 0 102 102" version="1.1" xmlns="http://www.w3.org/2000/svg" xmlns:xlink="http://www.w3.org/1999/xlink">
    <title>icon2</title>
    <g id="页面-1" stroke="none" stroke-width="1" fill="none" fill-rule="evenodd">
        <g id="inst-导航" transform="translate(-1059.000000, -1473.000000)">
            <g id="why-crypto" transform="translate(320.000000, 1232.000000)">
                <g id="icon2" transform="translate(740.000000, 242.000000)">
                    <circle id="椭圆形备份" stroke="#0045FF" stroke-width="2" opacity="0.045155" cx="50" cy="50" r="50"></circle>
                    <g id="编组" transform="translate(28.176894, 29.827981)" fill-rule="nonzero">
                        <path d="M29.0870944,15.4838333 C29.0873592,10.8779888 26.6303225,6.62189968 22.6415882,4.31890097 C18.652854,2.01590226 13.7384543,2.01590226 9.74972009,4.31890097 C5.76098585,6.62189968 3.30394913,10.8779888 3.30421393,15.4838333 C3.30394913,20.0896779 5.76098585,24.345767 9.74972009,26.6487657" id="路径" stroke="#0045FF" stroke-width="4" transform="translate(16.195654, 14.620209) rotate(-13.000000) translate(-16.195654, -14.620209) "></path>
                        <path d="M42.9287842,1.17479898 L42.9287842,10.8649371 L39.6987381,10.8649371 L39.6987381,4.40484503 L33.238646,4.40484503 L33.238646,1.17479898 L42.9287842,1.17479898 Z M0,40.0026442 L0,30.312506 L3.23004606,30.312506 L3.23004606,36.7725981 L9.69013817,36.7725981 L9.69013817,40.0026442 L0,40.0026442 Z" id="形状" fill="#0045FF"></path>
                        <path d="M25.1486634,11.2350466 C32.5777693,11.2350466 38.6071886,17.2644659 38.6071886,24.6935718 C38.6071886,32.1226777 32.5777693,38.152097 25.1486634,38.152097 C17.7195575,38.152097 11.6901382,32.1226777 11.6901382,24.6935718 C11.6901382,17.2644659 17.7195575,11.2350466 25.1486634,11.2350466 Z" id="路径" stroke="#0045FF" stroke-width="4"></path>
                    </g>
                </g>
            </g>
        </g>
    </g>
</svg>