<svg width="40" height="33" viewBox="0 0 40 33" fill="none" xmlns="http://www.w3.org/2000/svg">
<path d="M35.6675 7.8103L33.0737 14.7151H20.6216L18.0278 7.8103H35.6675Z" fill="#00AF7E"/>
<path d="M33.9891 31.9795L27.1066 31.9763L20.6214 14.7151L18.0276 7.81025L15.4338 14.7151L8.94774 31.9795H2.06201L8.69268 14.7151L11.3441 7.81025L14.3275 0.0400391H21.7266L24.7112 7.81025L27.3626 14.7151L33.9891 31.9795Z" fill="#141A23"/>
<path d="M18.0275 7.8103L15.4337 14.7151H2.98393L0.390137 7.8103H18.0275Z" fill="#00AF7E"/>
<path d="M21.918 18.1675L24.5118 25.0723H2.98393L0.390137 18.1675H21.918Z" fill="#00AF7E"/>
<path d="M35.6669 18.1675L33.0731 25.0723H31.3394L28.688 18.1675H35.6669Z" fill="#00AF7E"/>
<path d="M37.3545 32.04C36.8761 32.04 36.4768 31.8775 36.1474 31.5528C35.8227 31.2237 35.6602 30.8243 35.6602 30.3501C35.6602 29.8761 35.8227 29.4768 36.1474 29.1518C36.4765 28.8227 36.8758 28.6602 37.3545 28.6602C37.8329 28.6602 38.2322 28.8227 38.5572 29.1518C38.8863 29.4765 39.0488 29.8761 39.0488 30.3501C39.0488 30.824 38.8863 31.2234 38.5572 31.5528C38.2322 31.8775 37.8329 32.04 37.3545 32.04ZM38.3727 31.3815C38.6492 31.1006 38.7852 30.7582 38.7852 30.3501C38.7852 29.9419 38.6492 29.5996 38.3727 29.3231C38.0962 29.0422 37.7582 28.9017 37.3545 28.9017C36.9551 28.9017 36.6128 29.0422 36.3363 29.3231C36.0598 29.5996 35.9237 29.9419 35.9237 30.3501C35.9237 30.7582 36.0598 31.1006 36.3363 31.3815C36.6128 31.658 36.9551 31.7984 37.3545 31.7984C37.7582 31.7984 38.0962 31.658 38.3727 31.3815ZM38.2061 30.6181C38.0788 31.0042 37.7891 31.2457 37.3986 31.2457C37.1441 31.2457 36.9378 31.1579 36.7797 30.9868C36.626 30.8158 36.547 30.5919 36.547 30.3242C36.547 30.0742 36.6304 29.8635 36.7926 29.6966C36.9595 29.5252 37.1614 29.4421 37.3983 29.4421C37.5957 29.4421 37.767 29.5035 37.9163 29.6219C38.0656 29.7403 38.162 29.8896 38.2105 30.0694L37.8769 30.1923C37.8243 29.9114 37.6442 29.7445 37.3986 29.7445C37.1044 29.7445 36.9025 29.9816 36.9025 30.3457C36.9025 30.6968 37.1044 30.9425 37.3986 30.9425C37.6618 30.9425 37.8199 30.7932 37.8769 30.4946L38.2061 30.6181Z" fill="#141A23"/>
</svg>
