<?xml version="1.0" standalone="no"?><!DOCTYPE svg PUBLIC "-//W3C//DTD SVG 1.1//EN" "http://www.w3.org/Graphics/SVG/1.1/DTD/svg11.dtd"><svg t="1630894734151" class="icon" viewBox="0 0 1501 1024" version="1.1" xmlns="http://www.w3.org/2000/svg" p-id="2276" xmlns:xlink="http://www.w3.org/1999/xlink" width="46.90625" height="32"><defs><style type="text/css"></style></defs><path d="M1363.421867 0.341333H118.715733l-12.970666 0.2048a187.1872 187.1872 0 0 0-28.125867 2.4576A89.975467 89.975467 0 0 0 2.730667 77.960533a186.1632 186.1632 0 0 0-2.4576 28.194134 616.994133 616.994133 0 0 0-0.2048 12.970666v705.809067a4030.2592 4030.2592 0 0 0 0.2048 28.2624c0.273067 9.4208 0.8192 18.909867 2.525866 28.194133a89.770667 89.770667 0 0 0 48.196267 66.1504c8.533333 4.3008 17.271467 7.099733 26.692267 8.8064 9.284267 1.6384 18.773333 2.184533 28.194133 2.4576a685.397333 685.397333 0 0 0 28.2624 0.2048h1244.706133l12.970667-0.2048c9.352533-0.273067 18.8416-0.8192 28.125867-2.4576 9.4208-1.706667 18.2272-4.5056 26.760533-8.874666a89.634133 89.634133 0 0 0 39.389867-39.3216c4.369067-8.6016 7.099733-17.339733 8.8064-26.760534 1.6384-9.284267 2.184533-18.773333 2.4576-28.194133 0.136533-4.3008 0.2048-8.6016 0.2048-12.970667V134.485333v-15.36l-0.2048-12.970666a186.1632 186.1632 0 0 0-2.4576-28.125867A90.248533 90.248533 0 0 0 1419.8784 3.003733a187.665067 187.665067 0 0 0-28.125867-2.4576 689.9712 689.9712 0 0 0-12.970666-0.2048h-15.36" fill="#1A1919" p-id="2277"></path><path d="M1363.421867 32.290133h15.1552l12.288 0.2048c7.168 0.2048 15.5648 0.546133 23.3472 1.979734 6.826667 1.2288 12.4928 3.072 17.954133 5.870933a57.821867 57.821867 0 0 1 25.3952 25.3952c2.730667 5.461333 4.573867 11.0592 5.802667 17.954133 1.365333 7.714133 1.774933 16.110933 2.048 23.3472l0.136533 12.288V840.157867c0 4.096-0.068267 8.123733-0.2048 12.219733a158.242133 158.242133 0 0 1-1.979733 23.415467 57.7536 57.7536 0 0 1-31.266134 43.281066 62.395733 62.395733 0 0 1-17.749333 5.802667 161.792 161.792 0 0 1-23.3472 1.979733c-4.096 0.136533-8.192 0.136533-12.4928 0.2048H134.075733h-15.1552c-4.096 0-8.260267-0.068267-12.288-0.2048a162.884267 162.884267 0 0 1-23.3472-1.979733 62.600533 62.600533 0 0 1-17.954133-5.870933 57.207467 57.207467 0 0 1-25.326933-25.3952 62.600533 62.600533 0 0 1-5.870934-17.954134 159.880533 159.880533 0 0 1-1.979733-23.278933 617.608533 617.608533 0 0 1-0.2048-12.288V119.261867l0.2048-12.288c0.2048-7.168 0.6144-15.496533 2.048-23.3472A57.7536 57.7536 0 0 1 65.3312 40.277333 62.737067 62.737067 0 0 1 83.285333 34.474667c7.850667-1.365333 16.247467-1.774933 23.415467-2.048l12.288-0.136534h1244.433067" fill="#FFFFFE" p-id="2278"></path><path d="M393.6256 323.925333c12.6976-15.837867 21.2992-37.205333 19.114667-58.9824-18.6368 0.955733-41.301333 12.288-54.4768 28.194134-11.741867 13.585067-22.186667 35.771733-19.456 56.661333 20.821333 1.8432 41.642667-10.4448 54.818133-25.873067M412.4672 353.8944c-30.3104-1.8432-56.1152 17.2032-70.519467 17.2032-14.472533 0-36.6592-16.315733-60.6208-15.837867-31.197867 0.4096-60.074667 18.0224-75.9808 46.08-32.5632 56.1152-8.533333 139.332267 23.074134 185.002667 15.36 22.664533 33.928533 47.5136 58.299733 46.626133 23.074133-0.887467 32.085333-14.882133 60.142933-14.882133 27.989333 0 36.181333 14.882133 60.6208 14.472533 25.258667-0.477867 41.1648-22.596267 56.5248-45.2608 17.6128-25.8048 24.849067-50.653867 25.258667-52.0192-0.4096-0.477867-48.810667-18.978133-49.220267-74.615466-0.477867-46.626133 37.956267-68.8128 39.7312-70.178134-21.640533-32.085333-55.569067-35.703467-67.310933-36.590933M639.931733 470.016h60.484267c45.806933 0 71.953067-24.644267 71.953067-67.447467s-26.146133-67.310933-71.748267-67.310933h-60.689067v134.7584z m74.5472-179.2c65.877333 0 111.752533 45.397333 111.752534 111.479467 0 66.3552-46.830933 111.957333-113.322667 111.957333H639.863467V630.101333h-52.6336v-339.285333h127.1808zM999.150933 537.941333v-18.978133l-58.504533 3.754667c-32.9728 2.048-50.107733 14.336-50.107733 35.771733 0 20.6848 17.885867 34.133333 45.8752 34.133333 35.703467 0 62.805333-22.869333 62.805333-54.613333z m-159.880533 21.9136c0-43.485867 33.1776-68.4032 94.276267-72.157866l65.604266-4.027734V464.896c0-27.579733-18.090667-42.5984-50.312533-42.5984-26.555733 0-45.806933 13.653333-49.834667 34.542933h-47.5136c1.365333-43.963733 42.8032-75.912533 98.781867-75.912533 60.2112 0 99.464533 31.470933 99.464533 80.418133V630.101333h-48.674133v-40.686933h-1.160533c-13.858133 26.624-44.4416 43.281067-77.6192 43.281067-48.878933 0-83.012267-29.149867-83.012267-72.9088zM1094.519467 720.896v-40.618667c3.2768 0.477867 11.264 0.955733 15.496533 0.955734 23.278933 0 36.4544-9.898667 44.4416-35.293867l4.778667-15.018667-89.224534-246.9888h55.0912l62.122667 200.362667h1.092267l62.122666-200.362667h53.589334l-92.433067 259.413334c-21.162667 59.528533-45.397333 79.0528-96.6656 79.0528-3.959467 0-16.930133-0.477867-20.48-1.4336" fill="#1A1919" p-id="2279"></path></svg>