<?xml version="1.0" encoding="UTF-8"?>
<svg width="1129px" height="80px" viewBox="0 0 1129 80" version="1.1" xmlns="http://www.w3.org/2000/svg" xmlns:xlink="http://www.w3.org/1999/xlink">
    <!-- Generator: Sketch 63.1 (92452) - https://sketch.com -->
    <title>路径 4</title>
    <desc>Created with Sketch.</desc>
    <g id="页面-1" stroke="none" stroke-width="1" fill="none" fill-rule="evenodd">
        <g id="NOUMENA-2.0备份-18" transform="translate(-423.000000, -676.000000)" fill="#5ECFC5" fill-rule="nonzero">
            <g id="路径-5备份" transform="translate(423.646890, 676.000000)">
                <path d="M0.0505629511,11.4339399 C6.73449057,11.0955479 13.3949706,10.7653865 20.0320029,10.4434557 L19.9835546,9.44463005 C13.3458161,9.7665951 6.68463122,10.0967914 -3.41060513e-13,10.435219 L0.0505629511,11.4339399 Z M40.0122978,9.49588804 C46.7023857,9.18588778 53.3683069,8.8843705 60.0100613,8.59133619 L59.9659842,7.59230806 C53.3234916,7.88537494 46.6568336,8.18692555 39.9660102,8.49695989 L40.0122978,9.49588804 Z M80.0032699,7.73180281 C86.6780598,7.45243491 93.3280801,7.18176156 99.9533307,6.91978275 L99.9138191,5.92056364 C93.2877983,6.1825729 86.6370094,6.45327754 79.9614523,6.73267755 L80.0032699,7.73180281 Z M119.952011,6.15259587 C126.646196,5.90375765 133.314707,5.66393145 139.957544,5.43311726 L139.922819,4.43372037 C133.279173,4.66456266 126.609855,4.90441789 119.914864,5.15328605 L119.952011,6.15259587 Z M159.922823,4.76403807 C166.610483,4.5482388 173.271712,4.34171728 179.906509,4.14447348 L179.876793,3.14491508 C173.241149,3.34218406 166.579075,3.5487318 159.890572,3.76455828 L159.922823,4.76403807 Z M199.886522,3.57637115 C206.567481,3.3951308 213.221203,3.22345066 219.84769,3.0613307 L219.823232,2.06162984 C213.195857,2.22377154 206.541247,2.39547456 199.859404,2.57673891 L199.886522,3.57637115 Z M239.89954,2.59812694 C246.593818,2.4527025 253.259832,2.31719939 259.89758,2.19161758 L259.878664,1.19179651 C253.239979,1.31739602 246.573032,1.45291813 239.877821,1.59836282 L239.89954,2.59812694 Z M279.842781,1.84276127 C286.541624,1.73524621 293.211178,1.63801132 299.851445,1.55105659 L299.838351,0.551142317 C293.197097,0.638109974 286.526558,0.735359217 279.826734,0.842890038 L279.842781,1.84276127 Z M319.851892,1.31934521 C326.542145,1.25202785 333.202133,1.19533418 339.831853,1.14926417 L339.824904,0.149288317 C333.194144,0.195365547 326.533119,0.252068053 319.84183,0.319395825 L319.851892,1.31934521 Z M359.886735,1.04196121 C366.593241,1.01689901 373.268195,1.00291191 379.911595,1 L379.911156,1.13686838e-13 C373.266654,0.00291249044 366.590601,0.0169018906 359.882998,0.0419681876 L359.886735,1.04196121 Z M399.826341,1.02472555 C406.52649,1.04440105 413.193924,1.07556395 419.828642,1.11820991 L419.83507,0.118230568 C413.199185,0.075577109 406.530588,0.0444087751 399.829278,0.0247255513 L399.826341,1.02472555 Z M439.869291,1.28294554 C446.571634,1.3501735 453.239914,1.42935722 459.874131,1.52049668 L459.887868,0.520591026 C453.252412,0.429434553 446.582896,0.350236163 439.879321,0.282995838 L439.869291,1.28294554 Z M479.809847,1.83215389 C486.515279,1.94982237 493.185182,2.07996116 499.819556,2.22257023 L499.841047,1.22280118 C493.205354,1.08016377 486.534136,0.949999324 479.827392,0.832307827 L479.809847,1.83215389 Z M519.830566,2.69328817 C526.528336,2.86456759 533.189097,3.04883648 539.812849,3.24609483 L539.842616,2.24653797 C533.217459,2.04923779 526.555297,1.86493014 519.85613,1.69361499 L519.830566,2.69328817 Z M559.798842,3.88453856 C566.499519,4.1132555 573.161452,4.35557097 579.784641,4.61148496 L579.823251,3.61223062 C573.19856,3.35625855 566.535128,3.11388855 559.832955,2.88512059 L559.798842,3.88453856 Z M599.731325,5.42838966 C606.429491,5.71840289 613.087077,6.02265877 619.704082,6.34115726 L619.752159,5.34231366 C613.133543,5.0237376 606.47435,4.71940828 599.774582,4.42932568 L599.731325,5.42838966 Z M639.706676,7.35390049 C646.404976,7.70997752 653.060639,8.08101911 659.673664,8.46702522 L659.731935,7.46872444 C653.117176,7.0826171 646.459785,6.71147912 639.75976,6.35531046 L639.706676,7.35390049 Z M679.651192,9.68691939 C686.342951,10.1137982 692.989885,10.5564084 699.591996,11.01475 L699.661253,10.0171511 C693.057271,9.55867964 686.408472,9.11594525 679.714854,8.68894789 L679.651192,9.68691939 Z M719.555822,12.4589407 C726.250822,12.963061 732.89843,13.4838136 739.498645,14.0211984 L739.579796,13.0244966 C732.977552,12.4869466 726.327923,11.9660356 719.630907,11.4617636 L719.555822,12.4589407 Z M759.402118,15.7047513 C766.092565,16.2921671 772.732866,16.8971811 779.323021,17.5197931 L779.417078,16.5242263 C772.824717,15.9014059 766.182218,15.2961917 759.489581,14.7085835 L759.402118,15.7047513 Z M799.224389,19.4689535 C805.908583,20.1471338 812.539557,20.84399 819.117313,21.559522 L819.225456,20.5653866 C812.645291,19.8495926 806.011917,19.1524842 799.325331,18.4740612 L799.224389,19.4689535 Z M838.977888,23.7955469 C845.652506,24.5728408 852.270479,25.3700118 858.831809,26.1870595 L858.95538,25.1947237 C852.391408,24.377347 845.770802,23.579859 839.093562,22.8022596 L838.977888,23.7955469 Z M878.665112,28.7402762 C885.32966,29.6267817 891.93366,30.5345332 898.477112,31.4635307 L898.617676,30.4734591 C892.071311,29.5440481 885.464409,28.6358976 878.796969,27.7490074 L878.665112,28.7402762 Z M918.268068,34.3660596 C924.917647,35.3730391 931.502273,36.4028092 938.021944,37.4553698 L938.181324,36.4681525 C931.658423,35.4150705 925.07058,34.3847972 918.417796,33.3773323 L918.268068,34.3660596 Z M957.746898,40.7434657 C964.380061,41.8847648 970.943171,43.0506419 977.436228,44.2410967 L977.616564,43.2574917 C971.119904,42.0663763 964.553204,40.8998616 957.916466,39.7579471 L957.746898,40.7434657 Z M997.038381,47.9512321 C1003.64712,49.2421438 1010.17999,50.5596717 1016.63699,51.9038154 L1016.84079,50.9248028 C1010.37975,49.5798169 1003.84285,48.2614764 997.230092,46.9697806 L997.038381,47.9512321 Z M1036.2027,56.1097507 C1042.78163,57.5697997 1049.27786,59.058855 1055.69141,60.5769158 L1055.92174,59.6038037 C1049.50362,58.0846596 1043.00282,56.5945596 1036.41936,55.1335029 L1036.2027,56.1097507 Z M1075.10235,65.3237226 C1081.64057,66.9752919 1088.08814,68.6586582 1094.44505,70.3738205 L1094.70554,69.4083455 C1088.34342,67.6917759 1081.89066,66.0070533 1075.34726,64.3541766 L1075.10235,65.3237226 Z M1113.7465,75.7596164 C1118.49443,77.1295813 1123.18869,78.5183691 1127.82927,79.9259794 L1128.11954,78.9690337 C1123.4746,77.5601016 1118.77599,76.1700281 1114.02373,74.7988127 L1113.7465,75.7596164 Z" id="路径-4"></path>
            </g>
        </g>
    </g>
</svg>