<?xml version="1.0" encoding="UTF-8"?>
<svg width="1129px" height="81px" viewBox="0 0 1129 81" version="1.1" xmlns="http://www.w3.org/2000/svg" xmlns:xlink="http://www.w3.org/1999/xlink">
    <!-- Generator: Sketch 63.1 (92452) - https://sketch.com -->
    <title>路径 4</title>
    <desc>Created with Sketch.</desc>
    <g id="页面-1" stroke="none" stroke-width="1" fill="none" fill-rule="evenodd">
        <g id="NOUMENA-2.0备份-18" transform="translate(-423.000000, -613.000000)" fill="#C2D1E0" fill-rule="nonzero">
            <path d="M423.697453,624.604438 C430.381381,624.266046 437.041861,623.935885 443.678893,623.613954 L443.630445,622.615128 C436.992706,622.937093 430.331522,623.267289 423.64689,623.605717 L423.697453,624.604438 Z M463.659188,622.666386 C470.349276,622.356386 477.015197,622.054869 483.656952,621.761834 L483.612875,620.762806 C476.970382,621.055873 470.303724,621.357424 463.612901,621.667458 L463.659188,622.666386 Z M503.65016,620.902301 C510.32495,620.622933 516.97497,620.35226 523.600221,620.090281 L523.560709,619.091062 C516.934689,619.353071 510.2839,619.623776 503.608343,619.903176 L503.65016,620.902301 Z M543.598901,619.323094 C550.293086,619.074256 556.961597,618.834429 563.604434,618.603615 L563.569709,617.604218 C556.926063,617.835061 550.256745,618.074916 543.561754,618.323784 L543.598901,619.323094 Z M583.569714,617.934536 C590.257374,617.718737 596.918602,617.512215 603.553399,617.314971 L603.523683,616.315413 C596.888039,616.512682 590.225966,616.71923 583.537462,616.935056 L583.569714,617.934536 Z M623.533412,616.746869 C630.214371,616.565629 636.868094,616.393949 643.49458,616.231829 L643.470122,615.232128 C636.842747,615.39427 630.188138,615.565973 623.506294,615.747237 L623.533412,616.746869 Z M663.54643,615.768625 C670.240709,615.623201 676.906722,615.487697 683.54447,615.362116 L683.525554,614.362295 C676.88687,614.487894 670.219922,614.623416 663.524712,614.768861 L663.54643,615.768625 Z M703.489672,615.013259 C710.188514,614.905744 716.858069,614.808509 723.498335,614.721555 L723.485241,613.72164 C716.843988,613.808608 710.173449,613.905857 703.473624,614.013388 L703.489672,615.013259 Z M743.498782,614.489843 C750.189036,614.422526 756.849023,614.365832 763.478743,614.319762 L763.471795,613.319786 C756.841034,613.365864 750.180009,613.422566 743.488721,613.489894 L743.498782,614.489843 Z M783.533626,614.212459 C790.240132,614.187397 796.915085,614.17341 803.558485,614.170498 L803.558047,613.170498 C796.913544,613.173411 790.237492,613.1874 783.529889,613.212466 L783.533626,614.212459 Z M823.473231,614.195224 C830.173381,614.214899 836.840814,614.246062 843.475532,614.288708 L843.48196,613.288729 C836.846075,613.246075 830.177478,613.214907 823.476168,613.195224 L823.473231,614.195224 Z M863.516181,614.453444 C870.218524,614.520672 876.886804,614.599855 883.521021,614.690995 L883.534758,613.691089 C876.899302,613.599933 870.229786,613.520734 863.526211,613.453494 L863.516181,614.453444 Z M903.456737,615.002652 C910.162169,615.12032 916.832073,615.250459 923.466447,615.393068 L923.487937,614.393299 C916.852245,614.250662 910.181027,614.120497 903.474283,614.002806 L903.456737,615.002652 Z M943.477456,615.863786 C950.175226,616.035066 956.835987,616.219334 963.459739,616.416593 L963.489507,615.417036 C956.864349,615.219736 950.202187,615.035428 943.503021,614.864113 L943.477456,615.863786 Z M983.445732,617.055037 C990.14641,617.283754 996.808343,617.526069 1003.43153,617.781983 L1003.47014,616.782729 C996.84545,616.526757 990.182018,616.284387 983.479846,616.055619 L983.445732,617.055037 Z M1023.37822,618.598888 C1030.07638,618.888901 1036.73397,619.193157 1043.35097,619.511655 L1043.39905,618.512812 C1036.78043,618.194236 1030.12124,617.889906 1023.42147,617.599824 L1023.37822,618.598888 Z M1063.35357,620.524399 C1070.05187,620.880476 1076.70753,621.251517 1083.32055,621.637523 L1083.37883,620.639222 C1076.76407,620.253115 1070.10667,619.881977 1063.40665,619.525808 L1063.35357,620.524399 Z M1103.29808,622.857417 C1109.98984,623.284296 1116.63678,623.726906 1123.23889,624.185248 L1123.30814,623.187649 C1116.70416,622.729178 1110.05536,622.286443 1103.36174,621.859446 L1103.29808,622.857417 Z M1143.20271,625.629439 C1149.89771,626.133559 1156.54532,626.654312 1163.14554,627.191696 L1163.22669,626.194995 C1156.62444,625.657445 1149.97481,625.136534 1143.2778,624.632262 L1143.20271,625.629439 Z M1183.04901,628.875249 C1189.73945,629.462665 1196.37976,630.067679 1202.96991,630.690291 L1203.06397,629.694724 C1196.47161,629.071904 1189.82911,628.46669 1183.13647,627.879082 L1183.04901,628.875249 Z M1222.87128,632.639452 C1229.55547,633.317632 1236.18645,634.014488 1242.7642,634.73002 L1242.87235,633.735885 C1236.29218,633.020091 1229.65881,632.322982 1222.97222,631.644559 L1222.87128,632.639452 Z M1262.62478,636.966045 C1269.2994,637.743339 1275.91737,638.54051 1282.4787,639.357558 L1282.60227,638.365222 C1276.0383,637.547845 1269.41769,636.750357 1262.74045,635.972758 L1262.62478,636.966045 Z M1302.312,641.910774 C1308.97655,642.79728 1315.58055,643.705031 1322.124,644.634029 L1322.26457,643.643957 C1315.7182,642.714546 1309.1113,641.806396 1302.44386,640.919505 L1302.312,641.910774 Z M1341.91496,647.536558 C1348.56454,648.543537 1355.14916,649.573307 1361.66883,650.625868 L1361.82821,649.63865 C1355.30531,648.585569 1348.71747,647.555295 1342.06469,646.54783 L1341.91496,647.536558 Z M1381.39379,653.913964 C1388.02695,655.055263 1394.59006,656.22114 1401.08312,657.411595 L1401.26345,656.42799 C1394.76679,655.236874 1388.20009,654.07036 1381.56336,652.928445 L1381.39379,653.913964 Z M1420.68527,661.12173 C1427.29401,662.412642 1433.82688,663.73017 1440.28388,665.074313 L1440.48768,664.095301 C1434.02664,662.750315 1427.48974,661.431974 1420.87698,660.140279 L1420.68527,661.12173 Z M1459.84959,669.280249 C1466.42852,670.740298 1472.92475,672.229353 1479.3383,673.747414 L1479.56863,672.774302 C1473.15051,671.255158 1466.64971,669.765058 1460.06625,668.304001 L1459.84959,669.280249 Z M1498.74924,678.494221 C1505.28746,680.14579 1511.73503,681.829156 1518.09194,683.544319 L1518.35243,682.578844 C1511.99031,680.862274 1505.53755,679.177551 1498.99415,677.524675 L1498.74924,678.494221 Z M1537.39339,688.930114 C1542.14132,690.300079 1546.83558,691.688867 1551.47616,693.096477 L1551.76643,692.139532 C1547.12149,690.7306 1542.42288,689.340526 1537.67062,687.969311 L1537.39339,688.930114 Z" id="路径-4"></path>
        </g>
    </g>
</svg>