<?xml version="1.0" encoding="UTF-8"?>
<svg width="1920px" height="327px" viewBox="0 0 1920 327" version="1.1" xmlns="http://www.w3.org/2000/svg" xmlns:xlink="http://www.w3.org/1999/xlink">
    <!-- Generator: Sketch 63.1 (92452) - https://sketch.com -->
    <title>编组</title>
    <desc>Created with Sketch.</desc>
    <defs>
        <path d="M0,0.814479106 L0,430.814479 L1920,430.814479 L1920,40.9365641 C1920,40.9365641 1714.61833,52.0770623 1644.41315,52.0770623 L1644.41315,52.0770623 C1574.20798,52.0770623 1336.59027,29.7952595 1235.78247,33.1366831 L1235.78247,33.1366831 C1134.97587,36.4797197 873.955244,37.5935275 830.752244,37.5935275 L830.752244,37.5935275 C787.549244,37.5935275 654.338592,28.6814516 594.933567,25.3392215 L594.933567,25.3392215 C535.529741,21.9969914 267.309414,18.6547614 229.507088,16.4263391 L229.507088,16.4263391 C191.704763,14.1979169 0,0.814479106 0,0.814479106 Z" id="path-1"></path>
        <path d="M0,3.45623279 L0,385 L1768,385 L1768,87.8765395 C1768,87.8765395 1475.36053,89.5318234 1395.79058,80.9127601 L1395.79058,80.9127601 C1316.22063,72.2936968 1243.28041,79.60012 1152.65908,80.8647569 L1152.65908,80.8647569 C1062.03775,82.1293938 828.867973,57.4515937 557.00399,22.6906317 L557.00399,22.6906317 C413.405656,4.33022269 266.125001,-9.09494702e-13 159.094582,-9.09494702e-13 L159.094582,-9.09494702e-13 C63.4923965,-9.09494702e-13 0,3.45623279 0,3.45623279" id="path-3"></path>
        <path d="M1347.32404,63.7013323 C1137.20153,100.618431 804.699962,158.631014 569.178022,183.242413 L569.178022,183.242413 C333.656082,207.853812 0,213.127683 0,213.127683 L0,213.127683 L0,323 L1847,323 L1847,9.09494702e-13 C1847,9.09494702e-13 1557.44656,26.7833549 1347.32404,63.7013323" id="path-5"></path>
    </defs>
    <g id="页面-1" stroke="none" stroke-width="1" fill="none" fill-rule="evenodd">
        <g id="NOUMENA-2.0备份-18" transform="translate(0.000000, -753.000000)">
            <g id="编组" transform="translate(0.000000, 699.000000)">
                <g transform="translate(0.000000, 0.185521)">
                    <mask id="mask-2" fill="white">
                        <use xlink:href="#path-1"></use>
                    </mask>
                    <g id="Clip-2"></g>
                </g>
                <g transform="translate(0.000000, 46.000000)">
                    <mask id="mask-4" fill="white">
                        <use xlink:href="#path-3"></use>
                    </mask>
                    <g id="Clip-10"></g>
                    <path d="M-202,579.535092 L1763.53858,579.535092 L1763.30035,227.217593 C1763.30035,227.217593 1628.12142,273.44936 1539.66113,260.654561 L1416.29651,226.400729 C1327.83621,213.60593 1237.11221,179.57251 1123.54798,175.543906 C1009.98375,171.515301 719.477365,93.2971153 417.238028,41.6952773 C257.595456,14.4396779 93.8591381,8.01156325 -25.1297858,8.01156325 C-131.4136,8.01156325 -202,13.1422603 -202,13.1422603 L-202,579.535092 Z" id="Fill-9" fill="#E6EAEE" mask="url(#mask-4)"></path>
                </g>
                <g transform="translate(134.000000, 144.000000)">
                    <path d="M0.630156731,317.435832 C0.630156731,317.435832 118.374493,211.774926 229.357761,124.956062 C369.027964,15.6953133 499.762449,-7.12867106 567.838789,2.2825213 L634.577166,11.5880528 C634.577166,11.5880528 551.203339,50.9762271 489.612859,113.461138 C428.691975,175.267854 405.444119,261.483468 405.444119,261.483468 C405.444119,261.483468 309.666193,278.89786 205.181071,290.507045 C100.694721,302.11623 0.630156731,317.435832 0.630156731,317.435832" id="Fill-11" fill="#C2D1E0"></path>
                    <path d="M515.602371,31.9184398 C512.452201,30.1885496 513.326975,30.6750812 510.195235,28.9243045 C510.002343,28.817415 510.053945,28.5311477 510.213665,28.4586594 C519.372991,24.2285373 525.466922,22.0612601 534.046342,18.7255698 C534.097944,18.705912 534.165518,18.7169695 534.228177,18.7575138 C537.222312,20.7024117 536.34631,20.1704213 538.388268,21.6459881 C538.57256,21.7627066 538.4841,21.8966256 538.334209,21.9543706 C529.929253,25.1635134 524.915274,27.7804638 515.787892,31.9356404 C515.735061,31.9589841 515.666259,31.952841 515.602371,31.9184398 M465.107515,59.5622815 C461.720223,58.0277412 461.819741,58.1370879 458.448421,56.5828897 C458.246928,56.4895149 458.217441,56.1823611 458.39559,56.0791575 C468.440748,50.2751793 473.599703,46.9505466 483.465483,41.9181388 C483.524457,41.8874234 483.600631,41.8898806 483.666976,41.9279677 C486.877348,43.7082311 485.595902,43.0656654 488.825931,44.8225851 C489.017595,44.9270174 489.045853,45.205913 488.882448,45.2992878 C479.658005,50.5651325 474.985581,53.1378527 465.313922,59.5561385 C465.254949,59.5942255 465.177546,59.5929969 465.107515,59.5622815 M398.060756,104.750748 C394.306108,103.605679 392.353838,102.95697 389.052549,101.738184 C388.833855,101.674296 388.793311,101.348713 388.987432,101.201279 C400.000739,92.8012369 406.528371,88.2504462 418.008552,80.3578222 C418.077354,80.3099062 418.1609,80.3013059 418.238303,80.3344786 C421.458503,81.7363285 423.071675,82.4304961 426.310305,83.8077737 C426.511798,83.8937768 426.542513,84.189873 426.365592,84.3127345 C415.337542,91.9055764 408.892227,96.5005972 398.288049,104.704061 C398.220476,104.755663 398.138158,104.772863 398.060756,104.750748 M322.021761,169.132641 C318.425605,167.9802 315.414269,166.831445 311.840227,165.644603 C311.632591,165.574572 311.615391,165.252675 311.815655,165.072068 C325.413968,152.784688 333.080527,147.43284 347.057253,135.566874 C347.133427,135.502986 347.226802,135.480871 347.309119,135.506672 C350.835245,136.55591 352.488961,137.188646 356.031059,138.213312 C356.244838,138.274742 356.282925,138.588039 356.087575,138.752674 C342.086276,150.651812 335.933371,156.722399 322.300657,169.056467 C322.215883,169.135099 322.11145,169.1609 322.021761,169.132641 M225.71676,262.077381 C221.908053,261.239465 216.439486,260.039108 212.654123,259.163105 C212.434201,259.111504 212.426829,258.751519 212.650437,258.521768 C231.017006,239.787844 243.900265,228.549701 262.933971,210.4694 C263.018746,210.38954 263.117035,210.355138 263.205495,210.372339 C266.942942,211.099679 270.309348,211.991654 274.062767,212.693193 C274.292519,212.734966 274.521041,213.115837 274.303576,213.322244 C255.246526,231.42466 244.449456,243.164078 226.01777,261.958205 C225.921938,262.056494 225.811363,262.098267 225.71676,262.077381" id="Fill-15" fill="#F2F2F2"></path>
                    <path d="M557.751981,13.4592337 C554.997425,11.622454 557.270364,13.1717377 554.533009,11.3165288 C554.227084,11.1088928 554.526866,10.8607126 555.181718,10.6469335 C559.594903,9.20822513 570.7237,5.75458783 571.513699,5.82093305 C573.042097,5.95239487 574.160137,6.3910105 575.129514,7.00654671 C575.327321,7.15029468 575.233946,7.26701313 575.119685,7.3051002 C573.333279,7.90835026 563.237748,11.7268863 558.034562,13.5255789 C557.957159,13.5526084 557.851499,13.5268075 557.751981,13.4592337" id="Fill-17" fill="#F2F2F2"></path>
                    <g fill="#FFFFFF" opacity="0.6">
                        <path d="M258.178616,119.164493 C442.010164,-21.8104997 573.351585,3.05052866 573.351585,3.05052866 C460.439392,-13.5259475 327.712093,47.7414062 229.357761,124.956185 C118.704991,211.824193 0.630156731,317.435955 0.630156731,317.435955 C0.630156731,317.435955 23.2010464,314.275957 46.3764147,311.754839 C46.3764147,311.754839 179.679934,179.362952 258.178616,119.164493" id="Fill-19"></path>
                        <path d="M628.560514,10.7583689 C587.908095,26.7365095 490.540341,91.6737367 465.531879,120.085463 C429.512567,161.005721 400.544278,199.023989 377.047013,264.447748 C392.871576,261.791482 404.486904,262.042119 404.486904,262.042119 C404.486904,262.042119 430.798927,173.990954 489.612737,113.461999 C547.688148,53.6923267 634.577043,11.5889128 634.577043,11.5889128 L628.560514,10.7583689 Z" id="Fill-21"></path>
                    </g>
                </g>
                <g transform="translate(80.000000, 126.000000)">
                    <mask id="mask-6" fill="white">
                        <use xlink:href="#path-5"></use>
                    </mask>
                    <g id="Clip-24"></g>
                    <path d="M611.707289,259.783032 C361.06979,294.184257 6,301.555948 6,301.555948 L6,455.132847 L1971.53858,455.132847 L1971.53858,3.65116605 C1971.53858,3.65116605 1663.40189,41.0882995 1439.79393,92.6913661 C1216.18596,144.293204 862.344788,225.381807 611.707289,259.783032 Z" id="Fill-23" fill="#EEF2F5" mask="url(#mask-6)"></path>
                </g>
                <g transform="translate(1098.000000, 226.000000)">
                    <path d="M0.742329298,86.2366231 C0.742329298,86.2366231 117.041815,104.933689 285.589389,217.659133 C368.613061,273.185168 436.224983,334.251028 436.224983,334.251028 L1057.48285,335.170033 L1057.48285,167.520575 C1057.48285,167.520575 830.434768,85.761149 732.145552,56.2743844 C706.399921,48.5500807 677.674898,39.5873329 649.298801,30.5631543 C543.460975,-3.09598742 430.639699,-8.3434029 322.13332,15.344298 C305.366408,19.003114 287.953245,22.8363934 270.186241,26.7876199 C160.136721,51.2628631 0.742329298,86.2366231 0.742329298,86.2366231" id="Fill-25" fill="#C2D1E0"></path>
                    <path d="M302.678812,48.3967495 C291.724479,45.4542162 274.880165,41.1970645 260.353019,37.852774 C259.801371,37.724998 259.762055,37.079975 260.300189,36.8747963 C269.852672,33.3978153 266.384291,34.6288877 273.89113,32.0254521 C274.013991,31.981222 274.142996,31.9701645 274.268315,31.997194 C288.211869,35.0711892 302.859419,37.9424629 316.696083,41.3408125 C317.212102,41.4673599 317.253874,42.0951822 316.756285,42.3040468 C308.095777,45.9481195 311.70422,44.6371871 303.096542,48.3598911 C302.963851,48.4164074 302.815189,48.433608 302.678812,48.3967495" id="Fill-27" fill="#F2F2F2"></path>
                    <path d="M425.806695,92.2142046 C402.754188,84.3780969 380.996642,74.6916947 357.83356,67.804078 C357.369143,67.666473 357.307713,67.1074531 357.742642,66.8789307 C364.946013,63.0812812 365.613151,62.7188397 372.866895,58.9764778 C373.015558,58.9003037 373.194936,58.8818744 373.353427,58.9285618 C396.872808,65.8997244 420.302499,73.841493 443.577385,81.9503533 C444.022144,82.1039302 444.055317,82.6494353 443.636359,82.870586 C435.952599,86.9360737 433.935213,88.0418274 426.312885,92.1699744 C426.158079,92.2535202 425.972558,92.2707208 425.806695,92.2142046 M549.439785,148.284516 C526.300046,136.467695 507.217195,126.244388 484.995232,114.871097 C484.587332,114.662233 484.555388,114.154815 484.971888,113.949636 C492.343579,110.320307 493.138494,109.943122 500.564244,106.370309 C500.722735,106.294135 500.903342,106.285534 501.06429,106.353108 C525.381042,116.476897 545.837485,126.875896 569.205746,139.088331 C569.600131,139.295967 569.568187,139.824272 569.151687,140.002421 C561.440898,143.285281 557.599018,144.943911 549.939831,148.291888 C549.777654,148.363147 549.595819,148.363147 549.439785,148.284516 M683.426414,231.741889 C657.038217,214.773484 632.05187,198.125748 606.502817,180.810875 C606.156348,180.577438 606.161262,180.116707 606.53599,179.925043 C613.158226,176.540208 618.340524,173.891314 625.011905,170.554395 C625.18514,170.465935 625.38909,170.467163 625.55741,170.562995 C652.696291,185.988259 678.961627,203.142184 705.271192,220.028271 C705.611519,220.245736 705.575889,220.72121 705.214676,220.903045 C698.800076,224.150275 690.343518,228.468858 683.978062,231.761546 C683.80237,231.852464 683.591049,231.848778 683.426414,231.741889 M742.665324,272.100669 C742.381514,271.84266 742.381514,271.426159 742.719383,271.241867 C748.947234,267.826317 755.883995,263.69817 762.16099,260.328078 C762.341596,260.229789 762.561519,260.237161 762.72861,260.355108 C790.925329,280.184957 861.520329,335.115114 888.532663,356.510218 C888.82753,356.744884 859.710579,352.713797 859.371481,352.883346 C853.119058,356.007715 853.854999,358.754898 853.854999,358.754898" id="Fill-29" fill="#F2F2F2"></path>
                    <path d="M27.2188638,80.4223245 L0.742206436,86.2361316 C0.742206436,86.2361316 120.420384,105.035173 294.356665,223.583024 C376.891347,279.83517 436.224861,334.251766 436.224861,334.251766 L516.648782,334.18542 C515.805952,333.491253 514.993838,332.790942 514.128893,332.101689 C213.973287,92.3398919 27.2188638,80.4223245 27.2188638,80.4223245" id="Fill-31" fill="#FFFFFF" opacity="0.6"></path>
                    <path d="M660.950865,33.9677699 C538.149548,-4.6279477 446.46414,-3.15975255 370.995223,6.66548313 L364.605195,7.57834422 C364.605195,7.57834422 488.083479,-3.07620671 680.976064,65.1057933 C767.786328,95.7904576 933.900016,162.183594 1057.48273,217.454077 L1057.48273,167.520698 C1057.48273,167.520698 830.434645,85.7612718 732.14543,56.2745073 C700.905431,46.9026306 695.078109,44.6948091 660.950865,33.9677699" id="Fill-33" fill="#FFFFFF" opacity="0.6"></path>
                </g>
            </g>
        </g>
    </g>
</svg>