<?xml version="1.0" encoding="UTF-8"?>
<svg width="193px" height="392px" viewBox="0 0 193 392" version="1.1" xmlns="http://www.w3.org/2000/svg" xmlns:xlink="http://www.w3.org/1999/xlink">
    <!-- Generator: Sketch 63.1 (92452) - https://sketch.com -->
    <title>TDV_M33_09</title>
    <desc>Created with Sketch.</desc>
    <g id="页面-1" stroke="none" stroke-width="1" fill="none" fill-rule="evenodd">
        <g id="NOUMENA-2.0备份-18" transform="translate(-1582.000000, -613.000000)" fill-rule="nonzero">
            <g id="TDV_M33_09" transform="translate(1543.594754, 613.000000)">
                <path d="M69.4116986,63.1994658 C57.752379,59.5318584 61.4120046,50.5424292 66.4185479,54.4015982 C67.8792055,55.5190411 68.8250411,58.7536393 69.4116986,63.1994658 Z" id="路径" fill="#FFFFFF"></path>
                <path d="" id="路径" fill="#FFFFFF"></path>
                <polygon id="路径" fill="#FFFFFF" points="86.5844018 123.086425 85.9837763 128.713548 85.9239132 129.274265 59.997242 126.506598 60.057105 125.947877 60.6577306 120.318758 61.8929041 120.450457 85.8141644 123.004612"></polygon>
                <polygon id="路径" fill="#FFFFFF" points="182.470982 336.655708 193.753164 358.212379 207.375991 355.510562 199.136845 327.702196"></polygon>
                <path d="M193.429904,358.886836 L181.656845,336.408274 L199.494027,326.830192 L208.128269,355.963525 L193.429904,358.886836 Z M183.275142,336.903142 L194.074429,357.539918 L206.615731,355.051612 L198.77168,328.578192 L183.275142,336.903142 Z" id="形状" fill="#1E253A"></path>
                <polygon id="路径" fill="#FFFFFF" points="105.094046 345.395708 106.233438 369.702087 119.724566 372.996548 123.980826 344.306201"></polygon>
                <path d="M120.221429,373.732863 L105.654763,370.177 L104.457502,344.834991 L124.671247,343.669658 L120.221429,373.732863 Z M106.810119,369.225178 L119.229699,372.258237 L123.280429,344.946735 L105.720612,345.960416 L106.810119,369.225178 Z" id="形状" fill="#1E253A"></path>
                <path d="M119.030155,16.4504429 C119.030155,16.4504429 115.853425,22.2731187 114.883644,26.9643836 C113.913863,31.6556484 109.096886,31.3004612 109.609712,32.8229772 C110.122539,34.3454932 114.370817,35.9697763 114.370817,35.9697763 C114.370817,35.9697763 115.835466,41.3335023 117.465735,43.8118311 C119.42126,46.7890183 126.461151,48.8123881 126.461151,48.8123881 L124.589434,72.731653 L167.553119,71.8197397 C167.553119,71.8197397 149.011548,63.1635479 148.277228,58.9392146 C147.016114,51.7077626 145.190292,43.015653 145.483621,37.739726 C145.962525,29.3828493 149.023521,18.783105 140.736484,17.2526073 C132.449447,15.7221096 119.030155,16.4504429 119.030155,16.4504429 Z" id="路径" fill="#FFFFFF"></path>
                <path d="M123.940918,73.334274 L125.830594,49.2374155 C124.18037,48.7166073 118.740817,46.8309224 116.968872,44.1330959 C115.508215,41.9101826 114.213178,37.5800913 113.877945,36.4107671 C112.734562,35.9498219 109.567808,34.5510228 109.047,33.0065571 C108.677845,31.9110639 109.733429,31.3882603 110.663301,30.9293105 C111.976297,30.2787991 113.774183,29.3888356 114.300977,26.8346804 C115.274749,22.1194703 118.377648,16.4045479 118.509347,16.1631005 L118.668982,15.8717671 L119.000224,15.8538082 C119.135913,15.8538082 132.593119,15.121484 140.85621,16.6519817 C144.158653,17.2625845 146.090233,19.2620091 146.758703,22.7639954 C147.325406,25.7252192 146.922329,29.4347306 146.531224,33.0185297 C146.359616,34.6029041 146.180027,36.2391598 146.094224,37.7616758 C145.84679,42.0857808 147.04405,48.7026393 148.203397,55.1 C148.432872,56.3671005 148.660352,57.616242 148.869872,58.8254749 C149.370726,61.6988995 160.471324,67.8388493 167.81053,71.2650091 L170.137205,72.3525205 L123.940918,73.334274 Z M110.171933,32.6094658 C110.171933,32.6140987 110.171933,32.6188008 110.171933,32.6234338 C110.463758,33.4894521 112.924128,34.7705205 114.578342,35.4030731 L114.861694,35.5108265 L114.941511,35.8041553 C114.955479,35.8560365 116.402169,41.1040274 117.958607,43.4746027 C118.694922,44.5960365 120.414986,45.771347 122.931228,46.8668402 C124.132682,47.3912116 125.364006,47.844296 126.61879,48.2237352 L127.089712,48.3594247 L125.231963,72.1050868 L165.054836,71.2630137 C163.246973,70.3670639 160.575087,69.0001918 157.895219,67.4716895 C151.368155,63.7561918 148.029795,60.9945114 147.68658,59.0310046 C147.487037,57.8237671 147.251575,56.5786164 147.0221,55.3135114 C145.850781,48.8463105 144.62758,42.1596119 144.894968,37.6938311 C144.982767,36.1393881 145.162356,34.4871689 145.337954,32.8888265 C146.116174,25.7371918 146.850493,18.980653 140.634717,17.8272922 C133.233653,16.4564292 121.526443,16.9273516 119.399311,17.0291187 C118.75279,18.2622968 116.286434,23.1251689 115.470301,27.0761279 C114.823781,30.2009772 112.636785,31.2825023 111.190096,31.998863 C110.798991,32.1944155 110.26621,32.4578128 110.17442,32.6094658 L110.171933,32.6094658 Z" id="形状" fill="#1E253A"></path>
                <path d="M96.7571233,132.231498 C96.7571233,132.231498 91.9980137,206.248123 94.5621461,240.278251 C97.1262785,274.308379 102.615717,355.129434 102.615717,355.129434 C102.615717,355.129434 120.536708,355.556457 129.328589,352.577274 C129.328589,352.577274 129.328589,283.241936 129.328589,263.247689 C129.328589,243.253443 135.925493,212.627525 135.925493,212.627525 C135.925493,212.627525 155.690265,291.74847 183.510603,348.317023 C183.510603,348.317023 200.763123,345.764863 208.242009,338.106388 C208.242009,338.106388 195.956123,270.046132 188.634877,253.031068 C181.31363,236.016005 174.595005,144.986311 174.595005,144.986311 L96.7571233,132.231498 Z" id="路径" fill="#EFFEFD"></path>
                <path d="M105.13595,355.752009 C103.687265,355.752009 102.757393,355.732055 102.599753,355.728064 L102.053005,355.716091 L102.015091,355.171338 C101.961215,354.363187 96.4957215,273.957183 93.963516,240.322151 C91.4273196,206.641224 96.1106027,132.93389 96.1584932,132.193584 L96.2003973,131.535091 L175.155721,144.47947 L175.189644,144.948397 C175.257489,145.858315 181.984096,236.073872 189.183621,252.803589 C196.447,269.684959 208.706945,337.328169 208.828667,338.008612 L208.884539,338.311918 L208.669032,338.533411 C201.134274,346.245763 184.308776,348.81189 183.596406,348.909667 L183.163397,348.973521 L182.963854,348.574434 C168.574781,319.315388 156.392658,283.944329 148.704251,259.426434 C142.091384,238.332703 137.579708,221.43537 135.97937,215.27347 C134.422932,223.023735 129.923228,246.857196 129.917242,263.233721 C129.917242,282.998493 129.917242,351.87089 129.917242,352.563306 L129.917242,352.992324 L129.518155,353.132005 C122.617945,355.482626 110.419858,355.752009 105.13595,355.752009 Z M103.172443,354.540781 C106.183553,354.578694 120.875932,354.630575 128.727963,352.14626 C128.727963,346.229799 128.727963,282.190342 128.727963,263.249685 C128.727963,243.423055 135.270991,212.811105 135.33684,212.503808 L135.879598,209.985571 L136.504169,212.485849 C136.552059,212.685393 141.538648,232.561909 149.857612,259.091201 C157.496132,283.457443 169.582475,318.555128 183.849826,347.664516 C186.519717,347.211553 200.894822,344.517717 207.595489,337.916822 C206.685571,332.928237 195.042215,269.455484 188.082142,253.278502 C185.023142,246.166776 181.722694,225.785416 178.272589,192.699128 C175.909995,170.042973 174.281721,148.899356 174.030297,145.509114 L97.3118539,132.937881 C96.8509087,140.374863 92.7562785,208.343329 95.1567854,240.240338 C97.579242,272.40274 102.683562,347.36121 103.172443,354.540781 L103.172443,354.540781 Z" id="形状" fill="#000000"></path>
                <path d="M127.128601,169.615513 C127.128601,169.615513 132.071291,187.161362 135.90851,210.76934 C135.90851,210.76934 130.606643,232.952577 129.413373,256.875833 C129.413373,256.875833 128.89456,235.279253 127.978656,221.454888 C127.250323,210.440093 129.822437,207.632518 129.136008,197.583513 C128.449579,187.534509 127.128601,169.615513 127.128601,169.615513 Z" id="路径" fill="#000000"></path>
                <path d="M117.072635,142.988881 C117.072635,142.988881 137.693447,154.761941 149.374717,154.011658 C173.258064,152.455219 176.313073,161.233132 176.313073,161.233132 L174.593009,143.21237 C174.593009,143.21237 118.397603,133.704128 117.072635,142.988881 Z" id="路径" fill="#000000"></path>
                <path d="M121.468575,370.416452 C121.468575,370.416452 110.537589,369.478598 106.233438,364.579808 C106.233438,364.579808 86.4626804,379.080626 81.7614384,381.540995 C81.7614384,381.540995 76.1103699,385.290416 78.6405799,391.236808 L78.6405799,391.236808 C86.7540137,391.693763 121.328895,391.354539 121.328895,391.354539 C121.328895,391.354539 121.145315,374.784457 121.468575,370.416452 Z" id="路径" fill="#000000"></path>
                <path d="M106.610575,366.339781 L105.722607,364.893091 C100.303009,356.073274 98.0361963,348.955562 99.9358493,346.760584 C100.430717,346.191886 101.41247,345.687041 103.278201,346.503174 C105.638799,347.534813 106.943813,350.945009 107.157324,356.635986 C107.240825,359.313955 107.126776,361.994437 106.816105,364.655635 L106.610575,366.339781 Z M101.552151,347.273411 C101.289042,347.255719 101.031682,347.355885 100.849758,347.546785 C99.6784384,348.893703 101.06726,354.600644 105.822379,362.732037 C106.221466,357.837237 106.221466,349.091251 102.809274,347.598667 C102.415087,347.410309 101.988227,347.299867 101.552151,347.273411 L101.552151,347.273411 Z" id="形状" fill="#000000"></path>
                <path d="M96.8429269,367.331511 C95.4700685,367.331511 94.294758,367.072105 93.6023425,366.375699 C92.8041689,365.567548 92.7083881,364.350333 93.328968,362.757977 C94.023379,360.972064 95.1408219,359.896525 96.6473744,359.565283 C100.807854,358.639402 106.409037,363.925306 106.646493,364.154781 L107.332922,364.809283 L106.444954,365.148507 C105.676712,365.429863 100.552438,367.331511 96.8429269,367.331511 Z M97.7029589,360.646808 C97.4346162,360.645055 97.1669115,360.673164 96.9047854,360.730616 C95.7973196,360.97805 94.9911644,361.78221 94.4424201,363.190986 C94.009411,364.304438 94.0114064,365.090639 94.4424201,365.53163 C95.8392237,366.940406 101.344626,365.663329 105.072096,364.362306 C103.639374,363.145091 100.35489,360.646808 97.6949772,360.646808 L97.7029589,360.646808 Z" id="形状" fill="#000000"></path>
                <path d="M206.976904,350.954986 C206.976904,350.954986 197.322995,356.169055 191.037379,354.437018 C191.037379,354.437018 182.457014,377.406457 179.88889,382.049831 C179.88889,382.049831 177.220995,388.285562 182.598689,391.867365 L182.598689,391.867365 C189.632594,387.79668 218.352872,368.540744 218.352872,368.540744 C218.352872,368.540744 209.102041,354.784224 206.976904,350.954986 Z" id="路径" fill="#000000"></path>
                <path d="M192.318447,355.700128 L190.781963,354.979776 C181.403425,350.577849 175.616667,345.872616 176.003781,342.989215 C176.105548,342.242922 176.648306,341.281123 178.655712,340.937909 C181.193904,340.506895 184.157123,342.642009 187.459566,347.283388 C188.998302,349.476758 190.373544,351.780388 191.574151,354.175616 L192.318447,355.700128 Z M179.308219,342.081283 C179.157745,342.080884 179.007521,342.09357 178.859247,342.119205 C178.144881,342.240927 177.278863,342.518292 177.191064,343.150845 C176.951612,344.918799 181.24379,348.937603 189.680484,353.118037 C187.427639,348.975516 182.909977,342.081283 179.308219,342.081283 Z" id="形状" fill="#000000"></path>
                <path d="M181.958155,362.917634 C181.791909,362.918323 181.626047,362.901603 181.463288,362.867726 C180.349836,362.632265 179.603543,361.670466 179.248356,359.992306 C178.849269,358.118594 179.192484,356.600068 180.268023,355.500584 C183.239224,352.445575 190.821872,353.790498 191.143137,353.848365 L192.077,354.017977 L191.522269,354.788215 C190.895703,355.652237 185.537963,362.917634 181.958155,362.917634 Z M186.988644,354.700416 C184.85353,354.700416 182.399146,355.027667 181.126059,356.336671 C180.327886,357.150808 180.104397,358.26426 180.419676,359.744872 C180.66711,360.912201 181.102114,361.568699 181.710721,361.696406 C183.650283,362.107466 187.551356,358.018822 189.953858,354.885991 C188.969937,354.766151 187.979829,354.704186 186.988644,354.700416 L186.988644,354.700416 Z" id="形状" fill="#000000"></path>
                <path d="M218.859712,126.426781 C218.213192,126.79128 217.548047,127.148463 216.864279,127.498329 C203.0459,134.620032 183.863795,138.088096 183.863795,138.088096 C183.664251,137.888553 183.464708,137.689009 183.28911,137.465521 C180.864658,134.643977 179.24237,130.186178 178.637753,128.330425 C178.462155,127.793653 178.372361,127.474384 178.372361,127.474384 C178.372361,127.474384 198.871452,115.761187 198.326699,113.747795 C197.781945,111.734402 172.154589,102.948507 172.154589,102.948507 L174.812507,128.972954 C172.817073,129.244333 170.336749,129.48179 168.179685,129.395986 C163.644064,129.212406 161.814251,128.755452 159.617279,130.593247 C157.420306,132.431041 151.835087,138.096078 151.835087,138.096078 C151.835087,138.096078 149.318845,140.338945 155.083653,141.665909 C160.848461,142.992872 167.299699,139.470932 167.299699,139.470932 C170.640055,139.562721 173.471575,139.562721 175.880064,139.379142 L176.552525,145.964073 C132.810621,153.4689 92.8201324,134.989187 92.8201324,134.989187 L92.8201324,116.289977 C102.683562,106.284872 118.794694,87.6255708 125.409557,66.885032 C141.923767,70.9856484 155.596479,63.6923379 155.596479,63.6923379 C159.347895,62.0959909 229.994233,93.6238447 230.726557,111.552817 C230.971995,117.541114 225.823776,122.491785 218.859712,126.426781 Z" id="路径" fill="#5ECFC5"></path>
                <path d="M117.84862,86.3389171 C117.84862,86.3389171 109.567808,108.072781 101.194968,114.661703 C92.8221279,121.250626 92.8141461,126.253178 92.8141461,126.253178 C92.4190502,121.660551 92.2215023,118.257672 92.2215023,116.044539 C92.2215023,112.932516 92.4190502,108.866089 92.8141461,103.845259 C92.8141461,103.845259 111.331533,101.083177 117.84862,86.3389171 Z" id="路径" fill="#000000"></path>
                <path d="M154.999845,148.333065 C140.632721,148.333065 127.688342,146.137676 118.146178,143.864877 C102.799297,140.209242 92.6704749,135.567863 92.5707032,135.519973 L92.2215023,135.360338 L92.2215023,116.044539 L92.395105,115.868941 C101.653918,106.474438 118.1801,87.5936438 124.840858,66.7034475 L125.01047,66.1686712 L125.555224,66.3043607 C141.658374,70.2952283 155.181429,63.2333881 155.315123,63.1615525 L155.363014,63.1396027 C155.690265,62.9999224 156.458507,62.6726712 161.888082,64.608242 C165.340183,65.8394247 169.750091,67.6572648 174.6409,69.8622192 C186.288247,75.1122055 198.316721,81.5075708 207.643379,87.4080685 C223.104,97.1856941 231.071767,105.303119 231.325187,111.526877 C231.552667,117.068196 227.458037,122.256324 219.153041,126.947589 L219.153041,126.947589 C218.510511,127.310758 217.836055,127.673927 217.157607,128.03111 C203.419046,135.110909 184.181068,138.642826 183.989507,138.676749 L183.680215,138.732621 L183.458721,138.511128 C183.259178,138.311584 183.047662,138.08211 182.860091,137.85463 C180.355822,134.939301 178.693626,130.351799 178.094995,128.516 C177.917402,127.973242 177.827607,127.649982 177.823616,127.636014 L177.695909,127.187041 L178.094995,126.955571 C178.142886,126.927635 182.979817,124.161963 187.826726,121.126909 C196.239475,115.862954 197.532516,114.270598 197.726073,113.879493 C196.550763,112.538562 184.450452,107.821356 172.860973,103.818516 L175.480977,129.487776 L174.908288,129.565598 C172.274315,129.922781 170.007502,130.066452 168.171703,129.994616 C167.46532,129.964685 166.814808,129.930763 166.240123,129.898836 C163.117269,129.727228 161.690534,129.649406 160.01437,131.044215 C157.865288,132.840105 152.335941,138.451265 152.280068,138.507137 L152.252132,138.535073 C152.252132,138.535073 151.811142,138.948128 151.924881,139.375151 C152.004699,139.676461 152.487594,140.440712 155.237301,141.07526 C160.708781,142.334379 166.968457,138.970078 167.032311,138.936155 L167.173986,138.858333 L167.335616,138.858333 C171.065082,138.962096 173.689078,138.932164 175.842151,138.768539 L176.424817,138.722644 L177.222991,146.448963 L176.672251,146.544744 C169.511727,147.752935 162.261559,148.351052 154.999845,148.333065 L154.999845,148.333065 Z M93.4187626,134.5901 C95.3144247,135.424192 104.792735,139.456963 118.453475,142.707525 C132.387589,146.021941 153.617009,149.172731 175.900018,145.461224 L175.343292,140.005708 C173.289991,140.135411 170.815653,140.15337 167.451352,140.063575 C166.425699,140.596356 160.467333,143.507694 154.959936,142.240594 C152.425735,141.657927 151.050881,140.815854 150.755557,139.668479 C150.526082,138.774525 151.064849,137.99032 151.432009,137.655087 C151.795178,137.285932 157.077091,131.928192 159.240142,130.12432 C161.279475,128.428201 163.061397,128.527973 166.297991,128.703571 C166.868685,128.733502 167.51321,128.76942 168.211612,128.797356 C170.201748,128.843726 172.192373,128.728946 174.163991,128.454142 L171.470155,102.078498 L172.356128,102.381804 C172.419982,102.403753 178.843283,104.608708 185.252616,107.03316 C198.486333,112.037708 198.761703,113.047397 198.911361,113.590155 C199.092945,114.260621 198.637986,115.100699 195.806466,117.221845 C194.162228,118.453027 191.831562,120.015452 188.882311,121.873201 C184.6919,124.507174 180.415685,126.993484 179.092712,127.75574 L179.218425,128.144849 C179.79311,129.912804 181.389457,134.330694 183.754046,137.074416 C183.859804,137.200128 183.969553,137.321849 184.081297,137.43958 C186.615498,136.954689 203.979763,133.470662 216.606868,126.965548 C217.281324,126.618342 217.943808,126.26116 218.57237,125.905973 L218.57237,125.905973 C226.452338,121.452164 230.345429,116.631196 230.145886,111.574767 C229.946342,106.831621 224.283301,100.380384 213.755393,92.9174612 C204.58837,86.4283105 191.480365,79.0332329 177.771735,72.6179132 C164.536023,66.4320685 156.881539,63.9657123 155.837927,64.2370913 C155.4129,64.4585845 152.072543,66.1507123 146.836525,67.4038447 C141.875877,68.5891324 134.241347,69.566895 125.808644,67.6033881 C119.008205,88.3898219 102.705511,107.091027 93.4187626,116.541402 L93.4187626,134.5901 Z" id="形状" fill="#000000"></path>
                <path d="M169.909726,129.401973 C169.909726,129.401973 163.498397,126.253178 162.217329,125.337274 C160.93626,124.42137 161.758379,129.912804 165.344174,130.766849 C168.929968,131.620895 169.909726,129.401973 169.909726,129.401973 Z" id="路径" fill="#FFFFFF"></path>
                <path d="M166.900612,131.565023 C166.328741,131.55999 165.759451,131.487657 165.204493,131.349516 C162.674283,130.750886 161.367274,128.1229 161.103877,126.506598 C160.960205,125.624616 161.103877,125.02 161.528904,124.758598 C161.858522,124.565907 162.273946,124.602727 162.564534,124.850388 C163.791726,125.728379 170.109269,128.841256 170.173123,128.865201 L170.687945,129.118621 L170.456475,129.645416 C170.416566,129.729224 169.570502,131.565023 166.900612,131.565023 Z M162.255242,126.07758 C162.331253,126.710211 162.524089,127.323225 162.823941,127.885443 C163.189105,128.593822 164.021201,129.836977 165.481858,130.186178 C167.477292,130.663087 168.5229,130.086406 169.005795,129.623466 C167.493256,128.873183 163.743836,126.995479 162.255242,126.07758 Z" id="形状" fill="#000000"></path>
                <path d="M132.501329,48.8682603 C130.835142,48.9061735 128.169242,48.8682603 126.578881,48.3674064 L125.465429,62.5948493 C125.465429,62.5948493 128.438626,55.7285616 129.673799,54.120242 C130.711425,52.7713288 132.108228,51.0732146 133.032114,49.9637534 C133.199706,49.7620738 133.233903,49.4810326 133.119564,49.2450484 C133.005226,49.0090643 132.763472,48.8617257 132.501329,48.8682603 L132.501329,48.8682603 Z" id="路径" fill="#1E253A"></path>
                <ellipse id="椭圆形" fill="#1E253A" transform="translate(117.848620, 28.184291) rotate(-86.530000) translate(-117.848620, -28.184291) " cx="117.84862" cy="28.1842913" rx="1.16134247" ry="1"></ellipse>
                <path d="M121.095429,26.8107352 C120.812279,26.8100433 120.56834,26.6110622 120.510767,26.3338265 C120.490813,26.2460274 120.061795,24.4421553 117.615393,24.0809817 C117.396895,24.0576788 117.208726,23.916541 117.125191,23.7133014 C117.041656,23.5100619 117.076184,23.2773921 117.21514,23.1071697 C117.354096,22.9369473 117.575142,22.8565362 117.790991,22.8976895 C121.09942,23.3865708 121.660137,25.9826301 121.682087,26.0903836 C121.713873,26.245978 121.682531,26.4078266 121.594959,26.5403074 C121.507387,26.6727881 121.370762,26.765043 121.215155,26.7967671 C121.175807,26.8053735 121.135702,26.8100524 121.095429,26.8107352 L121.095429,26.8107352 Z" id="路径" fill="#1E253A"></path>
                <path d="M117.649315,40.3198219 L125.455452,37.6180046 C125.455452,37.6180046 125.070333,41.3514612 122.145027,41.8682785 C120.477003,42.1986488 118.760105,41.6072983 117.649315,40.3198219 Z" id="路径" fill="#FFFFFF"></path>
                <path d="M121.211164,42.5507378 C119.656293,42.5550938 118.179157,41.8713157 117.176397,40.6829909 L116.675543,40.0244977 L126.149863,36.7420091 L126.054082,37.6758721 C125.956263,38.4091632 125.750501,39.1239493 125.443479,39.7970183 C124.753059,41.2876073 123.647589,42.2075023 122.250785,42.4529406 C121.907827,42.5162758 121.559917,42.5489967 121.211164,42.5507378 Z M118.782721,40.5552831 C119.721609,41.2394497 120.903787,41.499905 122.04326,41.2736393 C123.619653,40.9942785 124.334018,39.533621 124.637324,38.5279224 L118.782721,40.5552831 Z" id="形状" fill="#1E253A"></path>
                <path d="M133.870196,27.9860457 C131.721928,24.3768554 128.180293,21.8133932 124.080598,20.9002603 C119.658717,19.9025434 113.666429,17.5559132 114.783872,12.2620274 C114.783872,12.2620274 114.983416,9.24293607 117.854845,10.4322146 C120.726274,11.6214932 125.672954,7.23952055 126.864228,3.65971233 C128.055502,0.0799041096 139.583123,-2.47026027 141.871886,7.41112785 C144.160648,17.292516 144.523817,16.5621872 149.009553,19.6750639 C153.495288,22.7879406 154.774361,29.6522329 151.4799,32.6693288 C148.185438,35.6864247 149.187146,41.2756347 147.361324,41.4492374 C145.535502,41.6228402 140.864192,39.0706804 141.139562,34.5869406 C141.139562,34.5869406 145.164352,29.5524612 141.871886,26.9903242 C138.57942,24.4281872 137.386151,28.6385525 137.386151,28.6385525 C137.386151,28.6385525 136.079142,31.7534247 133.993913,28.1835936 L133.870196,27.9860457 Z" id="路径" fill="#000000"></path>
                <path d="M175.880064,139.369164 C173.485543,139.552744 170.650032,139.552744 167.299699,139.460954 C167.299699,139.460954 160.848461,142.98489 155.083653,141.655932 C149.318845,140.326973 151.835087,138.0861 151.835087,138.0861 C151.835087,138.0861 157.422301,132.413082 159.617279,130.583269 C161.812256,128.753457 163.644064,129.210411 168.179685,129.386009 C170.336749,129.471813 172.811087,129.234356 174.812507,128.962977 L175.880064,139.369164 Z" id="路径" fill="#FF7F66"></path>
                <path d="M157.87726,142.557868 C156.895948,142.562811 155.917244,142.456372 154.959936,142.240594 C152.425735,141.657927 151.050881,140.815854 150.755557,139.668479 C150.526082,138.774525 151.064849,137.99032 151.432009,137.655087 C151.795178,137.287927 157.077091,131.928192 159.240142,130.12432 C161.279475,128.428201 163.061397,128.527973 166.297991,128.703571 C166.868685,128.733502 167.51321,128.76942 168.211612,128.797356 C169.979566,128.869192 172.174543,128.727516 174.738676,128.380311 L175.351274,128.296502 L176.538557,139.917909 L175.925959,139.965799 C173.760913,140.13142 171.136918,140.165342 167.451352,140.063575 C166.605288,140.504566 162.406895,142.557868 157.87726,142.557868 Z M163.887507,129.807046 C162.257237,129.807046 161.195667,130.054479 160.006388,131.044215 C157.857306,132.840105 152.327959,138.451265 152.272087,138.507137 L152.244151,138.535073 C152.244151,138.535073 151.80316,138.948128 151.9169,139.375151 C151.996717,139.676461 152.479612,140.440712 155.22932,141.07526 C160.708781,142.336374 166.960475,138.970078 167.024329,138.936155 L167.166005,138.858333 L167.327635,138.858333 C170.719872,138.952119 173.184233,138.936155 175.221571,138.810443 L174.285712,129.631447 C172.257684,129.911511 170.210442,130.028286 168.163721,129.980648 C167.457338,129.950717 166.806826,129.916795 166.232142,129.884868 C165.324219,129.84895 164.557973,129.807046 163.887507,129.807046 L163.887507,129.807046 Z" id="形状" fill="#000000"></path>
                <path d="M171.961032,102.150333 L161.584776,97.5289087 C161.584776,97.5289087 163.300849,102.744973 167.359562,109.47158 C171.418274,116.198187 174.399452,125.961845 174.399452,125.961845 L171.961032,102.150333 Z" id="路径" fill="#000000"></path>
                <path d="M183.299087,137.465521 C181.477256,138.567 179.060785,139.129712 175.880064,139.369164 C173.485543,139.552744 170.650032,139.552744 167.299699,139.460954 C167.299699,139.460954 160.848461,142.98489 155.083653,141.655932 C149.318845,140.326973 151.835087,138.0861 151.835087,138.0861 C151.835087,138.0861 157.422301,132.413082 159.617279,130.583269 C161.812256,128.753457 163.644064,129.210411 168.179685,129.386009 C170.336749,129.471813 172.811087,129.234356 174.812507,128.962977 C177.007484,128.663662 178.641744,128.320447 178.641744,128.320447 C179.252347,130.186178 180.874635,134.643977 183.299087,137.465521 Z" id="路径" fill="#FFFFFF"></path>
                <path d="M157.87726,142.557868 C156.895948,142.562811 155.917244,142.456372 154.959936,142.240594 C152.425735,141.657927 151.050881,140.815854 150.755557,139.668479 C150.526082,138.774525 151.064849,137.99032 151.432009,137.655087 C151.795178,137.285932 157.077091,131.928192 159.240142,130.12432 C161.279475,128.428201 163.061397,128.527973 166.297991,128.703571 C166.868685,128.733502 167.51321,128.76942 168.211612,128.797356 C169.979566,128.869192 172.174543,128.727516 174.738676,128.380311 C176.893744,128.086982 178.510046,127.747758 178.53,127.743767 L179.054799,127.634018 L179.222416,128.144849 C179.7971,129.912804 181.393447,134.330694 183.758037,137.074416 L184.218982,137.611187 L183.620352,137.978347 C181.802511,139.075836 179.3601,139.708388 175.935936,139.973781 C173.77089,140.139402 171.146895,140.173324 167.461329,140.071557 C166.605288,140.504566 162.406895,142.557868 157.87726,142.557868 Z M163.887507,129.807046 C162.257237,129.807046 161.195667,130.054479 160.006388,131.044215 C157.857306,132.840105 152.327959,138.451265 152.272087,138.507137 L152.244151,138.535073 C152.244151,138.535073 151.80316,138.948128 151.9169,139.375151 C151.996717,139.676461 152.479612,140.440712 155.22932,141.07526 C160.700799,142.334379 166.960475,138.970078 167.024329,138.936155 L167.166005,138.858333 L167.327635,138.858333 C171.0571,138.962096 173.681096,138.93416 175.834169,138.768539 C178.687639,138.553032 180.792822,138.078119 182.383183,137.283936 C180.331877,134.624023 178.907137,130.946438 178.248644,129.016854 C177.594142,129.142566 176.380918,129.360068 174.900306,129.561607 C172.266333,129.91879 169.999521,130.062461 168.163721,129.990626 C167.457338,129.960694 166.806826,129.926772 166.232142,129.894845 C165.324219,129.84895 164.557973,129.807046 163.887507,129.807046 L163.887507,129.807046 Z" id="形状" fill="#000000"></path>
                <path d="M152.42374,141.037347 L151.82511,139.999721 C155.195397,138.054174 161.291447,131.874315 161.351311,131.818443 L162.205356,132.658521 C161.947945,132.909945 155.933708,139.009986 152.42374,141.037347 Z" id="路径" fill="#000000"></path>
                <path d="M155.4129,142.164767 L154.776356,141.151087 C158.966767,138.5231 162.588479,134.765699 162.624397,134.727785 L163.48842,135.557886 C163.344749,135.715525 159.727027,139.456963 155.4129,142.164767 Z" id="路径" fill="#000000"></path>
                <path d="M160.140082,142.328393 L159.471612,141.330676 C163.272913,138.77253 164.933114,137.327836 164.949078,137.313868 L165.747251,138.213808 C165.669429,138.277662 164.015215,139.720361 160.140082,142.328393 Z" id="路径" fill="#000000"></path>
                <path d="M198.394543,112.893749 C198.394543,112.893749 201.261982,114.41826 200.711242,116.126352 C200.160502,117.834443 190.12347,120.376626 190.12347,120.376626 C190.12347,120.376626 199.492032,114.723562 198.394543,112.893749 Z" id="路径" fill="#000000"></path>
                <rect id="矩形" fill="#FFFFFF" x="79.2791187" y="387.391607" width="41.9958995" height="1.19726027"></rect>
                <polygon id="矩形" fill="#FFFFFF" transform="translate(198.777060, 377.149514) rotate(-33.190000) translate(-198.777060, -377.149514) " points="177.779111 376.550884 219.77501 376.550884 219.77501 377.748144 177.779111 377.748144"></polygon>
                <path d="M200.781082,338.180235 C200.514469,338.180235 200.28016,338.003416 200.206397,337.74721 C200.006854,337.054795 180.29995,268.357995 173.826763,249.375434 C167.325639,230.307068 161.044014,150.922726 160.982155,150.122557 C160.956257,149.791943 161.203278,149.502932 161.533893,149.47517 C161.864507,149.451136 162.153517,149.698157 162.179416,150.028772 C162.243269,150.826945 168.510927,230.06163 174.96416,248.98832 C181.445329,268.000813 201.16221,336.723553 201.361753,337.415968 C201.40545,337.568649 201.386686,337.732437 201.309593,337.87128 C201.232499,338.010123 201.103394,338.112643 200.950694,338.156274 C200.895645,338.172568 200.83849,338.180235 200.781082,338.180235 L200.781082,338.180235 Z" id="路径" fill="#000000"></path>
                <path d="M218.037594,126.253178 C220.270484,124.6269 224.223438,120.865507 225.843731,111.744379 C228.314078,97.8481781 155.734164,64.2789954 155.734164,64.2789954 C159.48558,62.6826484 229.595146,93.6118721 230.32747,111.544836 C230.572909,117.541114 225.003653,122.318183 218.037594,126.253178 Z" id="路径" fill="#FFFFFF"></path>
                <g id="quanqiu-2" transform="translate(43.455452, 24.434927)" fill="#000000">
                    <path d="M82,41 C82,18.45 63.55,0 41,0 C18.45,0 0,18.45 0,41 C0,61.91 15.58,79.13 35.67,81.59 C36.9,81.59 38.54,82 40.18,82 L41.41,82 C63.96,81.59 82,63.55 82,41 Z M76.26,41.41 C76.26,39.36 75.85,37.31 75.44,35.26 L75.44,33.21 C75.85,35.67 76.26,38.13 76.26,40.59 L76.26,41.41 Z M5.74,41 C5.74,38.54 6.15,36.08 6.56,33.62 C8.2,35.26 11.89,35.26 12.71,32.8 C13.94,33.62 16.4,34.03 16.4,35.67 C16.4,41.82 16.81,48.38 22.14,48.38 C22.14,48.38 25.42,49.61 26.65,53.3 C27.06,54.53 29.11,53.3 31.16,53.3 C32.39,53.3 31.16,54.94 31.16,59.04 C31.16,62.73 39.36,68.88 39.36,68.88 C39.36,71.34 39.36,73.39 39.77,75.03 C37.72,75.03 36.49,75.44 35.26,75.85 C18.45,72.57 5.74,58.22 5.74,41 L5.74,41 Z M49.61,75.03 C49.61,74.21 48.79,73.8 47.15,74.21 C48.38,69.29 48.79,66.42 51.25,64.37 C54.94,61.5 51.66,57.81 49.2,58.22 C47.15,58.63 48.38,55.76 46.74,55.35 C44.69,55.35 42.23,51.66 39.77,50.02 C38.54,49.2 36.9,47.56 34.85,47.56 C32.8,47.56 29.93,49.2 29.93,47.97 C29.93,43.87 29.52,40.59 29.52,39.36 C29.52,38.54 28.7,38.95 31.57,38.95 C33.21,38.95 32.39,36.08 33.62,36.08 C34.85,36.08 38.54,37.31 39.36,36.9 C40.18,36.49 45.1,50.02 45.1,39.36 C45.1,38.13 44.28,35.67 45.1,34.44 C47.56,29.52 50.02,25.83 50.02,25.01 C50.02,24.6 47.15,24.6 45.1,25.01 C44.28,25.42 45.51,26.24 44.28,26.65 C40.18,27.47 36.9,25.83 38.13,23.78 C39.36,22.14 43.46,22.96 43.87,19.27 C44.28,17.22 44.28,14.76 44.28,13.12 C49.2,13.94 48.79,6.56 41.41,5.74 C56.58,5.74 69.29,15.58 74.21,29.52 C73.8,29.11 73.8,29.11 73.39,29.11 C70.93,23.37 65.6,27.47 67.65,32.39 C57.81,40.18 60.27,45.51 63.55,48.38 C65.19,50.02 66.83,52.48 68.06,54.12 C66.83,57.4 72.57,56.17 75.03,50.43 C71.34,62.73 61.5,71.75 49.61,75.03 Z" id="形状"></path>
                </g>
                <path d="M40.4260274,59.3223379 C40.4260274,59.3223379 47.0428858,57.5543836 47.4280046,60.2262694 C47.8131233,62.8981553 36.1158904,62.6167991 40.4260274,59.3223379 Z" id="路径" fill="#FFFFFF"></path>
                <path d="M43.0979132,62.6287717 C41.3319543,62.6287717 39.5460411,62.2476438 39.021242,61.2479315 C38.7478676,60.7251279 38.7059635,59.8850502 40.0628584,58.853411 L40.1566438,58.7815753 L40.2703836,58.7516438 C40.7712374,58.6179498 45.2050913,57.4845434 47.1187123,58.7516438 C47.6082586,59.0638488 47.9375409,59.5737992 48.0206484,60.1484475 C48.0964749,60.675242 47.9547991,61.6430274 46.1628995,62.2236986 C45.1664087,62.5072302 44.1338483,62.6436949 43.0979132,62.6287717 Z M40.7033927,59.8710822 C40.1646256,60.3020959 40.0389132,60.5974201 40.0887991,60.6932009 C40.4280228,61.3397215 43.6326895,61.7787169 45.7997306,61.0763242 C46.3325114,60.9047169 46.8852466,60.6133836 46.841347,60.3100776 C46.8104613,60.0718318 46.6712713,59.8612056 46.46421,59.7393836 C46.0411781,59.4640137 44.1993927,58.9591689 40.6974064,59.8710822 L40.7033927,59.8710822 Z" id="形状" fill="#1E253A"></path>
                <path d="M41.1763105,62.9699909 C41.1763105,62.9699909 47.7931689,61.2020365 48.1782877,63.8739224 C48.5634064,66.5458082 36.8661735,66.2744292 41.1763105,62.9699909 Z" id="路径" fill="#FFFFFF"></path>
                <path d="M43.8481963,66.2744292 C42.0822374,66.2744292 40.2963242,65.8933014 39.7715251,64.8955845 C39.4981507,64.3707854 39.4562466,63.5307078 40.8131416,62.5010639 L40.9069269,62.4292283 L41.0206667,62.3992968 C41.5215205,62.2656027 45.9553744,61.1321963 47.8689954,62.3992968 C48.3585417,62.7115017 48.687824,63.2214522 48.7709315,63.7961005 C48.846758,64.322895 48.7050822,65.2906804 46.9131826,65.8713516 C45.9165921,66.154209 44.8840335,66.2900012 43.8481963,66.2744292 L43.8481963,66.2744292 Z M41.4536758,63.5167397 C40.9149087,63.9477534 40.7891963,64.2430776 40.8390822,64.3388584 C41.1783059,64.985379 44.3829726,65.4243744 46.5500137,64.7219817 C47.0827945,64.5503744 47.6355297,64.2590411 47.5916301,63.9557352 C47.5607445,63.7174893 47.4215544,63.5068632 47.2144932,63.3850411 C46.7914612,63.1116667 44.9496758,62.6068219 41.4476895,63.5187352 L41.4536758,63.5167397 Z" id="形状" fill="#1E253A"></path>
                <path d="M41.1763105,66.6176438 C41.1763105,66.6176438 47.7931689,64.8496895 48.1782877,67.5215753 C48.5634064,70.1934612 36.8661735,69.912105 41.1763105,66.6176438 Z" id="路径" fill="#FFFFFF"></path>
                <path d="M43.8481963,69.9240776 C42.0822374,69.9240776 40.2963242,69.5449452 39.7715251,68.5452329 C39.4981507,68.0204338 39.4562466,67.1803562 40.8131416,66.1507123 L40.9069269,66.0788767 L41.0206667,66.0489452 C41.5215205,65.9152511 45.9553744,64.7818447 47.8689954,66.0489452 C48.3600913,66.3595889 48.6898845,66.8703307 48.7709315,67.4457489 C48.846758,67.9725434 48.7050822,68.9403288 46.9131826,69.521 C45.9165921,69.8038574 44.8840335,69.9396496 43.8481963,69.9240776 Z M41.4536758,67.1663881 C40.9149087,67.5974018 40.7891963,67.892726 40.8390822,67.9885068 C41.1783059,68.6350274 44.3829726,69.0740228 46.5500137,68.3716301 C47.0827945,68.2000228 47.6355297,67.9086895 47.5916301,67.6053836 C47.5607445,67.3671377 47.4215544,67.1565116 47.2144932,67.0346895 C46.7914612,66.7593196 44.9496758,66.2544749 41.4476895,67.1663881 L41.4536758,67.1663881 Z" id="形状" fill="#1E253A"></path>
                <path d="M41.8008813,70.109653 C41.8008813,70.109653 47.052863,68.6370228 47.3581644,70.8599361 C47.6634658,73.0828493 38.3807078,72.8593607 41.8008813,70.109653 Z" id="路径" fill="#FFFFFF"></path>
                <path d="M43.9619361,72.9651187 C42.5012785,72.9651187 41.040621,72.6159178 40.5916484,71.7858174 C40.3382283,71.3168904 40.2763699,70.5646119 41.4257397,69.6427215 L41.5215205,69.5648995 L41.6392511,69.5329726 C42.0383379,69.4212283 45.5582831,68.4773881 47.1486438,69.5190046 C47.5885942,69.8001704 47.8809947,70.2621632 47.9468174,70.7801187 C48.0106712,71.2530365 47.8889498,72.1230457 46.3504703,72.6278904 C45.5758484,72.8600826 44.7705629,72.9737779 43.9619361,72.9651187 L43.9619361,72.9651187 Z M42.0822374,70.652411 C41.7051005,70.9756712 41.6372557,71.1732192 41.6412466,71.2111324 C41.7450091,71.5683151 43.6706027,72.0093059 45.4864475,71.6102192 C46.3205388,71.434621 46.7914612,71.1273242 46.7635251,70.9317717 C46.7451882,70.7562487 46.6444288,70.5999235 46.4921461,70.5107352 C45.6600502,69.9759589 43.4012192,70.3012146 42.0822374,70.652411 L42.0822374,70.652411 Z" id="形状" fill="#1E253A"></path>
            </g>
        </g>
    </g>
</svg>