<?xml version="1.0" encoding="UTF-8"?>
<svg width="556px" height="321px" viewBox="0 0 556 321" version="1.1" xmlns="http://www.w3.org/2000/svg" xmlns:xlink="http://www.w3.org/1999/xlink">
    <title>ILLU</title>
    <g id="页面-1" stroke="none" stroke-width="1" fill="none" fill-rule="evenodd">
        <g id="inst-快捷买币" transform="translate(-320.000000, -760.000000)">
            <g id="ILLU" transform="translate(320.000000, 760.000000)">
                <path d="M73.4869977,314.782609 C61.3091797,308.025506 55.1377834,293.992301 50.2087468,280.791517 C19.0790524,197.44156 11.2343424,96.6073891 87.7892843,35.2306536 C117.339936,11.5352974 159.206446,-3.95380185 197.079898,0.88569914 C203.884258,1.75519166 210.766055,3.43688455 216.42906,7.37656189 C224.798995,13.1967696 229.488987,23.3374788 231.057929,33.5354802 C235.59978,63.0712648 226.011053,92.061089 220.87664,120.808264 C217.008154,142.464694 211.809772,183.462277 233.071292,198.50989 C237.465003,201.617146 242.835094,202.911275 248.117648,203.780767 C281.718594,209.307774 315.629289,196.929301 348.691543,207.548568 C390.453681,220.96167 416.162782,270.16551 403.877226,313.293013" id="background" fill="#F7F7F9" fill-rule="nonzero"></path>
                <line x1="27.826087" y1="311.304348" x2="555.463661" y2="312.417507" id="路径" stroke="#000000" stroke-width="2"></line>
                <g id="data_2" transform="translate(1.739130, 46.086957)">
                    <path d="M61.1378727,62.300578 C60.962882,62.7771725 54.0810347,72.9423019 51.9575894,76.0751614 C51.6277992,76.5584217 50.9042798,76.668405 50.4163248,76.3117923 L31.3221432,62.300578 L61.1378727,62.300578 L61.1378727,62.300578 Z" id="路径" fill="#CCCDCE" fill-rule="nonzero" opacity="0.5"></path>
                    <path d="M18.2382203,62.9871408 L102.287618,63.6670543 C102.876529,63.6703708 103.29718,63.1637807 103.118824,62.6671892 L80.7099137,0.643236053 C80.5954966,0.326617271 80.2623412,0.109983367 79.8888033,0.109983367 L0.863659224,0.109983367 C0.30166974,0.109983367 -0.108885452,0.579912297 0.0257228073,1.06317254 L17.4103795,62.4105613 C17.5046053,62.7471771 17.8444912,62.983808 18.2382203,62.9871408 Z" id="路径" fill="#CCCDCE" fill-rule="nonzero" opacity="0.5"></path>
                    <path d="M21.1895064,61.9539637 L105.238904,62.6238791 C105.827815,62.6271952 106.248466,62.1306037 106.07011,61.6406778 L83.664565,0.523254199 C83.5501479,0.209968245 83.2169925,0 82.8434546,0 L3.81494532,0 C3.25295583,0 2.84240064,0.463263272 2.9770089,0.936525031 L20.3616656,61.3840499 C20.4558914,61.714 20.7957773,61.9506309 21.1895064,61.9539637 Z" id="路径" stroke="#000000" fill="#FFFFFF" fill-rule="nonzero"></path>
                    <path d="M62.9079713,62.163932 C62.7329806,62.6271952 55.8511333,72.4623745 53.727688,75.498582 C53.3978978,75.9685109 52.6743784,76.0751614 52.1864234,75.7252143 L33.0922418,62.163932 L62.9079713,62.163932 Z" id="路径" stroke="#000000" fill="#FFFFFF" fill-rule="nonzero"></path>
                    <path d="M29.3501322,55.1949859 L92.1549809,55.231647 C93.0568563,55.231647 93.7063411,54.4750948 93.4505854,53.7185425 L83.1160363,23.1664964 C82.947776,22.6632392 82.4194386,22.3199578 81.8204318,22.3199578 L21.2231585,22.4232755 C20.3549352,22.4232755 19.7121808,23.1331681 19.910728,23.8730562 L28.0377016,54.2851235 C28.1790403,54.8183762 28.7242038,55.1949859 29.3501322,55.1949859 Z" id="路径" stroke="#000000" fill="#FFFFFF" fill-rule="nonzero"></path>
                    <line x1="12.5005433" y1="16.2708726" x2="36.8982903" y2="16.6374838" id="路径" stroke="#000000"></line>
                    <line x1="13.7524001" y1="11.8982006" x2="29.5991575" y2="12.0781734" id="路径" stroke="#000000"></line>
                    <line x1="79.3671963" y1="28.4423652" x2="69.3590722" y2="28.4423652" id="路径" stroke="#E49948" stroke-width="2"></line>
                    <line x1="57.5270061" y1="28.4023712" x2="64.3550101" y2="28.2857222" id="路径" stroke="#E49948" stroke-width="2"></line>
                    <line x1="52.6777436" y1="28.4423652" x2="29.5318533" y2="28.8056436" id="路径" stroke="#E49948" stroke-width="2"></line>
                    <line x1="80.8276959" y1="34.2748164" x2="62.4772249" y2="34.4547892" id="路径" stroke="#3D7CA3" stroke-width="2"></line>
                    <line x1="56.4299488" y1="34.6380948" x2="31.8269242" y2="34.8214004" id="路径" stroke="#3D7CA3" stroke-width="2"></line>
                    <line x1="58.6206982" y1="41.8803329" x2="34.2263164" y2="41.8803329" id="路径" stroke="#1B236D" stroke-width="2"></line>
                    <line x1="79.5522826" y1="2.76958114" x2="75.7967122" y2="8.41872679" id="路径" stroke="#000000"></line>
                    <line x1="81.009417" y1="8.0554484" x2="74.7534982" y2="3.13285953" id="路径" stroke="#000000"></line>
                    <polyline id="路径" stroke="#000000" points="92.2963196 16.594157 106.056649 16.4108514 110.434783 31.9051748 96.8830961 31.9051748"></polyline>
                    <ellipse id="椭圆形" stroke="#000000" stroke-width="0.99996973" transform="translate(103.339353, 22.297672) rotate(-11.894265) translate(-103.339353, -22.297672) " cx="103.339353" cy="22.2976721" rx="2.07542959" ry="3.02070073"></ellipse>
                    <ellipse id="椭圆形" stroke="#000000" stroke-width="1.00002262" fill="#4F71BA" fill-rule="nonzero" transform="translate(14.100285, 6.551749) rotate(-13.473448) translate(-14.100285, -6.551749) " cx="14.100285" cy="6.55174914" rx="1.80958359" ry="2.29091653"></ellipse>
                    <ellipse id="椭圆形" stroke="#000000" stroke-width="1.00002262" fill="#F23645" fill-rule="nonzero" transform="translate(19.736611, 6.434792) rotate(-13.473448) translate(-19.736611, -6.434792) " cx="19.7366105" cy="6.43479183" rx="1.80958359" ry="2.29091653"></ellipse>
                    <ellipse id="椭圆形" stroke="#000000" stroke-width="1.00002262" fill="#DE9A46" fill-rule="nonzero" transform="translate(26.352956, 6.378632) rotate(-13.473448) translate(-26.352956, -6.378632) " cx="26.3529564" cy="6.37863199" rx="1.80958359" ry="2.29091653"></ellipse>
                </g>
                <g id="circle" transform="translate(96.521739, 8.695652)">
                    <ellipse id="椭圆形" fill="#FF6666" fill-rule="nonzero" cx="9.71963848" cy="8.26086957" rx="7.67166587" ry="8.26086957"></ellipse>
                    <ellipse id="椭圆形" stroke="#000000" cx="7.67166587" cy="8.26086957" rx="7.67166587" ry="8.26086957"></ellipse>
                </g>
                <g id="shape" transform="translate(0.000000, 30.434783)">
                    <ellipse id="椭圆形" stroke="#6836C4" cx="502.536199" cy="227.760442" rx="9.10880294" ry="9.63086246"></ellipse>
                    <ellipse id="椭圆形" stroke="#000000" cx="229.687817" cy="143.30129" rx="3.56884783" ry="3.99147245"></ellipse>
                    <ellipse id="椭圆形" stroke="#37B352" cx="510.100188" cy="151.548713" rx="3.56884783" ry="3.99147245"></ellipse>
                    <polygon id="路径" stroke="#000000" points="300.435769 0 300.21713 6.04123876 300.001856 12.0791006 295.040451 8.58740646 290.08241 5.09571229 295.259089 2.54954459"></polygon>
                    <polygon id="路径" fill="#FFC631" fill-rule="nonzero" points="0 110.275401 5.57359176 112.220484 11.1471835 114.165567 6.67014632 118.322507 2.19647279 122.482823 1.09655456 116.377424"></polygon>
                    <polygon id="路径备份" fill="#00B5FF" fill-rule="nonzero" points="324.123711 60.7908652 329.697303 62.7359482 335.270895 64.6810312 330.793858 68.8379708 326.320184 72.9982873 325.220266 66.8928878"></polygon>
                    <ellipse id="椭圆形" fill="#24ABFC" fill-rule="nonzero" cx="312.289322" cy="174.324689" rx="3.1853901" ry="3.37350336"></ellipse>
                    <polygon id="路径" stroke="#000000" points="31.0298032 192.347099 24.3865662 181.784217 34.4271042 175.199301 41.0703412 185.765559"></polygon>
                </g>
                <g id="cup" transform="translate(64.347826, 254.782609)">
                    <path d="M18.4829644,57.3913043 L5.53738093,57.3913043 C5.04728662,57.3913043 4.628127,57.0597981 4.53784647,56.601047 L0.0173712627,33.3621242 C-0.098703707,32.7694313 0.381717695,32.2202694 1.01690572,32.2202694 L21.5911941,32.2202694 C22.203812,32.2202694 22.6777848,32.7292487 22.6004015,33.3085475 L19.4921717,56.5474703 C19.4276856,57.0296612 18.9956288,57.3913043 18.4829644,57.3913043 Z" id="路径" stroke="#000000" fill="#FFFFFF" fill-rule="nonzero"></path>
                    <path d="M3.802705,41.3115771 L5.73406352,53.0984659 C5.81789544,53.6074452 6.27897102,53.9858311 6.82387851,53.9858311 L16.9901113,53.9858311 C17.5124486,53.9858311 17.960627,53.6409306 18.0670291,53.1587397 C18.8408622,49.6862955 21.6331101,36.4930166 19.2503489,37.0589212 C18.1927769,37.3100623 9.18084526,39.2120375 5.27298795,39.5234525 C4.33149097,39.5971205 3.65761128,40.4242119 3.802705,41.3115771 Z" id="路径" fill="#C4E2FA" fill-rule="nonzero"></path>
                    <path d="M5.93397041,25.9718789 C5.38261431,22.867775 6.66266328,19.7301855 8.24257259,17.0312559 C9.81925759,14.3323262 11.7441675,11.7974754 12.7050103,8.80052502 C13.7142177,5.65288995 13.1370671,2.51864906 11.1379982,0.00388955274 C11.5894009,-0.0228988309 12.1246355,0.0809061556 12.4180472,0.559748513 C14.0753398,3.26872381 15.8487074,6.84162447 14.542864,10.0930645 C13.8818815,11.7372016 12.5760381,13.2105627 11.6216439,14.6839238 C10.5189317,16.3849861 9.47103268,18.1362767 8.69397525,20.0248578 C7.42359919,23.112219 7.16243051,26.2966881 7.96528238,29.5313854 C6.73359798,28.8851156 6.17901757,27.371572 5.93397041,25.9718789 Z" id="路径" fill="#A4A5A5" fill-rule="nonzero" opacity="0.26"></path>
                    <path d="M11.8731397,26.6951653 C11.9150557,24.7094763 13.0758054,22.9447916 14.3655272,21.4948703 C15.6552491,20.044949 17.1384293,18.7390153 18.0863749,17.0212102 C19.082685,15.2163429 19.1117038,13.2072141 18.1960012,11.3889526 C18.4732914,11.4324837 18.7892733,11.5664256 18.9085726,11.9012804 C19.5921252,13.79321 20.2402104,16.2343015 19.050442,18.0626087 C18.447497,18.9868079 17.4705327,19.7201399 16.7095968,20.5003516 C15.8293616,21.401111 14.9781451,22.3387044 14.2752467,23.4001941 C13.1241699,25.1313934 12.5792624,27.060157 12.6759916,29.1630451 C12.0053362,28.5971405 11.8537939,27.5892276 11.8731397,26.6951653 Z" id="路径" fill="#A4A5A5" fill-rule="nonzero" opacity="0.26"></path>
                    <path d="M4.06709798,47.0141542 L1.93260826,34.0016969 C1.87779508,33.8242239 2.0938235,33.660145 2.38078662,33.6567965 L8.1845351,33.5898255" id="路径" stroke="#070707" stroke-linecap="round"></path>
                    <line x1="4.27990209" y1="48.2229801" x2="4.51527634" y2="49.7130839" id="路径" stroke="#070707" stroke-linecap="round" stroke-linejoin="round"></line>
                </g>
                <g id="girl" transform="translate(102.581802, 56.523808)">
                    <polygon id="路径" stroke="#000000" fill="#FFFFFF" fill-rule="nonzero" points="164.245195 199.845441 188.695652 255.885577 155.10949 256.228639 136.491622 211.630619 134.163969 205.791844"></polygon>
                    <path d="M164.628653,199.845441 C149.952997,203.508129 140.830746,210.762875 136.303257,215.310124 C124.167166,178.521802 111.849437,134.509005 111.849437,134.509005 C111.849437,134.509005 134.369152,132.026853 137.056718,135.571824 C138.75873,137.815178 153.821208,173.796296 164.628653,199.845441 Z" id="路径" fill="#0045FF" fill-rule="nonzero"></path>
                    <path d="M76.3863515,137.808452 L111.849437,134.509005 C111.849437,134.509005 148.166892,202.552938 148.503258,208.220182 C148.839625,213.89079 126.511638,255.320535 126.511638,255.320535 L39.6652566,254.923659 L61.1052363,163.211834 L76.3863515,137.808452 Z" id="路径" fill="#0045FF" fill-rule="nonzero"></path>
                    <path d="M72.3297754,98.3799004 L76.3863515,137.808452 C76.3863515,137.808452 87.8497105,156.222792 101.078992,152.687912 C112.283349,149.69453 111.132977,133.160302 111.132977,133.160302 L108.135954,111.957744 C108.135954,111.954381 72.8578703,91.6834707 72.3297754,98.3799004 Z" id="路径" stroke="#000000" fill="#FFFFFF" fill-rule="nonzero"></path>
                    <path d="M73.0092351,98.2520931 C73.0092351,98.2520931 83.2751306,113.928667 98.4956998,114.675331 C113.716269,115.421994 123.864436,90.4121244 123.036976,80.2110841 C122.209515,70.0100438 106.518033,44.8757298 94.8360359,44.6268419 C83.1540388,44.377954 61.7981506,60.9256356 61.4449662,68.8900483 C61.0917817,76.8544609 60.2643209,86.4332815 64.1594411,90.4154878 C68.0511977,94.3943307 73.0092351,98.2520931 73.0092351,98.2520931 Z" id="路径" stroke="#000000" fill="#FFFFFF" fill-rule="nonzero"></path>
                    <path d="M90.5339126,50.8624927 C89.6963608,60.5724839 85.1385992,70.5952667 76.7563542,74.712007 C76.1576225,75.0046184 75.5050721,75.2736864 74.8558854,75.1593325 C74.4051547,75.0819755 74.0015153,74.8297242 73.6079669,74.5808363 C72.2490476,73.7265454 70.8464006,72.8890713 69.2957526,72.549373 C67.7484682,72.2096746 66.0060914,72.4451091 64.8187188,73.5482879 C63.8903482,74.4126688 63.4059809,75.6974685 63.1537063,76.9789048 C62.0470616,82.6461494 65.1819943,88.6194589 69.8406658,91.6801073 C71.2466764,92.6050286 72.8343247,93.3550556 73.557512,95.0770908 C73.9308784,95.9650151 73.8535142,97.0278337 73.2480551,97.761044 C72.0505915,99.2039211 69.8810297,98.29918 68.3842003,97.2767216 C65.2324492,95.1241777 62.1647898,92.6689322 60.0725922,89.379576 C56.9141138,84.4085448 56.3322004,78.1291705 56.2952001,72.145771 C56.2279268,61.3124209 57.5767552,48.9386565 63.8533479,39.9551489 C69.5951185,31.738485 79.6491033,28.2439644 89.0471741,28.4457654 C97.479874,28.6273863 106.11103,31.614041 112.007529,37.9707724 C117.480207,43.8700882 120.638685,51.8143207 122.613154,59.6879229 C123.59198,63.5894088 124.28153,67.5716151 124.735625,71.5773648 C124.957626,73.5314711 125.108991,75.4889408 125.145992,77.4598639 C125.186355,79.5518675 124.557351,82.1786438 124.695261,84.3110077 C124.698625,84.3480045 124.651533,84.3547312 124.641442,84.3177344 C123.312796,77.8130156 119.020764,72.290395 114.00218,68.2140149 C108.798596,63.9862841 102.777641,61.0568063 97.0089614,57.74727 C94.2272131,56.1530421 91.186463,54.1753923 90.5339126,50.8624927 L90.5339126,50.8624927 Z" id="路径" fill="#020202" fill-rule="nonzero"></path>
                    <ellipse id="椭圆形" fill="#020202" fill-rule="nonzero" transform="translate(66.463384, 18.306457) rotate(-11.489712) translate(-66.463384, -18.306457) " cx="66.4633838" cy="18.3064565" rx="13.9664351" ry="15.8419191"></ellipse>
                    <path d="M72.9957805,32.2631676 C76.6823537,31.7990253 80.1906528,29.8852792 82.6763988,26.9759815 C84.3010474,25.0756888 85.48842,22.7852475 86.3125171,20.377089 C87.2476151,17.6393221 87.7218914,14.6123072 86.9516129,11.8173634" id="路径" stroke="#000000"></path>
                    <path d="M70.5335801,33.5479673 C65.4914512,35.7677782 59.3325866,34.8596737 55.0573726,31.267616 C50.7821585,27.6755583 48.5755965,21.5441714 49.5039671,15.8668367" id="路径" stroke="#000000"></path>
                    <path d="M90.4262754,49.7021369 C90.688641,54.9994131 90.3489112,60.3874996 88.0986215,65.2206335 C85.8012406,70.1546678 82.0305758,74.6346499 78.4650944,78.5933128" id="路径" stroke="#000000"></path>
                    <path d="M66.2516387,79.777212 C66.2516387,79.777212 66.2516387,84.2874642 71.2433127,86.1675768" id="路径" stroke="#000000"></path>
                    <path d="M131.422584,169.410487 L148.503258,208.220182 C148.503258,208.220182 148.398985,211.173203 147.167885,213.76971" id="路径" stroke="#FFFFFF"></path>
                    <g id="编组" transform="translate(0.000000, 204.155751)" fill="#FFFFFF" fill-rule="nonzero" stroke="#000000">
                        <path d="M151.618009,46.1668454 C149.993361,46.9908661 146.185696,35.5050261 146.185696,35.5050261 C146.185696,35.5050261 136.562259,22.643576 134.557517,22.7814734 C132.720958,22.9092807 139.296916,39.3997853 140.443925,42.2451794 C140.538108,42.4772505 140.43047,42.7362285 140.205105,42.8203122 C139.67701,43.0187498 138.587184,43.4088984 136.663169,44.0042114 C133.69642,44.9224059 132.546047,42.8673991 130.608578,44.0714784 C128.671109,45.2755576 123.21525,44.2362825 123.21525,44.2362825 L121.563692,44.7037882 L115.916104,45.8136936 C115.916104,45.8136936 112.804717,44.606251 110.72261,43.6813298 C108.640504,42.7597719 109.235872,41.6465031 109.235872,41.6465031 L115.219826,40.5164175 L114.597548,31.2974754 L110.433335,29.4509963 C88.4013511,39.1576241 9.67148516,54.669394 0.902419094,54.9726143 C0.320505619,54.9922756 -0.116770403,54.4205061 0.0278670502,53.8251931 C1.18496668,49.0256928 7.57256026,27.6919642 12.8703274,6.52640317 C18.3665507,3.08233285 46.1066688,-3.77217429 51.5558007,2.63837066 L48.8446894,14.5244493 C48.8446894,14.5244493 120.342683,1.68654263 123.689526,1.45447149 C127.043097,1.21903699 140.013376,13.848416 140.013376,13.848416 C140.013376,13.848416 151.04955,32.6629954 151.480099,34.0587856 C151.90392,35.4579392 153.246021,45.3394613 151.618009,46.1668454 Z" id="路径"></path>
                        <polyline id="路径" points="122.623245 44.2161024 122.727519 31.5194565 120.719413 27.9374888"></polyline>
                        <polyline id="路径" points="131.415857 43.7687769 130.722943 31.1293079 129.081476 25.8286684"></polyline>
                        <line x1="115.169371" y1="40.5534144" x2="115.324099" y2="41.5994162" id="路径"></line>
                    </g>
                    <path d="M147.426887,202.815279 C147.426887,202.815279 157.743237,196.428277 162.004997,197.568453" id="路径" stroke="#FFFFFF"></path>
                    <path d="M76.1374405,138.006889 L62.1748807,179.840236 L53.9170913,207.493699 C31.935562,203.11798 18.2454589,207.907391 12.48687,210.957949 C22.8839483,179.080118 35.6355899,141.62249 37.8152427,140.404958 C42.8876445,137.56629 76.1374405,138.006889 76.1374405,138.006889 Z" id="路径" fill="#0045FF" fill-rule="nonzero"></path>
                    <path d="M51.5894374,207.154 C51.5894374,207.154 58.5152168,180.566719 59.7631353,179.809965" id="路径" stroke="#FFFFFF"></path>
                    <path d="M15.2282543,207.049736 C15.2282543,207.049736 34.9157663,199.539376 50.7855222,205.072087" id="路径" stroke="#FFFFFF"></path>
                    <path d="M73.557512,140.20652 C79.8071954,152.751815 93.1542051,160.137732 103.359555,156.629758 C110.638519,154.127425 113.433721,146.650698 114.574003,137.815178" id="路径" stroke="#FFFFFF"></path>
                    <path d="M49.6351499,218.52885 C49.6351499,218.52885 41.898728,219.127526 36.6648704,225.601975" id="路径" stroke="#000000"></path>
                </g>
                <g id="laptop" transform="translate(207.799193, 227.826087)">
                    <path d="M178.227499,8.12341067 L171.84071,78.1241098 C171.497298,81.9022232 168.524427,84.7819034 164.975837,84.7819034 L76.0085669,84.7517321 C71.9145574,84.7517321 68.7127457,80.9602091 69.1268602,76.5987844 L75.6988227,7.91221178 C76.0557019,4.18103137 78.9646033,1.33487489 82.462692,1.28458944 L171.251523,0 C175.3691,-0.0563559024 178.628147,3.73516705 178.227499,8.12341067 Z" id="路径" stroke="#0A0A0A" fill="#EAF4FE" fill-rule="nonzero"></path>
                    <path d="M167.241683,92.173913 L3.48130358,91.2787835 C1.5487695,91.2687264 -0.0100515446,89.6998204 0,87.7755638 L0,87.6816977 C0.0101491601,85.7574411 1.58580412,84.2019445 3.52170499,84.2119531 L167.282084,85.1070826 C169.214618,85.1171397 170.773439,86.6860457 170.763388,88.6103023 L170.763388,88.7041685 C170.749872,90.628425 169.174217,92.1839216 167.241683,92.173913 Z" id="路径" stroke="#020202" fill="#C7E1F8" fill-rule="nonzero"></path>
                    <path d="M63.4740296,91.4665646 L3.72707882,91.1379843 C1.80127831,91.1279272 0.245824048,89.5657259 0.255875487,87.6448217 L0.255875487,87.5509555 C0.266024752,85.6300513 1.83494615,84.0846118 3.76411344,84.0946201 L63.5110643,84.4232005 C65.4368648,84.4332576 66.992319,85.9954589 66.9822676,87.9130107 L66.9822676,88.0068769 C66.9721183,89.9277811 65.4031969,91.476573 63.4740296,91.4665646 Z" id="路径" stroke="#000000" fill="#FFFFFF" fill-rule="nonzero"></path>
                    <ellipse id="椭圆形" fill="#FCFFFF" fill-rule="nonzero" transform="translate(133.611902, 30.549554) rotate(-28.333353) translate(-133.611902, -30.549554) " cx="133.611902" cy="30.5495535" rx="4.04969253" ry="1.55366327"></ellipse>
                    <line x1="11.0363671" y1="87.8057351" x2="34.2166757" y2="87.9398296" id="路径" stroke="#92BBF4"></line>
                    <line x1="45.7546449" y1="87.4973177" x2="51.2324026" y2="87.5341937" id="路径" stroke="#0A0A0A" fill="#FFFFFF" fill-rule="nonzero"></line>
                    <line x1="54.7675259" y1="87.6951071" x2="59.911972" y2="87.7386878" id="路径" stroke="#0A0A0A" fill="#FFFFFF" fill-rule="nonzero"></line>
                    <path d="M164.975837,84.7819034 L76.0085669,84.7517321 C71.9145574,84.7517321 68.7127457,80.9602091 69.1268602,76.5987844 L75.6988227,7.91221178 C76.0557019,4.18103137 78.9646033,1.33487489 82.462692,1.28458944 L101.286382,1.01304801 C106.353392,9.78953525 116.224803,27.9325257 119.174106,40.9866286 C123.20078,58.8144969 138.815924,84.667923 164.975837,84.7819034 Z" id="路径" fill="#C6E2FA" fill-rule="nonzero" opacity="0.68"></path>
                    <path d="M75.7695252,75.2410773 L82.6646991,8.45194228 C82.7960036,7.18810129 83.7858382,6.22597301 84.974313,6.2092112 L111.804216,5.82033705" id="路径" stroke="#0A0A0A"></path>
                    <ellipse id="椭圆形" fill="#FCFFFF" fill-rule="nonzero" transform="translate(125.579667, 42.612038) rotate(-0.676126) translate(-125.579667, -42.612038) " cx="125.579667" cy="42.6120377" rx="7.98913125" ry="8.77287365"></ellipse>
                </g>
                <g id="data" transform="translate(41.739130, 150.434783)">
                    <path d="M45.1303372,24.5253293 L13.3546904,24.5253293 C11.8659928,24.5253293 10.6589407,23.304995 10.6589407,21.799916 L10.6589407,2.72541323 C10.6589407,1.22033428 11.8659928,0 13.3546904,0 L45.1303372,0 C46.6190348,0 47.826087,1.22033428 47.826087,2.72541323 L47.826087,21.799916 C47.826087,23.304995 46.6190348,24.5253293 45.1303372,24.5253293 Z" id="路径" stroke="#020202" fill="#FFFFFF" fill-rule="nonzero"></path>
                    <path d="M35.9668,38.2608696 L3.18862933,38.2608696 C1.428345,38.2608696 0,36.8168073 0,35.0371532 L0,13.5219818 C0,11.7423276 1.428345,10.2982654 3.18862933,10.2982654 L35.9668,10.2982654 C37.7270843,10.2982654 39.1554293,11.7423276 39.1554293,13.5219818 L39.1554293,35.0371532 C39.1520764,36.8201971 37.7270843,38.2608696 35.9668,38.2608696 Z" id="路径" fill="#FFA737" fill-rule="nonzero"></path>
                    <polyline id="路径" stroke="#FFFFFF" points="4.54656295 14.6101132 4.54656295 33.2134314 33.0832866 33.2134314"></polyline>
                    <rect id="矩形" stroke="#FFFFFF" fill="#FFFFFF" fill-rule="nonzero" x="7.22890097" y="23.006691" width="2.19281133" height="10.0338597"></rect>
                    <rect id="矩形" stroke="#FFFFFF" fill="#FFFFFF" fill-rule="nonzero" x="12.2985198" y="20.1592444" width="2.46439806" height="12.8813063"></rect>
                    <rect id="矩形" stroke="#FFFFFF" fill="#FFFFFF" fill-rule="nonzero" x="17.7771952" y="17.7185758" width="2.73933771" height="15.3219749"></rect>
                    <rect id="矩形" stroke="#FFFFFF" fill="#FFFFFF" fill-rule="nonzero" x="23.1217538" y="22.7355056" width="2.73933771" height="10.305045"></rect>
                </g>
                <g id="message" transform="translate(248.220529, 101.048857)">
                    <path d="M26.5168252,13.5241633 L3.68197431,19.1132994 C3.37366995,19.1905995 3.06197762,18.9990296 2.9874425,18.6864682 L0.0162015116,6.32180694 C-0.05833361,6.00924552 0.131392154,5.69668409 0.439696521,5.61938395 L23.2745474,0.0302478801 C23.5828518,-0.047052258 23.8945441,0.144517649 23.9690792,0.457079077 L26.9403202,12.8217403 C27.0148553,13.1343017 26.8251296,13.4468631 26.5168252,13.5241633 Z" id="路径" fill="#37B352" fill-rule="nonzero"></path>
                    <polyline id="路径" stroke="#FFFFFF" points="0.253358717 6.03277164 12.4601789 8.51309781 23.227116 0"></polyline>
                </g>
                <g id="wall" transform="translate(499.363514, 92.173913)" stroke="#B1B0B5">
                    <rect id="矩形" x="12.5007698" y="0" width="26.6150854" height="17.2013688"></rect>
                    <line x1="12.5007698" y1="17.2013688" x2="0" y2="17.2013688" id="路径"></line>
                    <line x1="39.1192238" y1="17.2013688" x2="55.6521739" y2="17.6945115" id="路径"></line>
                    <line x1="15.7278615" y1="18.1842056" x2="15.7278615" y2="30.4713903" id="路径"></line>
                    <line x1="7.25927213" y1="31.9473698" x2="35.0870434" y2="31.9473698" id="路径"></line>
                    <line x1="43.9564928" y1="19.6601852" x2="43.9564928" y2="33.9130435" id="路径"></line>
                </g>
                <g id="comment" transform="translate(415.123263, 179.130435)">
                    <path d="M48.668159,19.0746332 L9.59271056,19.0746332 C4.29474275,19.0746332 0,14.8409709 0,9.61835156 L0,9.45628168 C0,4.23366231 4.29474275,0 9.59271056,0 L48.668159,0 C53.9661268,0 58.2608696,4.23366231 58.2608696,9.45628168 L58.2608696,9.61835156 C58.2608696,14.8376634 53.9661268,19.0746332 48.668159,19.0746332 Z" id="路径" fill="#FFC53B" fill-rule="nonzero"></path>
                    <polygon id="路径" stroke="#000000" points="24.396152 26.9565217 16.9642338 18.3635103 24.8021394 11.5466524 32.2340575 20.1396639"></polygon>
                </g>
                <g id="box" transform="translate(370.174810, 79.605558)">
                    <path d="M22.0500297,19.9579266 L1.12238763,19.9579266 C0.502209482,19.9579266 0,19.4610625 0,18.8474855 L0,2.61437167 C0,2.00079464 0.502209482,1.50393064 1.12238763,1.50393064 L22.0500297,1.50393064 C22.6702079,1.50393064 23.1724174,2.00079464 23.1724174,2.61437167 L23.1724174,18.8474855 C23.1724174,19.4643972 22.6702079,19.9579266 22.0500297,19.9579266 Z" id="路径" fill="#4C72FF" fill-rule="nonzero"></path>
                    <path d="M22.8758104,18.4539959 L1.94816833,18.4539959 C1.32799017,18.4539959 0.825780692,17.9571319 0.825780692,17.3435549 L0.825780692,1.11044103 C0.825780692,0.496864003 1.32799017,0 1.94816833,0 L22.8758104,0 C23.4959886,0 23.9981981,0.496864003 23.9981981,1.11044103 L23.9981981,17.3435549 C23.9981981,17.9571319 23.4959886,18.4539959 22.8758104,18.4539959 Z" id="路径" stroke="#000000"></path>
                    <rect id="矩形" stroke="#020202" fill="#0045FF" fill-rule="nonzero" x="27.1058299" y="1.87074299" width="63.3289527" height="5.90901351"></rect>
                    <rect id="矩形" stroke="#020202" x="27.9417222" y="12.8451016" width="33.9716065" height="4.22167669"></rect>
                    <line x1="1.52011058" y1="28.0411369" x2="40.9452402" y2="28.0411369" id="路径" stroke="#020202"></line>
                    <line x1="1.52011058" y1="34.3703173" x2="32.1380363" y2="34.3703173" id="路径" stroke="#020202"></line>
                    <line x1="1.52011058" y1="40.7028323" x2="21.6523068" y2="40.7028323" id="路径" stroke="#020202"></line>
                </g>
                <g id="callender" transform="translate(297.534738, 148.803227)" fill-rule="nonzero">
                    <path d="M24.9918952,0 L25.2173913,28.9097875 C25.2207155,29.1901371 25.0154502,29.4265765 24.7428848,29.4569759 C22.0979905,29.754214 9.13262468,31.1120519 2.8602546,30.0109197 C2.7357494,29.9906535 2.67181429,29.8521675 2.72565438,29.7373255 C4.02454647,27.0013835 16.7442669,0.628253356 24.9918952,0 Z" id="路径" fill="#B4B3B8" opacity="0.68"></path>
                    <path d="M2.27137865,0 L24.9918952,0 C24.9918952,0 26.129267,22.039533 19.8804519,27.2580891 C19.8804519,27.2580891 2.27137865,29.5785733 0,28.4166424 C0,28.4166424 1.71951776,17.1959023 2.28820368,14.8754182 C2.85688959,12.554934 1.70269274,1.7395187 2.27137865,0 Z" id="路径" stroke="#000000" fill="#FFFFFF"></path>
                    <ellipse id="椭圆形" stroke="#000000" fill="#FFFFFF" cx="13.0360309" cy="5.53268278" rx="1.48733239" ry="1.5773888"></ellipse>
                    <line x1="5.81472934" y1="12.7373301" x2="17.393713" y2="12.7373301" id="路径" stroke="#000000" fill="#FFFFFF"></line>
                    <line x1="10.7781123" y1="18.0301958" x2="17.2826678" y2="18.0301958" id="路径" stroke="#000000" fill="#FFFFFF"></line>
                    <line x1="5.15182328" y1="22.3063718" x2="12.7601005" y2="22.4212138" id="路径" stroke="#000000" fill="#FFFFFF"></line>
                </g>
                <g id="top" transform="translate(449.905872, 238.260870)">
                    <path d="M33.8787165,80.1507611 C33.8787165,80.9347057 24.6741632,81.610984 17.6606864,81.7220148 C16.7361672,81.7354731 5.60807223,81.8902433 5.5400627,80.9313411 C5.51324975,80.5275928 7.46388357,80.0801052 8.79478476,79.7739294 C12.0458411,79.0303597 14.2335311,79.0707345 19.5571359,79.0034431 C24.9010598,78.9361517 25.334534,78.8621312 27.1903453,79.0034431 C27.6678443,79.0404534 33.8787165,79.5081285 33.8787165,80.1507611 Z" id="路径" fill="#CCCDCE" fill-rule="nonzero"></path>
                    <path d="M36.7538695,49.0587796 L34.8337143,71.3894236 L34.1530244,79.2827023 C34.1157727,79.7335546 33.7398693,80.0801052 33.2894625,80.0801052 L9.536432,80.0801052 C9.11311737,80.0801052 8.74737353,79.7705648 8.6830297,79.3432646 L4.46681598,52.0969854 L4.00963618,49.1193419 C3.92835977,48.58774 4.3313553,48.1099712 4.86303848,48.1099712 L35.8936942,48.1099712 C36.3982852,48.1099712 36.7978942,48.5507297 36.7538695,49.0587796 Z" id="路径" fill="#05CDCD" fill-rule="nonzero"></path>
                    <path d="M20.3428079,48.0864192 C19.7163022,42.2690795 18.8459674,37.5721413 18.1517314,34.3186031 C17.1459358,29.5981129 16.4246077,27.4784345 15.5474997,22.8790687 C14.5687963,17.7615594 14.1522547,13.5255671 13.9524502,10.7195166 C13.9219716,10.544559 13.8271491,10.1307171 13.4614053,9.74042706 C13.2074165,9.46789698 12.8721513,9.2592937 12.4860883,9.14489836 C8.32405889,7.9168307 4.16202945,6.68539847 0,5.45733081" id="路径" stroke="#000000"></path>
                    <path d="M14.1387087,48.0325861 C13.8339221,43.9883742 13.2853064,39.5404141 12.3777198,34.7728199 C11.5547962,30.4493488 10.5490006,26.4724284 9.47208817,22.8723396 C9.43483649,22.7041112 9.34340052,22.4013 9.0995713,22.0917596 C8.91669938,21.8629689 8.6830297,21.6711885 8.4053353,21.5298766 C6.38019811,20.5003185 4.35844744,19.4673958 2.33331024,18.4378378" id="路径" stroke="#000000"></path>
                    <path d="M25.42597,48.2378248 C26.7196195,42.4844119 27.220824,37.7975674 27.4443341,34.6416017 C27.8473297,28.9554802 27.5120645,25.8264311 28.2198465,19.4337502 C28.6567072,15.4904754 29.2662803,12.3109577 29.6929814,10.3191329 C30.0282466,9.8009893 30.4447882,9.25592913 30.9561523,8.71423354 C33.1573884,6.39604554 35.9241728,5.48424736 37.5192223,5.1006865" id="路径" stroke="#000000"></path>
                    <path d="M8.9810432,22.111947 C9.69221178,18.9862625 9.27228367,15.6519747 7.79914875,12.76181" id="路径" stroke="#000000"></path>
                    <path d="M11.1551871,30.0725171 C10.8504006,30.3248598 10.4304725,30.4190677 10.0240905,30.4829945 C7.00670376,30.9607633 3.78273954,30.2205582 1.36476637,28.4878052" id="路径" stroke="#000000"></path>
                    <path d="M11.9611782,33.070348 C13.2785333,32.7406203 14.199666,31.5832086 14.5518637,30.3618701 C14.900675,29.1438961 14.7821469,27.8552662 14.6568458,26.600282" id="路径" stroke="#000000"></path>
                    <path d="M6.15330147,7.24391691 C6.97622511,5.00647857 6.08557113,2.32491713 4.04688787,0.898339905" id="路径" stroke="#000000"></path>
                    <path d="M10.4711107,8.52581768 C8.54079599,11.0155987 4.88335758,12.2369372 1.67293942,11.4664509" id="路径" stroke="#000000"></path>
                    <path d="M14.4299491,15.0665397 C16.9630639,13.1588291 18.4666774,10.1374462 18.385401,7.12279243" id="路径" stroke="#000000"></path>
                    <path d="M15.5305672,22.4517685 C13.4681783,22.6637363 11.3211265,21.5803451 10.3999938,19.864415" id="路径" stroke="#000000"></path>
                    <path d="M18.0332033,33.5010129 C21.5314754,31.8389158 23.8241474,28.2220042 23.6819137,24.5916343" id="路径" stroke="#000000"></path>
                    <path d="M16.5499088,27.5457259 C19.7840326,25.866806 21.7854641,22.3508314 21.4468124,18.9391585" id="路径" stroke="#000000"></path>
                    <path d="M27.6746173,30.7656183 C29.4796309,30.7185144 31.1457973,29.7663414 32.3581704,28.5315446 C33.5705435,27.2967478 34.3968536,25.7860563 35.2096177,24.2955523" id="路径" stroke="#000000"></path>
                    <path d="M27.9658578,22.8117774 C25.1482756,21.1193992 23.1908687,18.2595156 22.7506215,15.180935" id="路径" stroke="#000000"></path>
                    <path d="M28.8734443,16.5200335 C32.5579749,15.7630055 35.9343324,13.7947326 38.2608696,11.0526089" id="路径" stroke="#000000"></path>
                    <path d="M29.8927859,9.69668766 C28.6567072,7.72841484 28.1013184,5.39676857 28.3282151,3.13241368" id="路径" stroke="#000000"></path>
                    <ellipse id="椭圆形" fill="#C81733" fill-rule="nonzero" cx="3.78951257" cy="0.679642924" rx="1" ry="1"></ellipse>
                    <ellipse id="椭圆形" fill="#C81733" fill-rule="nonzero" cx="28.2774173" cy="2.92044583" rx="1" ry="1"></ellipse>
                    <ellipse id="椭圆形" fill="#C81733" fill-rule="nonzero" cx="21.4061742" cy="18.9828979" rx="1" ry="1"></ellipse>
                    <ellipse id="椭圆形" fill="#C81733" fill-rule="nonzero" cx="1.27671693" cy="28.5248154" rx="1" ry="1"></ellipse>
                    <ellipse id="椭圆形" fill="#C81733" fill-rule="nonzero" cx="35.2096177" cy="24.3258334" rx="1" ry="1"></ellipse>
                    <path d="M34.8337143,71.3894236 L34.1530244,79.2827023 C34.1157727,79.7335546 33.7398693,80.0801052 33.2894625,80.0801052 L9.536432,80.0801052 C9.11311737,80.0801052 8.74737353,79.7705648 8.6830297,79.3432646 L4.46681598,52.0969854 C10.237441,55.448096 10.2679197,63.3918433 14.7652143,67.5336276 C17.1357762,69.7205974 20.7390304,69.5254524 23.9494485,69.4581611 C27.6678443,69.380776 31.5386332,69.7105037 34.8337143,71.3894236 Z" id="路径" fill="#3D9585" fill-rule="nonzero" opacity="0.28"></path>
                    <line x1="32.8153502" y1="53.8162801" x2="31.9551748" y2="76.8635773" id="路径" stroke="#FFFFFF"></line>
                </g>
            </g>
        </g>
    </g>
</svg>