<?xml version="1.0" standalone="no"?><!DOCTYPE svg PUBLIC "-//W3C//DTD SVG 1.1//EN" "http://www.w3.org/Graphics/SVG/1.1/DTD/svg11.dtd"><svg t="1630894923650" class="icon" viewBox="0 0 1638 1024" version="1.1" xmlns="http://www.w3.org/2000/svg" p-id="4891" xmlns:xlink="http://www.w3.org/1999/xlink" width="51.1875" height="32"><defs><style type="text/css"></style></defs><path d="M1556.48 0H81.92a81.92 81.92 0 0 0-81.92 81.92v860.16a81.92 81.92 0 0 0 81.92 81.92h1474.56a81.92 81.92 0 0 0 81.92-81.92V81.92a81.92 81.92 0 0 0-81.92-81.92z" fill="#DDDDDD" p-id="4892"></path><path d="M1556.48 20.48H81.92a61.44 61.44 0 0 0-61.44 61.44v860.16a61.44 61.44 0 0 0 61.44 61.44h1474.56a61.44 61.44 0 0 0 61.44-61.44V81.92a61.44 61.44 0 0 0-61.44-61.44z" fill="#FFFFFF" p-id="4893"></path><path d="M602.84928 502.84544c0-13.02528-1.10592-26.03008-3.31776-38.89152h-181.6576v73.66656h104.0384a88.18688 88.18688 0 0 1-13.23008 32.9728 88.84224 88.84224 0 0 1-25.23136 25.16992v47.8208h62.09536c36.352-33.30048 57.30304-82.5344 57.30304-140.73856z" fill="#4285F4" p-id="4894"></path><path d="M417.87392 689.7664c51.97824 0 95.744-16.93696 127.67232-46.16192l-62.09536-47.8208c-17.28512 11.63264-39.5264 18.26816-65.57696 18.26816-50.23744 0-92.8768-33.62816-108.1344-78.9504h-63.95904v49.29536a191.7952 191.7952 0 0 0 71.02464 76.9024 193.59744 193.59744 0 0 0 101.0688 28.4672z" fill="#34A853" p-id="4895"></path><path d="M309.76 535.10144a113.82784 113.82784 0 0 1 0-73.216v-49.27488h-63.95904a190.17728 190.17728 0 0 0 0 171.76576l63.95904-49.27488z" fill="#FBBC04" p-id="4896"></path><path d="M417.87392 382.93504a104.96 104.96 0 0 1 73.89184 28.672l54.9888-54.5792A185.77408 185.77408 0 0 0 417.87392 307.2a193.59744 193.59744 0 0 0-101.0688 28.4672 191.77472 191.77472 0 0 0-71.00416 76.92288l63.95904 49.27488c15.23712-45.32224 57.87648-78.9504 108.1344-78.9504z" fill="#EA4335" p-id="4897"></path><path d="M744.63232 514.39616V655.36H696.32V307.22048h128.12288a124.14976 124.14976 0 0 1 44.72832 7.3728c14.25408 5.18144 27.2384 12.92288 38.23616 22.77376a97.50528 97.50528 0 0 1 25.9072 33.25952A90.7264 90.7264 0 0 1 942.08 410.8288a90.27584 90.27584 0 0 1-8.6016 40.46848 97.05472 97.05472 0 0 1-26.05056 33.42336c-22.40512 19.78368-50.0736 29.65504-82.96448 29.63456h-79.81056v0.04096z m0-164.31104v121.52832h80.9984c8.88832 0.24576 17.73568-1.2288 25.94816-4.34176a64.3072 64.3072 0 0 0 21.85216-13.66016 59.392 59.392 0 0 0 14.35648-19.456 55.56224 55.56224 0 0 0 0-46.1824 59.392 59.392 0 0 0-14.336-19.456 63.32416 63.32416 0 0 0-21.77024-13.98784 67.4816 67.4816 0 0 0-26.05056-4.46464H744.6528v0.02048zM1043.06688 409.6c32.09216 0 57.42592 9.27744 75.9808 27.81184 18.57536 18.5344 27.8528 43.95008 27.83232 76.24704v154.0096h-41.53344v-34.67264h-1.88416C1085.50144 661.56544 1061.5808 675.84 1031.74144 675.84c-25.45664 0-46.77632-8.15104-63.91808-24.4736a77.88544 77.88544 0 0 1-19.2512-27.46368A83.59936 83.59936 0 0 1 942.08 590.15168c0-25.86624 9.03168-46.42816 27.11552-61.70624 18.08384-15.2576 42.22976-22.9376 72.41728-22.95808 25.78432 0 47.02208 5.09952 63.6928 15.29856v-10.73152a57.09824 57.09824 0 0 0-4.62848-22.9376 53.10464 53.10464 0 0 0-13.312-18.57536 58.92096 58.92096 0 0 0-41.8816-17.12128c-24.24832 0-43.43808 11.0592-57.56928 33.1776l-38.23616-26.03008C970.73152 425.92256 1001.86112 409.6 1043.08736 409.6z m-56.15616 181.57568c-0.04096 5.95968 1.24928 11.8784 3.76832 17.2032 2.49856 5.3248 6.144 9.91232 10.62912 13.39392 9.60512 8.17152 21.504 12.4928 33.73056 12.24704 18.30912-0.04096 35.88096-7.92576 48.82432-21.9136 14.37696-14.6432 21.56544-31.80544 21.56544-51.5072-13.5168-11.6736-32.39936-17.48992-56.60672-17.48992-17.63328 0-32.3584 4.608-44.11392 13.78304-11.8784 9.33888-17.8176 20.6848-17.8176 34.28352zM1413.12 409.6l-154.0096 368.64h-47.63648l57.15968-128.98304L1167.36 409.6h50.13504l73.19552 183.78752h1.024L1362.88256 409.6H1413.12z" fill="#5F6368" p-id="4898"></path></svg>