<svg width="100" height="100" viewBox="0 0 100 100" fill="none" xmlns="http://www.w3.org/2000/svg">
<rect opacity="0.1" width="100" height="100" rx="50" fill="white"/>
<path d="M47.0776 51.7654L53.2618 57.9421L59.2308 51.9804C59.5785 51.6331 60.0669 51.4098 60.605 51.4098H73.9586C73.9834 50.9468 74 50.4755 74 50.0041C74 36.7494 63.2377 26 49.9669 26C37.2756 26 26.8858 35.8315 26 48.276H37.4081L44.1801 41.5121C44.9334 40.7597 46.167 40.7597 46.9203 41.5121L54.4788 49.0615C55.1908 49.8222 55.1659 51.0129 54.4291 51.7488C53.6923 52.4848 52.5002 52.5096 51.7385 51.7984L45.5543 45.6217L39.5854 51.5835C39.2211 51.9473 38.7244 52.154 38.2111 52.154H26.0414C27.1342 64.4 37.4329 74 49.9752 74C61.4329 74 71.0114 65.9876 73.4205 55.2713H61.4163L54.6361 62.0517C53.8744 62.8041 52.6492 62.8041 51.8958 62.0517L44.3374 54.5023C43.5757 53.7499 43.5757 52.5178 44.3374 51.7654C45.0907 51.0129 46.316 51.0129 47.0776 51.7654Z" fill="white"/>
</svg>
