<svg width="100" height="100" viewBox="0 0 100 100" fill="none" xmlns="http://www.w3.org/2000/svg">
<rect opacity="0.1" width="100" height="100" rx="50" fill="white"/>
<path d="M76.4964 48.4733C76.5917 47.7631 76.6356 47.0822 76.6356 46.4232C76.6356 37.366 69.1598 30 59.9781 30C54.4719 30 49.2953 32.7312 46.2127 37.1975C44.6605 36.3994 42.9398 35.9894 41.1678 35.9894C35.4641 35.9894 30.7633 40.302 30.2435 45.8374C24.4225 46.8332 20 51.9147 20 57.8236C20 64.5378 25.5354 70 32.3449 70H68.6033C75.4128 70 80.9483 64.5378 80.9483 57.8236C80.9483 54.1772 79.33 50.8018 76.4964 48.4733ZM35.7715 53.0423C35.9326 53.2253 36.123 53.3864 36.3427 53.4963C36.5989 53.6354 36.8699 53.7598 37.1481 53.855C37.458 53.9658 37.7656 54.0829 38.0706 54.2065C38.3855 54.331 38.6931 54.4847 38.9932 54.6458C39.2934 54.8142 39.5717 55.0192 39.806 55.2682C40.0476 55.5318 40.2453 55.832 40.377 56.1688C40.5162 56.5202 40.5894 56.9376 40.5894 57.4282C40.5894 58.131 40.465 58.79 40.2233 59.4051C39.9891 60.0055 39.6376 60.562 39.1836 61.0233C38.715 61.4992 38.1512 61.8726 37.5362 62.1215C36.8918 62.3851 36.1597 62.5243 35.3542 62.5243C34.9479 62.5247 34.5428 62.4805 34.1461 62.3925C33.7434 62.2972 33.3553 62.1728 32.9819 62.0118C32.6158 61.8506 32.2643 61.6529 31.9495 61.4333C31.6273 61.2063 31.3564 60.9574 31.1367 60.6865L32.2423 59.2294C32.3302 59.1195 32.44 59.0243 32.5718 58.9584C32.7036 58.8925 32.8354 58.8559 32.9672 58.8559C33.1576 58.8559 33.3406 58.9218 33.4871 59.039L34.0436 59.449C34.2649 59.6109 34.503 59.7483 34.7538 59.8591C35.0247 59.9762 35.3542 60.0421 35.7496 60.0421C36.328 60.0421 36.7747 59.881 37.0895 59.5662C37.397 59.2513 37.5581 58.7828 37.5581 58.1677C37.5581 57.8749 37.4922 57.6405 37.3457 57.4575C37.1993 57.2744 37.0163 57.1206 36.782 56.9888C36.5268 56.8525 36.2596 56.7398 35.9839 56.652C35.6837 56.5495 35.3835 56.447 35.0687 56.3299C34.7538 56.22 34.4462 56.0809 34.1534 55.9271C33.8532 55.7661 33.5896 55.561 33.3553 55.3121C33.121 55.0559 32.9379 54.7483 32.7915 54.3822C32.6524 54.0161 32.5792 53.5622 32.5792 53.0276C32.5792 52.4126 32.6963 51.8195 32.9306 51.2484C33.1576 50.6847 33.4944 50.1647 33.9264 49.7327C34.373 49.2788 34.9149 48.92 35.5006 48.6784C36.1157 48.4148 36.8113 48.283 37.5801 48.283C38.337 48.2837 39.0854 48.4433 39.7767 48.7516C40.0915 48.8907 40.3844 49.0664 40.6626 49.2715C40.9189 49.4545 41.1459 49.6742 41.3436 49.9231L40.4064 51.2045C40.3112 51.329 40.194 51.4388 40.0696 51.534C39.9524 51.6072 39.8133 51.6511 39.6742 51.6438C39.5131 51.6364 39.3666 51.5852 39.2348 51.4974C39.0884 51.4021 38.9273 51.2997 38.7443 51.1825C38.5686 51.0654 38.3562 50.9629 38.1219 50.8677C37.8876 50.7725 37.6093 50.7212 37.2945 50.7212C37.0016 50.7212 36.7454 50.7652 36.5477 50.8823C36.328 50.9629 36.145 51.08 35.9985 51.2264C35.8521 51.3802 35.7423 51.5486 35.669 51.7463C35.5958 51.944 35.5592 52.1636 35.5592 52.3979C35.5592 52.6543 35.6251 52.8739 35.7716 53.0423H35.7715ZM49.7639 62.3192H48.1823C47.9993 62.3192 47.8455 62.2973 47.7211 62.246C47.6112 62.2021 47.5087 62.1362 47.4281 62.0483C47.3549 61.9678 47.3037 61.8653 47.2744 61.7555C47.2451 61.6383 47.2304 61.5138 47.2304 61.3821V60.6645C46.8278 61.2282 46.3738 61.6676 45.8759 61.9897C45.378 62.3119 44.8289 62.473 44.2285 62.473C43.8696 62.473 43.5255 62.4071 43.196 62.2607C42.8592 62.1142 42.559 61.8872 42.3174 61.609C42.0684 61.3234 41.8634 60.9501 41.7097 60.5034C41.5559 60.0568 41.4827 59.5296 41.4827 58.9146C41.4754 58.0432 41.6438 57.1719 41.9733 56.3591C42.6176 54.763 43.8624 53.4816 45.4438 52.8007C46.2566 52.4419 47.1426 52.2661 48.1091 52.2661C48.585 52.2661 49.0683 52.2954 49.5369 52.3614C50.0256 52.4275 50.5064 52.5427 50.9719 52.7055L49.7639 62.3192ZM59.8902 62.3192H58.3086C58.1256 62.3192 57.9718 62.2973 57.8473 62.246C57.7375 62.2021 57.635 62.1362 57.5545 62.0483C57.4812 61.9678 57.43 61.8653 57.4007 61.7555C57.3714 61.6383 57.3568 61.5138 57.3568 61.3821V60.6645C56.954 61.2282 56.5001 61.6676 56.0022 61.9897C55.5043 62.3119 54.9551 62.473 54.3547 62.473C53.996 62.473 53.6519 62.4071 53.3224 62.2607C52.9929 62.1142 52.7 61.9019 52.4437 61.609C52.1948 61.3234 51.9897 60.9501 51.836 60.5034C51.6823 60.0568 51.609 59.5296 51.609 58.9146C51.6017 58.0432 51.7701 57.1719 52.0996 56.3591C52.4144 55.5699 52.8822 54.8507 53.4761 54.2431C54.0769 53.6344 54.7874 53.145 55.5702 52.8007C56.383 52.4419 57.2689 52.2661 58.2354 52.2661C58.7113 52.2661 59.1946 52.2954 59.6632 52.3614C60.1519 52.4275 60.6327 52.5427 61.0983 52.7055L59.8902 62.3192ZM65.8649 52.9984C66.026 53.1814 66.2163 53.3425 66.4361 53.4523C66.6923 53.5914 66.9632 53.7159 67.2414 53.8111C67.5514 53.9218 67.859 54.039 68.164 54.1626C68.4862 54.287 68.7937 54.4408 69.0939 54.6018C69.3941 54.7703 69.6723 54.9753 69.9067 55.2243C70.1483 55.4879 70.346 55.788 70.4851 56.1395C70.6242 56.491 70.6975 56.9083 70.6975 57.3989C70.6975 58.1018 70.5729 58.7607 70.3313 59.3758C70.0971 59.9763 69.7456 60.5327 69.2916 60.9939C68.823 61.4699 68.2592 61.8433 67.6442 62.0923C66.9998 62.3558 66.2676 62.495 65.4622 62.495C65.0559 62.4954 64.6507 62.4512 64.2541 62.3632C63.8514 62.2753 63.4633 62.1435 63.0899 61.9824C62.7238 61.8213 62.3723 61.6236 62.0574 61.404C61.7353 61.177 61.4644 60.928 61.2447 60.6572L62.3503 59.2221C62.4382 59.1122 62.5481 59.017 62.6798 58.9512C62.8008 58.884 62.9369 58.8487 63.0753 58.8487C63.2656 58.8487 63.4486 58.9146 63.5951 59.0317L64.1516 59.4417C64.3729 59.6036 64.611 59.741 64.8618 59.8517C65.1327 59.9689 65.4622 60.0348 65.8576 60.0348C66.436 60.0348 66.8827 59.8737 67.1975 59.5589C67.5123 59.244 67.6734 58.7754 67.6734 58.1603C67.6734 57.8675 67.6075 57.6331 67.4611 57.4501C67.3146 57.2671 67.1316 57.1133 66.8973 56.9815C66.6421 56.8452 66.375 56.7324 66.0992 56.6447C65.799 56.5422 65.4988 56.4397 65.184 56.3225C64.8764 56.2127 64.5689 56.0736 64.2687 55.9198C63.9685 55.7587 63.705 55.5538 63.4706 55.3048C63.2363 55.0485 63.0533 54.741 62.9068 54.3749C62.7677 54.0088 62.6945 53.5548 62.6945 53.0203C62.6945 51.7902 63.1778 50.6041 64.0417 49.7254C64.4883 49.2715 65.0302 48.9127 65.6159 48.671C66.231 48.4074 66.9266 48.2757 67.6954 48.2757C68.4523 48.2763 69.2007 48.436 69.892 48.7443C70.2068 48.8834 70.4997 49.0592 70.778 49.2641C71.0342 49.4472 71.2613 49.6668 71.4589 49.9158L70.5217 51.1971C70.4265 51.3216 70.3094 51.4315 70.1849 51.5266C70.0678 51.5999 69.9286 51.6438 69.7895 51.6364C69.6284 51.6292 69.482 51.5779 69.3502 51.49C69.2038 51.3948 69.0426 51.2923 68.8596 51.1752C68.6839 51.058 68.4715 50.9555 68.2372 50.8603C68.0029 50.7652 67.7247 50.7139 67.4099 50.7139C67.117 50.7139 66.8607 50.7578 66.641 50.8384C66.4213 50.919 66.2384 51.0361 66.0919 51.1825C65.9454 51.3363 65.8356 51.5046 65.7624 51.7023C65.6892 51.9 65.6525 52.1197 65.6525 52.354C65.6525 52.603 65.7184 52.8226 65.8649 52.9984Z" fill="white"/>
<path d="M56.4923 54.6312C56.0896 54.8509 55.7454 55.1511 55.4672 55.5172C55.167 55.9126 54.9473 56.3519 54.8009 56.8205C54.6471 57.311 54.5666 57.8382 54.5666 58.402C54.5666 58.673 54.5886 58.9512 54.6471 59.2148C54.6838 59.4052 54.757 59.5882 54.8521 59.7566C54.9254 59.8811 55.0352 59.9836 55.1597 60.0568C55.2792 60.12 55.4125 60.1527 55.5477 60.152C55.7674 60.152 55.9725 60.0714 56.1774 59.9103C56.4044 59.72 56.6021 59.493 56.7558 59.2441C56.9535 58.9365 57.1146 58.607 57.2537 58.2629C57.4076 57.8675 57.5393 57.4649 57.6418 57.0548L58.0006 54.3018H57.8176C57.3563 54.3018 56.895 54.4115 56.4923 54.6312ZM46.366 54.6312C45.9706 54.8509 45.6191 55.1511 45.3408 55.5172C45.0407 55.9126 44.8211 56.3519 44.6746 56.8205C44.5208 57.311 44.4403 57.8382 44.4403 58.402C44.4329 58.673 44.455 58.9512 44.5135 59.2148C44.5501 59.4052 44.6234 59.5882 44.7185 59.7566C44.7917 59.8811 44.9016 59.9836 45.026 60.0568C45.1432 60.1227 45.2823 60.152 45.4141 60.152C45.6264 60.152 45.8388 60.0714 46.0438 59.9103C46.2708 59.72 46.4685 59.493 46.6223 59.2441C46.8199 58.9365 46.9884 58.607 47.1274 58.2629C47.2812 57.8675 47.413 57.4649 47.5155 57.0548L47.867 54.3018H47.684C47.2227 54.3018 46.7687 54.4115 46.366 54.6312Z" fill="white"/>
</svg>
