<svg width="100" height="100" viewBox="0 0 100 100" fill="none" xmlns="http://www.w3.org/2000/svg">
<rect x="0.5" y="0.5" width="99" height="99" rx="49.5" stroke="black" stroke-opacity="0.05"/>
<path d="M59.8871 55.6278C61.7883 56.1372 62.9166 58.0915 62.4072 59.9927L58.386 75C56.4847 74.4906 55.3564 72.5363 55.8659 70.635L59.8871 55.6278ZM66.7367 57.4429L73.1945 63.9007C74.2279 64.9342 74.2382 66.6032 73.2255 67.6494L73.1945 67.6809L66.7367 74.1387C65.3449 72.7468 65.3449 70.4902 66.7367 69.0985L70.0443 65.7908L66.7367 62.4832C65.3449 61.0913 65.3449 58.8347 66.7367 57.4429ZM51.4643 57.4429C52.8561 58.8347 52.8561 61.0913 51.4643 62.4831L48.1566 65.7908L51.4643 69.0984C52.8422 70.4763 52.8559 72.7017 51.5056 74.0966L51.4643 74.1386L45.0065 67.6808C43.9731 66.6473 43.9627 64.9783 44.9755 63.9321L45.0065 63.9006L51.4643 57.4429ZM48.1422 50.0035L48.4892 50.0062C52.3303 50.065 55.935 51.0985 59.0669 52.8702C57.6145 53.4928 56.4507 54.7444 55.9953 56.3768L55.9817 56.4264L55.8462 56.9307C55.6757 56.6806 55.4842 56.4454 55.2739 56.2276L55.2277 56.1803L55.2064 56.1589L55.1439 56.0974C53.0895 54.1086 49.8241 54.1088 47.77 56.098L47.7081 56.1589L42.4762 61.3908L42.4249 61.4429L42.3446 61.527C40.0718 63.9514 40.101 67.7397 42.4155 70.129L42.4864 70.2009L44.5081 72.2226H27.7795L27.7525 72.2224C26.7819 72.2066 26 71.4149 26 70.4406C26 70.3577 26.0056 70.276 26.0166 70.196L26.0145 70.1935C27.0393 58.8732 36.555 50.0035 48.1422 50.0035ZM48.1701 25C55.0746 25 60.6718 30.5972 60.6718 37.5017C60.6718 44.4063 55.0746 50.0035 48.1701 50.0035C41.2655 50.0035 35.6683 44.4063 35.6683 37.5017C35.6683 30.5972 41.2655 25 48.1701 25Z" fill="#0045FF"/>
</svg>
