<svg width="90" height="90" viewBox="0 0 90 90" fill="none" xmlns="http://www.w3.org/2000/svg">
<rect width="90" height="90" rx="12" fill="#0045FF"/>
<g clip-path="url(#clip0_14_327)">
<path d="M44.9866 65.8179C42.1765 65.8179 39.4572 65.2666 36.8878 64.1798C34.4094 63.1305 32.188 61.6315 30.2768 59.7208C28.3656 57.8101 26.8671 55.5883 25.8178 53.1098C24.7315 50.5456 24.1797 47.8212 24.1797 45.011C24.1797 42.2009 24.731 39.4816 25.8178 36.9123C26.8671 34.4338 28.3656 32.2125 30.2768 30.3012C32.1876 28.39 34.4089 26.8915 36.8878 25.8422C39.4521 24.7559 42.1765 24.2041 44.9866 24.2041C47.7967 24.2041 50.5165 24.7554 53.0854 25.8422C55.5639 26.8915 57.7852 28.39 59.6964 30.3012C61.6071 32.212 63.1061 34.4333 64.1554 36.9123C65.2417 39.4765 65.7935 42.2009 65.7935 45.011C65.7935 47.8212 65.2422 50.5409 64.1554 53.1098C63.1061 55.5883 61.6071 57.8096 59.6964 59.7208C57.7856 61.6315 55.5639 63.1305 53.0854 64.1798C50.516 65.2717 47.7967 65.8179 44.9866 65.8179ZM44.9866 27.6405C40.3458 27.6405 35.9833 29.4501 32.7014 32.7315C29.4201 36.0129 27.611 40.3754 27.611 45.0162C27.611 49.6574 29.4201 54.0199 32.7014 57.3013C35.9828 60.5827 40.3454 62.3918 44.9866 62.3918C49.6274 62.3918 53.9904 60.5827 57.2713 57.3013C60.5527 54.0199 62.3622 49.6574 62.3622 45.0162C62.3622 40.3754 60.5532 36.0124 57.2713 32.7315C53.9899 29.4445 49.6274 27.6405 44.9866 27.6405Z" fill="white"/>
<path d="M44.9866 54.5547C39.7303 54.5547 35.4531 50.2779 35.4531 45.0211C35.4531 39.7648 39.7303 35.4931 44.9866 35.4931C50.243 35.4931 54.5202 39.7648 54.5202 45.0211C54.5202 50.2779 50.243 54.5547 44.9866 54.5547ZM44.9866 38.9188C41.6195 38.9188 38.8787 41.6596 38.8787 45.0267C38.8787 48.3938 41.6195 51.1346 44.9866 51.1346C48.3538 51.1346 51.0946 48.3938 51.0946 45.0267C51.0946 41.654 48.3538 38.9188 44.9866 38.9188ZM44.9328 31.7349C45.8804 31.7349 46.6458 30.9695 46.6458 30.0218V22.7424C46.6458 21.7947 45.8804 21.0293 44.9328 21.0293C43.9851 21.0293 43.2197 21.7947 43.2197 22.7424V30.0223C43.2197 30.9695 43.9856 31.7349 44.9328 31.7349ZM44.9866 58.3017C44.039 58.3017 43.2736 59.0671 43.2736 60.0147V67.2947C43.2736 68.2423 44.039 69.0073 44.9866 69.0073C45.9343 69.0073 46.6992 68.2418 46.6992 67.2947V60.0147C46.6992 59.0671 45.9338 58.3017 44.9866 58.3017ZM31.7061 45.045C31.7061 44.0973 30.9406 43.3319 29.993 43.3319H22.7131C21.7654 43.3319 21 44.0973 21 45.045C21 45.9926 21.7654 46.7576 22.7131 46.7576H29.993C30.935 46.758 31.7061 45.9926 31.7061 45.045ZM58.2672 44.9916C58.2672 45.9392 59.0327 46.7042 59.9798 46.7042H67.2598C68.2074 46.7042 68.9728 45.9388 68.9728 44.9916C68.9728 44.0439 68.2074 43.2785 67.2598 43.2785H59.9798C59.0378 43.2785 58.2672 44.0496 58.2672 44.9916Z" fill="white"/>
</g>
<defs>
<clipPath id="clip0_14_327">
<rect width="48" height="48" fill="white" transform="translate(21 21)"/>
</clipPath>
</defs>
</svg>
