<svg width="100" height="100" viewBox="0 0 100 100" fill="none" xmlns="http://www.w3.org/2000/svg">
<rect x="0.5" y="0.5" width="99" height="99" rx="49.5" stroke="black" stroke-opacity="0.05"/>
<path d="M50 22C34.6 22 22 34.6 22 50C22 65.4 34.6 78 50 78C65.4 78 78 65.4 78 50C78 34.6 65.4 22 50 22ZM41 39.8L42 39.6L42.6 38.8V39.4L43.2 39.6L42.4 40.2L42.2 41L41.6 40.6L40.6 41.2L41.2 40.4L41 39.8ZM33.4 56.2V58.2L32 57L30 58.4L31 56.2L30 55L31.8 54.6L33.2 52.6V54.6H35L33.4 56.2ZM34.6 48.2L34.8 46.8L34 46.6L35.4 46L36 44.4L36.6 45.4L37.6 45.2L36.8 46.2L37 47.4L35.8 47L34.6 48.2ZM41 65.8L39.2 64.2L37 65.4L38 63.2L36.4 61.6H39L40.2 59.6L40.6 62L43.2 62.4L41 63.4V65.8ZM41.6 51.6L39.4 54.4L40 51L37.8 50.4L40.6 49L41.4 46L42.6 48.2L45.2 47.4L43.4 49.8L44.4 52.4L41.6 51.6ZM44.2 69.8L49 30.8C49 30.8 49 30.6 49.2 30.8V70L44.2 69.8ZM69.6 46C67 56.2 54.8 62.4 54.8 62.4L55.4 67.2C55 68 50.4 69.6 50.4 69.6V30.4C50.4 29.6 50.6 30.2 50.6 30.2L54.2 59.6C57 58.4 61.2 53.8 61.2 53.8C67 48 65.2 40.6 65.2 40.6C62.8 33.2 53.2 34.2 53.2 34.2C60.8 32.4 64.8 35 64.8 35C72 38.4 69.6 46 69.6 46Z" fill="#0045FF"/>
</svg>
