<svg width="90" height="90" viewBox="0 0 90 90" fill="none" xmlns="http://www.w3.org/2000/svg">
<rect width="90" height="90" rx="12" fill="#0045FF"/>
<path d="M47.6902 35.8292C47.6462 35.8072 47.5771 35.76 47.5048 35.7349C47.3046 35.6373 47.0868 35.5809 46.8644 35.569C46.642 35.5571 46.4194 35.5899 46.2099 35.6655C46.0004 35.7411 45.8082 35.858 45.6446 36.0092C45.4811 36.1604 45.3495 36.3428 45.2577 36.5458L41.6277 43.5449C41.3927 43.9954 41.3288 44.5158 41.4478 45.0098C41.5668 45.5038 41.8607 45.938 42.2751 46.232C42.3222 46.254 42.3914 46.3012 42.4637 46.3232C42.8715 46.5071 43.3334 46.5318 43.7585 46.3923C44.173 46.2383 44.5127 45.9312 44.7077 45.5343L48.3628 38.5163C48.5994 38.0638 48.6617 37.5402 48.5377 37.0448C48.4137 36.5495 48.1121 36.1169 47.6902 35.8292ZM37.0862 36.1089C36.754 35.7964 36.3151 35.6225 35.859 35.6225C35.4028 35.6225 34.9639 35.7964 34.6317 36.1089L30.8571 39.8363C30.7016 39.9943 30.5789 40.1813 30.4958 40.3867C30.4128 40.5922 30.3711 40.812 30.3731 41.0336C30.3752 41.2552 30.4209 41.4742 30.5077 41.6781C30.5946 41.882 30.7208 42.0667 30.8791 42.2218L34.6505 45.9492C34.966 46.263 35.3904 46.443 35.8354 46.4518C36.2803 46.4606 36.7114 46.2974 37.0391 45.9963L37.1082 45.9272C37.2642 45.7692 37.3873 45.582 37.4707 45.3762C37.554 45.1705 37.5958 44.9503 37.5938 44.7283C37.5917 44.5064 37.5459 44.287 37.4587 44.0828C37.3716 43.8786 37.245 43.6937 37.0862 43.5386L34.5405 41.018L37.1082 38.4723C37.2634 38.3165 37.3861 38.1314 37.4691 37.9277C37.552 37.724 37.5937 37.5059 37.5917 37.286C37.5896 37.0661 37.5439 36.8488 37.4571 36.6467C37.3704 36.4446 37.2443 36.2618 37.0862 36.1089ZM59.5954 41.018C59.5954 40.578 59.4068 40.138 59.0862 39.8363L55.3085 36.1058C55.1462 35.9472 54.9539 35.8225 54.743 35.7389C54.532 35.6552 54.3066 35.6144 54.0797 35.6186C53.6233 35.6153 53.1836 35.7901 52.854 36.1058L52.8288 36.1278C52.6736 36.2859 52.551 36.4731 52.4683 36.6787C52.3855 36.8842 52.3441 37.1041 52.3464 37.3257C52.3487 37.5473 52.3948 37.7662 52.4819 37.97C52.569 38.1738 52.6954 38.3584 52.854 38.5132L55.3997 41.0369L52.8288 43.5826C52.6731 43.7408 52.5502 43.9282 52.4671 44.1341C52.384 44.3399 52.3425 44.5602 52.3448 44.7821C52.3472 45.0041 52.3933 45.2234 52.4807 45.4275C52.5681 45.6315 52.6949 45.8163 52.854 45.9712C53.5234 46.6406 54.614 46.6406 55.2834 45.9712L59.058 42.2406L59.1271 42.2658L59.0831 42.2186C59.244 42.0621 59.372 41.875 59.4594 41.6682C59.5469 41.4615 59.592 41.2394 59.5922 41.0149L59.5954 41.018Z" fill="white"/>
<path d="M66.9372 53.8691V28.2108C66.9372 26.2183 65.3155 24.5966 63.3229 24.5966H26.6395C24.6501 24.5966 23.0315 26.2183 23.0315 28.2108V53.8691C23.0315 55.8617 24.6532 57.4834 26.6458 57.4834H43.2024V61.2548H33.9812C33.5211 61.2742 33.0863 61.4705 32.7676 61.8029C32.4489 62.1353 32.271 62.5779 32.271 63.0384C32.271 63.4989 32.4489 63.9416 32.7676 64.2739C33.0863 64.6063 33.5211 64.8027 33.9812 64.822H55.9812C56.4355 64.795 56.8624 64.5955 57.1745 64.2643C57.4866 63.933 57.6605 63.4951 57.6605 63.04C57.6605 62.5849 57.4866 62.1469 57.1745 61.8157C56.8624 61.4845 56.4355 61.285 55.9812 61.258H46.7664V57.4834H63.3229C65.3155 57.4834 66.9372 55.8617 66.9372 53.8691ZM61.4686 53.9163H28.4969C27.9942 53.9138 27.5128 53.713 27.1574 53.3575C26.8019 53.0021 26.6011 52.5207 26.5986 52.018V30.018C26.5986 28.9746 27.4535 28.1166 28.4969 28.1166H61.4969C62.5404 28.1166 63.3952 28.9746 63.3952 30.018V52.018C63.3919 52.5242 63.1878 53.0085 62.8278 53.3644C62.4677 53.7203 61.9812 53.9188 61.4749 53.9163H61.4686Z" fill="white"/>
</svg>
