<svg width="80" height="80" viewBox="0 0 80 80" fill="none" xmlns="http://www.w3.org/2000/svg">
<circle cx="40" cy="40" r="40" fill="white"/>
<circle cx="40" cy="40" r="39.5" stroke="black" stroke-opacity="0.03"/>
<path d="M40 15C26.1928 15 15 26.1929 15 40C15 53.8072 26.1928 65 40 65C53.8072 65 65 53.8072 65 40C65 26.1929 53.8072 15 40 15ZM45.7995 48.7306C44.7518 49.8953 43.3897 50.6142 41.7147 50.8876V53.6531C41.7147 53.8 41.6674 53.9217 41.5724 54.0164C41.4776 54.1114 41.3561 54.1587 41.2091 54.1587H39.0757C38.9383 54.1587 38.8197 54.1081 38.7202 54.0086C38.6207 53.909 38.57 53.7905 38.57 53.6531V50.8876C37.8749 50.7929 37.2032 50.6301 36.5553 50.3979C35.9075 50.1655 35.3734 49.9317 34.9515 49.6946C34.5296 49.4576 34.1408 49.2046 33.7821 48.9362C33.4234 48.6675 33.1785 48.47 33.0473 48.3436C32.9161 48.217 32.823 48.1224 32.7708 48.059C32.5921 47.838 32.5812 47.6213 32.7392 47.4111L34.3667 45.2779C34.441 45.1721 34.5612 45.1088 34.7301 45.0883C34.8882 45.0677 35.0145 45.1151 35.1095 45.2306L35.1411 45.2622C36.331 46.3051 37.611 46.964 38.9811 47.2374C39.3713 47.321 39.76 47.3638 40.1504 47.3638C41.0038 47.3638 41.7543 47.1377 42.4021 46.6843C43.0502 46.2308 43.374 45.5891 43.374 44.7564C43.374 44.4609 43.295 44.1829 43.137 43.9189C42.979 43.6551 42.802 43.4337 42.6077 43.2553C42.4133 43.0767 42.1051 42.8792 41.6832 42.6627C41.2613 42.4461 40.9136 42.2787 40.6403 42.157C40.3668 42.0354 39.9449 41.8648 39.376 41.6435C39.0528 41.5101 38.7288 41.3785 38.4042 41.2485C38.1672 41.1537 37.8432 41.0145 37.4325 40.8296C37.0216 40.6447 36.6928 40.4821 36.4449 40.3398C36.1967 40.1974 35.8997 40.0111 35.552 39.7789C35.2043 39.5466 34.923 39.3238 34.7067 39.1073C34.4902 38.8908 34.2609 38.6332 34.0192 38.3329C33.7774 38.0328 33.5894 37.7277 33.4583 37.4164C33.3271 37.1052 33.2164 36.7559 33.1265 36.3655C33.0364 35.9752 32.9921 35.5644 32.9921 35.1329C32.9921 33.6791 33.5089 32.404 34.5406 31.3088C35.5726 30.2138 36.9157 29.5075 38.5702 29.1914V26.3471C38.5702 26.2095 38.6208 26.0911 38.7204 25.9916C38.8199 25.8921 38.9384 25.8414 39.0758 25.8414H41.2092C41.3562 25.8414 41.4778 25.8887 41.5725 25.9837C41.6674 26.0784 41.7148 26.2 41.7148 26.3471V29.1282C42.3076 29.1901 42.8926 29.3119 43.4609 29.4916C44.025 29.6703 44.4833 29.8471 44.8357 30.0211C45.1848 30.1927 45.5202 30.3908 45.839 30.6136C46.1551 30.8348 46.3607 30.9881 46.4554 31.0718C46.5366 31.1432 46.6157 31.217 46.6924 31.2932C46.871 31.4828 46.8979 31.6834 46.7714 31.8936L45.4916 34.2008C45.4078 34.3588 45.286 34.4425 45.128 34.4535C44.9811 34.4852 44.8388 34.4487 44.7015 34.3428C44.6697 34.3112 44.5938 34.2482 44.4723 34.1532C44.3505 34.0584 44.145 33.9194 43.8559 33.7345C43.5667 33.5496 43.2586 33.382 42.9315 33.2288C42.6043 33.0755 42.2126 32.9396 41.7543 32.818C41.296 32.6963 40.8456 32.6362 40.4032 32.6362C39.4029 32.6362 38.5859 32.8622 37.9539 33.3157C37.3218 33.7693 37.0057 34.354 37.0057 35.0699C37.0057 35.3432 37.05 35.5961 37.14 35.8284C37.2301 36.0606 37.3848 36.2786 37.6061 36.484C37.8274 36.6896 38.0359 36.8634 38.2304 37.0056C38.4247 37.1478 38.7202 37.3106 39.1152 37.4955C39.5103 37.6804 39.8296 37.8227 40.0713 37.9221C40.3131 38.0216 40.6829 38.1671 41.1775 38.3567C41.7354 38.5668 42.162 38.7328 42.4575 38.8543C42.7531 38.9761 43.1527 39.1594 43.6584 39.4074C44.1641 39.6556 44.5622 39.8784 44.8515 40.079C45.1406 40.2798 45.4678 40.5421 45.8312 40.8691C46.1945 41.1962 46.4743 41.5297 46.6686 41.8726C46.8631 42.2155 47.029 42.6184 47.1664 43.0813C47.304 43.5444 47.3719 44.0405 47.3719 44.5668C47.3719 46.1787 46.8473 47.5661 45.7995 48.7306Z" fill="#0045FF"/>
</svg>
