<svg width="90" height="90" viewBox="0 0 90 90" fill="none" xmlns="http://www.w3.org/2000/svg">
<rect width="90" height="90" rx="16" fill="#0045FF"/>
<path d="M46.1794 30.1501C45.7305 30.1501 45.3001 30.324 44.9827 30.6334C44.6654 30.9429 44.4871 31.3625 44.4871 31.8001C44.4871 32.2378 44.6654 32.6574 44.9827 32.9669C45.3001 33.2763 45.7305 33.4501 46.1794 33.4501C46.9942 33.4501 47.8011 33.6066 48.554 33.9107C49.3068 34.2147 49.9909 34.6604 50.5671 35.2222C51.1433 35.7839 51.6003 36.4509 51.9122 37.1849C52.224 37.9189 52.3845 38.7056 52.3845 39.5001C52.3845 39.9378 52.5628 40.3574 52.8802 40.6669C53.1975 40.9763 53.628 41.1501 54.0768 41.1501C54.5256 41.1501 54.9561 40.9763 55.2734 40.6669C55.5908 40.3574 55.7691 39.9378 55.7691 39.5001C55.7691 38.2723 55.5211 37.0565 55.0391 35.9221C54.5572 34.7877 53.8508 33.7569 52.9603 32.8887C52.0698 32.0205 51.0127 31.3318 49.8492 30.8619C48.6857 30.392 47.4387 30.1501 46.1794 30.1501Z" fill="white"/>
<path d="M54.6072 55.648V58.2C54.6072 58.7835 54.3695 59.3431 53.9463 59.7556C53.5231 60.1682 52.9492 60.4 52.3508 60.4H37.7518C37.1534 60.4 36.5794 60.1682 36.1563 59.7556C35.7331 59.3431 35.4954 58.7835 35.4954 58.2V55.648C32.8919 54.057 30.7463 51.8466 29.2601 49.2246C27.774 46.6026 26.9963 43.6551 27 40.6594C27 30.9068 35.0825 23 45.0513 23C55.0201 23 63.1026 30.9068 63.1026 40.6616C63.1059 43.657 62.328 46.604 60.8419 49.2256C59.3558 51.8472 57.2103 54.0572 54.6072 55.648ZM51.2226 53.822L52.8088 52.8518C54.9263 51.558 56.6715 49.7603 57.8801 47.6278C59.0888 45.4953 59.7212 43.0981 59.7179 40.6616C59.7179 32.7196 53.1405 26.3 45.0513 26.3C36.9621 26.3 30.3846 32.7196 30.3846 40.6616C30.3817 43.0977 31.0143 45.4945 32.223 47.6266C33.4316 49.7586 35.1766 51.556 37.2938 52.8496L38.88 53.822V57.1H51.2226V53.822ZM35.4615 65.35C35.4615 64.9124 35.6398 64.4927 35.9572 64.1833C36.2746 63.8738 36.705 63.7 37.1539 63.7H52.9487C53.3976 63.7 53.828 63.8738 54.1454 64.1833C54.4627 64.4927 54.641 64.9124 54.641 65.35C54.641 65.7876 54.4627 66.2073 54.1454 66.5167C53.828 66.8262 53.3976 67 52.9487 67H37.1539C36.705 67 36.2746 66.8262 35.9572 66.5167C35.6398 66.2073 35.4615 65.7876 35.4615 65.35Z" fill="white"/>
</svg>
