<svg width="100" height="100" viewBox="0 0 100 100" fill="none" xmlns="http://www.w3.org/2000/svg">
<rect opacity="0.1" width="100" height="100" rx="50" fill="white"/>
<path d="M73.9565 35.9321L38.7974 28.0584C37.4485 27.7574 36.1053 28.649 35.8101 30.05L33.9517 38.9483H67.7387C69.3134 38.9483 70.5987 40.2799 70.5987 41.9125V61.5329C71.0329 61.1739 71.3571 60.6644 71.4845 60.0623L75.8844 39.0294C76.1739 37.6284 75.3055 36.2331 73.9565 35.9321V35.9321Z" fill="white"/>
<path d="M66.2975 40.4766H26.5647C25.1521 40.4766 24 41.6692 24 43.1282V47.6034H68.8622V43.1282C68.8622 41.6692 67.7043 40.4766 66.2975 40.4766ZM24 69.3484C24 70.8074 25.1521 72 26.5647 72H66.2975C67.7101 72 68.8622 70.8074 68.8622 69.3484V51.1118H24V69.3484ZM54.7244 67.2758L55.6218 63.5011C55.6797 63.258 55.8881 63.0901 56.1313 63.0901H63.2696C63.6112 63.0901 63.8601 63.4201 63.7791 63.7617L62.8817 67.5364C62.8238 67.7795 62.6154 67.9474 62.3723 67.9474H55.2339C54.8923 67.9474 54.6434 67.6174 54.7244 67.2758ZM34.3862 66.3206C34.3862 66.0369 34.612 65.7995 34.8899 65.7995H39.6256C39.9035 65.7995 40.1293 66.0311 40.1293 66.3206V67.4264C40.1293 67.71 39.9035 67.9474 39.6256 67.9474H34.8899C34.612 67.9474 34.3862 67.7158 34.3862 67.4264V66.3206ZM26.4142 66.5232C26.4142 66.1237 26.7268 65.8053 27.1089 65.8053H31.4568C31.8389 65.8053 32.1515 66.1295 32.1515 66.5232V67.2295C32.1515 67.629 31.8389 67.9474 31.4568 67.9474H27.1089C26.7268 67.9474 26.4142 67.6232 26.4142 67.2295V66.5232Z" fill="white"/>
</svg>
