<svg width="100" height="100" viewBox="0 0 100 100" fill="none" xmlns="http://www.w3.org/2000/svg">
<rect x="0.5" y="0.5" width="99" height="99" rx="49.5" stroke="black" stroke-opacity="0.05"/>
<path d="M69.8549 42.4977C69.8867 45.1098 69.3997 47.7022 68.4221 50.1246C67.4445 52.5471 65.9958 54.7513 64.16 56.6097C62.3241 58.468 60.1376 59.9435 57.7273 60.9505C55.3169 61.9575 52.7306 62.476 50.1184 62.476C47.5061 62.476 44.9199 61.9575 42.5095 60.9505C40.0992 59.9435 37.9127 58.468 36.0768 56.6097C34.2409 54.7513 32.7922 52.5471 31.8146 50.1246C30.837 47.7022 30.35 45.1098 30.3818 42.4977C30.4451 37.3049 32.5523 32.3462 36.2467 28.6964C39.9412 25.0467 44.9252 23 50.1184 23C55.3116 23 60.2956 25.0467 63.9901 28.6964C67.6845 32.3462 69.7917 37.3049 69.8549 42.4977V42.4977Z" fill="#003FFA"/>
<path d="M48.7509 33.0061C48.8766 32.7506 49.0713 32.5354 49.313 32.385C49.5547 32.2345 49.8337 32.1548 50.1184 32.1548C50.4031 32.1548 50.6821 32.2345 50.9238 32.385C51.1655 32.5354 51.3602 32.7506 51.4858 33.0061L53.6445 37.376C53.7539 37.5971 53.9155 37.7882 54.1152 37.9329C54.315 38.0777 54.5469 38.1716 54.7911 38.2067L59.6203 38.9087C59.9014 38.9492 60.1655 39.0675 60.3828 39.2503C60.6002 39.4331 60.762 39.6731 60.8499 39.9431C60.9379 40.2131 60.9485 40.5023 60.8806 40.778C60.8127 41.0538 60.6689 41.305 60.4656 41.5032L56.9702 44.9021C56.7935 45.074 56.6613 45.2863 56.5848 45.5207C56.5084 45.7551 56.4901 46.0046 56.5315 46.2476L57.3563 51.0505C57.4044 51.3304 57.3731 51.6181 57.2661 51.8812C57.1591 52.1442 56.9805 52.372 56.7507 52.5389C56.5209 52.7057 56.249 52.8048 55.9657 52.8251C55.6824 52.8453 55.3992 52.7858 55.1479 52.6534L50.8277 50.3865C50.609 50.2715 50.3655 50.2114 50.1184 50.2114C49.8712 50.2114 49.6278 50.2715 49.4091 50.3865L45.0888 52.6534C44.8376 52.7858 44.5543 52.8453 44.2711 52.8251C43.9878 52.8048 43.7159 52.7057 43.486 52.5389C43.2562 52.372 43.0777 52.1442 42.9707 51.8812C42.8636 51.6181 42.8324 51.3304 42.8804 51.0505L43.7053 46.2476C43.7467 46.0046 43.7284 45.7551 43.6519 45.5207C43.5755 45.2863 43.4432 45.074 43.2665 44.9021L39.7711 41.5032C39.5678 41.305 39.4241 41.0538 39.3562 40.778C39.2882 40.5023 39.2989 40.2131 39.3868 39.9431C39.4748 39.6731 39.6366 39.4331 39.8539 39.2503C40.0712 39.0675 40.3354 38.9492 40.6165 38.9087L45.4427 38.2067C45.6874 38.1721 45.92 38.0783 46.1203 37.9336C46.3206 37.7888 46.4826 37.5975 46.5923 37.376L48.7509 33.0061V33.0061Z" fill="white"/>
<path d="M30.3731 55.1279L24.1545 68.4631C24.0207 68.7491 23.9723 69.0677 24.0151 69.3806C24.0579 69.6934 24.1901 69.9873 24.3957 70.2269C24.6014 70.4666 24.8718 70.6418 25.1746 70.7315C25.4773 70.8212 25.7996 70.8217 26.1026 70.7329L32.7102 68.7965C33.5 68.5625 34.3424 68.9574 34.6729 69.7121L37.4399 76.0184C37.567 76.3071 37.7746 76.5531 38.0378 76.7269C38.3011 76.9007 38.6088 76.995 38.9243 76.9984C39.2397 77.0018 39.5494 76.9142 39.8163 76.7461C40.0833 76.578 40.2961 76.3365 40.4293 76.0506L45.3521 65.4942C42.2915 64.8491 39.3903 63.6 36.8183 61.8201C34.2463 60.0401 32.0551 57.765 30.3731 55.1279V55.1279ZM55.0222 65.4942L59.945 76.0535C60.0785 76.3393 60.2916 76.5806 60.5587 76.7484C60.8258 76.9163 61.1356 77.0036 61.451 76.9999C61.7665 76.9961 62.0741 76.9016 62.3372 76.7275C62.6003 76.5535 62.8076 76.3073 62.9344 76.0184L65.6985 69.7121C65.8588 69.3465 66.1468 69.0519 66.5086 68.8834C66.8704 68.7149 67.2812 68.684 67.6641 68.7965L74.2718 70.7329C74.5748 70.8217 74.897 70.8212 75.1998 70.7315C75.5025 70.6418 75.773 70.4666 75.9786 70.2269C76.1843 69.9873 76.3164 69.6934 76.3592 69.3806C76.402 69.0677 76.3536 68.7491 76.2198 68.4631L70.0012 55.1309C68.3189 57.7674 66.1276 60.0419 63.5556 61.8214C60.9837 63.6008 58.0826 64.8495 55.0222 65.4942V65.4942Z" fill="#003FFA"/>
</svg>
