<svg width="80" height="80" viewBox="0 0 80 80" fill="none" xmlns="http://www.w3.org/2000/svg">
<circle cx="40" cy="40" r="40" fill="white"/>
<circle cx="40" cy="40" r="39.5" stroke="black" stroke-opacity="0.03"/>
<path d="M21.16 21.55H35.26C36.7 21.55 37.42 22.27 37.42 23.71V37.81C37.42 39.25 36.7 39.97 35.26 39.97H21.16C19.72 39.97 19 39.25 19 37.81V23.71C19 22.27 19.72 21.55 21.16 21.55ZM21.16 42.22H35.26C36.7 42.22 37.42 42.9401 37.42 44.3801V58.4801C37.42 59.9201 36.7 60.6401 35.26 60.6401H21.16C19.72 60.6101 19 59.9201 19 58.4801V44.3801C19 42.9401 19.72 42.22 21.16 42.22ZM42.19 42.61H56.29C57.73 42.61 58.45 43.33 58.45 44.7701V58.8701C58.45 60.3101 57.73 61.0301 56.29 61.0301H42.19C40.75 61.0301 40.03 60.3101 40.03 58.8701V44.7701C40.03 43.3001 40.75 42.61 42.19 42.61Z" fill="#0045FF"/>
<path d="M52.1801 19.6126L60.2801 27.7126C61.2401 28.6726 61.2401 30.2626 60.2801 31.2226L52.1801 39.3226C51.2201 40.2826 49.6301 40.2826 48.6701 39.3226L40.5701 31.2226C40.1087 30.755 39.8501 30.1245 39.8501 29.4676C39.8501 28.8107 40.1087 28.1803 40.5701 27.7126L48.6701 19.6126C49.6301 18.6226 51.1901 18.6226 52.1801 19.6126Z" fill="#0045FF"/>
</svg>
