<svg width="90" height="90" viewBox="0 0 90 90" fill="none" xmlns="http://www.w3.org/2000/svg">
<rect width="90" height="90" rx="12" fill="#0045FF"/>
<path d="M45.4574 24.7618C46.2604 24.7618 46.8627 24.9195 47.1399 25.0582L63.3774 33.1793L47.1399 41.2956C46.8675 41.4342 46.2652 41.592 45.4574 41.592C44.6544 41.592 44.0521 41.4342 43.7749 41.2956L27.5326 33.1793L43.7749 25.0582C44.0521 24.9195 44.6544 24.7618 45.4574 24.7618ZM45.4574 21C44.2385 21 43.0196 21.2294 42.0923 21.6931L22.485 31.4967C20.6352 32.4241 20.6352 33.9345 22.485 34.8618L42.0876 44.6655C43.0149 45.1291 44.2337 45.3586 45.4526 45.3586C46.6715 45.3586 47.8904 45.1291 48.8177 44.6655L68.4202 34.8618C70.2701 33.9345 70.2701 32.4241 68.4202 31.4967L48.8225 21.6931C47.8952 21.2294 46.6763 21 45.4574 21Z" fill="white"/>
<path d="M45.4573 57.3132C43.9516 57.3132 42.4507 57.012 41.2509 56.4145L22.0404 46.8116C21.1083 46.348 20.7354 45.2151 21.1991 44.283C21.6628 43.351 22.7956 42.9781 23.7229 43.4418L42.9335 53.0494C44.2575 53.7139 46.657 53.7139 47.9811 53.0494L67.1869 43.4418C68.1189 42.9781 69.247 43.3557 69.7107 44.283C70.1743 45.2151 69.7967 46.3432 68.8694 46.8068L49.6636 56.4145C48.3491 57.0264 46.9104 57.3323 45.4573 57.3132Z" fill="white"/>
<path d="M45.4573 68.9999C43.9516 68.9999 42.4507 68.6988 41.2509 68.1013L22.0451 58.4936C21.1131 58.0299 20.7354 56.9019 21.2039 55.9746C21.6723 55.0473 22.7956 54.6744 23.7277 55.1333L42.9335 64.7362C44.2575 65.4006 46.657 65.4006 47.9811 64.7362L67.1869 55.1333C68.119 54.6696 69.247 55.0473 69.7107 55.9746C70.1743 56.9067 69.7967 58.0347 68.8694 58.4984L49.6636 68.0965C48.4639 68.6988 46.963 68.9999 45.4573 68.9999Z" fill="white"/>
</svg>
