<svg width="80" height="80" viewBox="0 0 80 80" fill="none" xmlns="http://www.w3.org/2000/svg">
<circle cx="40" cy="40" r="40" fill="white"/>
<circle cx="40" cy="40" r="39.5" stroke="black" stroke-opacity="0.03"/>
<g clip-path="url(#clip0_14_363)">
<path d="M56.6368 31.9716C55.4547 32.1749 54.3503 32.6961 53.4418 33.4792C52.5333 34.2624 51.8551 35.2779 51.4797 36.4171C51.1969 37.3013 50.6997 38.1018 50.0324 38.7472C49.3651 39.3925 48.5485 39.8627 47.6553 40.1159L44.9589 40.8641C43.8578 41.1709 42.6892 41.1332 41.6102 40.7558C40.5312 40.3785 39.5937 39.6797 38.9238 38.7535L38.9026 38.7253C37.6546 36.9917 37.5473 34.716 38.5567 32.8341C39.4789 31.119 39.8818 29.1724 39.7164 27.2321C39.5509 25.2918 38.8242 23.4416 37.625 21.9073C34.3088 17.6481 28.117 16.7305 23.6968 19.8504C22.5921 20.6239 21.6544 21.6118 20.9397 22.7554C20.225 23.899 19.7479 25.1748 19.5369 26.5068C19.3258 27.8387 19.3851 29.1995 19.7113 30.508C20.0374 31.8165 20.6237 33.046 21.4352 34.1231C22.5591 35.6122 24.0697 36.7646 25.8028 37.4551C27.5359 38.1455 29.4252 38.3476 31.2651 38.0392C33.387 37.6863 35.5286 38.5192 36.7779 40.2542L37.2368 40.8895C37.8154 41.6912 38.1674 42.634 38.2556 43.6188C38.3438 44.6035 38.1649 45.5939 37.7379 46.4856L36.5492 48.9688C36.1827 49.7439 35.6397 50.4224 34.9638 50.95C34.288 51.4775 33.498 51.8395 32.6571 52.0069C31.4846 52.229 30.3943 52.7646 29.5019 53.5568C28.6095 54.349 27.9484 55.3682 27.589 56.5061C26.5725 59.7178 28.2101 63.2175 31.3357 64.5247C34.8255 65.9831 38.8038 64.2593 40.1195 60.7738C40.4831 59.8127 40.6147 58.7794 40.5035 57.758C40.3924 56.7365 40.0417 55.7557 39.48 54.8953C38.9757 54.1096 38.6817 53.2075 38.6263 52.2755C38.5709 51.3435 38.756 50.413 39.1638 49.5731L40.5049 46.7778C40.8487 46.0619 41.3418 45.428 41.9511 44.9185C42.5603 44.4091 43.2716 44.0361 44.0371 43.8245L48.5645 42.5666C50.3094 42.0824 52.2025 42.4255 53.6115 43.5577C54.3784 44.1743 55.2724 44.6133 56.2293 44.843C57.1862 45.0727 58.1822 45.0874 59.1454 44.8861C62.8103 44.1224 65.1284 40.4857 64.2093 36.8435C63.3722 33.5202 60.0362 31.373 56.6368 31.9702" fill="#0045FF"/>
</g>
<defs>
<clipPath id="clip0_14_363">
<rect width="48" height="48" fill="white" transform="translate(18 18)"/>
</clipPath>
</defs>
</svg>
