<svg width="100" height="100" viewBox="0 0 100 100" fill="none" xmlns="http://www.w3.org/2000/svg">
<rect x="0.5" y="0.5" width="99" height="99" rx="49.5" stroke="black" stroke-opacity="0.05"/>
<path d="M47.8723 68.4921C48.091 67.9764 48.3421 67.4877 48.5068 66.972C49.2952 64.5069 47.7886 61.8555 45.2857 61.2372C45.0724 61.1859 44.8429 61.0266 44.7133 60.8484C44.176 60.1086 43.5037 59.5686 42.6505 59.2311C42.4885 59.1663 42.3157 58.9908 42.2563 58.8288C41.7595 57.5058 40.8658 56.6067 39.5374 56.118C39.3754 56.0586 39.2107 55.8777 39.1459 55.7157C38.0362 52.8834 34.5775 51.8223 32.1664 53.6448C31.5049 54.147 30.9298 54.8166 30.4627 55.5078C29.9092 56.3286 29.2504 56.6742 28.2811 56.5176C27.9355 56.4636 27.571 56.4933 27.2173 56.5122C26.4694 56.55 25.6594 55.8372 25.6675 54.9273C25.7107 49.7784 25.6891 44.6295 25.6891 39.4806C25.6891 38.4492 26.0914 38.0469 27.1255 38.0469H35.0743C35.7196 38.0469 35.9113 38.3466 35.6035 38.9325C35.1283 39.8343 34.9501 40.7874 35.1283 41.7837C35.3713 43.1418 36.1975 44.0895 37.4314 44.616C39.5806 45.5313 41.7541 45.507 43.8412 44.4243C45.9013 43.3578 47.9182 42.2076 49.954 41.0952C50.4643 40.8171 50.5777 40.8414 50.9503 41.2977C55.0705 46.3224 59.1988 51.3417 63.3082 56.3745C63.9373 57.144 64.5151 57.9621 65.074 58.7856C65.7787 59.8278 65.5924 61.167 64.6744 62.0283C63.7969 62.8491 62.4226 62.9058 61.4371 62.1579C61.3075 62.0607 61.1833 61.9581 60.9943 61.8096C61.0402 63.0813 60.6352 64.0776 59.4661 64.5717C58.3294 65.0523 57.3034 64.7472 56.3854 63.8805C56.4394 65.1279 56.0695 66.1134 54.9112 66.621C53.7691 67.1205 52.7593 66.7938 51.8116 65.9325C51.8818 67.2366 51.4444 68.1951 50.2753 68.7081C49.441 69.078 48.631 68.9673 47.8723 68.4921V68.4921Z" fill="#0045FF"/>
<path d="M74.47 45.9012V53.8905C74.47 54.7977 74.0245 55.2378 73.1092 55.2405C72.4126 55.2432 71.7133 55.2783 71.0194 55.2324C70.1311 55.173 69.3913 55.4349 68.7433 56.0397C68.3356 56.4204 68.2465 56.3907 67.8955 55.9587C62.8411 49.7784 57.7894 43.5981 52.735 37.4151C52.1437 36.6915 51.5524 36.5727 50.7181 37.0344C48.4582 38.2791 46.201 39.5292 43.9465 40.7766C42.4534 41.6028 40.9063 41.7594 39.2944 41.1654C38.6761 40.9386 38.2738 40.5174 38.2036 39.8586C38.1388 39.2214 38.3089 38.6787 38.8759 38.2548C41.5165 36.273 44.1328 34.2561 46.768 32.2662C49.3924 30.2844 52.2517 29.9199 55.3108 31.0836C59.4931 32.6766 63.6754 34.2669 67.8469 35.8896C69.1672 36.4026 70.5118 36.6672 71.9212 36.6321C72.3721 36.6213 72.823 36.6294 73.2739 36.6321C74.0299 36.6348 74.4673 37.0668 74.4673 37.8282C74.4727 40.5228 74.47 43.212 74.47 45.9012V45.9012ZM40.9954 67.2663C40.1503 67.6875 39.3538 67.701 38.56 67.1394C37.7824 66.5859 37.5016 65.8299 37.5367 64.8525C36.6079 65.2602 35.7493 65.2926 34.9339 64.7148C34.1212 64.1397 33.8161 63.3459 33.9511 62.3226C33.7594 62.3847 33.646 62.4198 33.5353 62.4576C32.1313 62.9328 30.595 62.0121 30.3601 60.5487C30.2737 60.0087 30.4006 59.4984 30.7246 59.0772C31.3807 58.2213 32.0449 57.3708 32.7604 56.5662C33.3598 55.8939 34.159 55.7481 35.0122 55.9992C36.3244 56.3853 36.8455 57.5193 36.3136 58.7748C36.2731 58.8693 36.3001 58.9935 36.2947 59.1042C36.4081 59.0961 36.5323 59.1123 36.6376 59.0772C37.7932 58.6722 38.8786 59.0853 39.4024 60.1437C39.6481 60.6432 39.667 61.1616 39.5212 61.6962C39.4078 62.112 39.5104 62.2416 39.9046 62.1093C41.1196 61.7016 42.5506 62.7195 42.6208 64.0344C42.6262 64.1154 42.6532 64.1937 42.6775 64.3071C42.9043 64.2558 43.123 64.1991 43.3444 64.1613C44.2111 64.0101 44.9077 64.326 45.4261 65.0037C45.9715 65.7165 46.0309 66.5022 45.6367 67.3149C45.2263 68.1654 44.6998 68.8917 43.6927 69.0861C42.6208 69.2913 41.4841 68.6298 41.1277 67.6011C41.0926 67.4985 41.0494 67.3986 40.9954 67.2663V67.2663Z" fill="#0045FF"/>
<path d="M65.074 58.7857C64.5151 57.9595 63.9373 57.1441 63.3082 56.3746C59.1988 51.3418 55.0705 46.3225 50.9503 41.2978C50.575 40.8415 50.4643 40.8172 49.954 41.0953C47.9182 42.2077 45.9013 43.3579 43.8412 44.4244C43.2942 44.7088 42.715 44.9264 42.1159 45.0724C40.3393 46.5898 38.209 49.1332 35.6899 52.8214C37.1803 53.1076 38.5276 54.1336 39.1459 55.7131C39.2107 55.8778 39.3781 56.056 39.5374 56.1154C40.8658 56.6041 41.7595 57.5059 42.2563 58.8262C42.3184 58.9909 42.4885 59.1664 42.6505 59.2285C43.501 59.566 44.176 60.106 44.7133 60.8458C44.8429 61.024 45.0724 61.1806 45.2857 61.2346C47.7886 61.8529 49.2952 64.507 48.5068 66.9694C48.3421 67.4851 48.091 67.9738 47.8723 68.4895C48.631 68.9647 49.4383 69.0754 50.278 68.7082C51.4444 68.1952 51.8845 67.2394 51.8143 65.9326C52.762 66.7939 53.7718 67.1206 54.9139 66.6211C56.0722 66.1135 56.4421 65.128 56.3881 63.8806C57.3061 64.7473 58.3294 65.0524 59.4688 64.5718C60.6379 64.0777 61.0429 63.0787 60.997 61.8097C61.186 61.9582 61.3102 62.0608 61.4398 62.158C62.4253 62.9032 63.7996 62.8492 64.6771 62.0284C65.5924 61.1671 65.7787 59.8279 65.074 58.7857ZM39.2971 41.1682C40.909 41.7622 42.4561 41.6056 43.9492 40.7794C45.6475 39.8371 47.3485 38.9002 49.0468 37.9606C46.0849 36.5755 42.4075 36.7186 42.4075 36.7186H40.9117C40.234 37.2316 39.559 37.7473 38.8786 38.2576C38.3143 38.6815 38.1415 39.2242 38.2063 39.8614C38.2765 40.5175 38.6788 40.9387 39.2971 41.1682V41.1682Z" fill="#0045FF"/>
<path d="M45.2641 67.9765C45.4018 67.7713 45.5233 67.5499 45.6367 67.315C46.0282 66.5023 45.9715 65.7166 45.4261 65.0038C44.9077 64.3261 44.2111 64.0102 43.3444 64.1614C43.123 64.1992 42.907 64.2559 42.6775 64.3072C42.6532 64.1938 42.6235 64.1155 42.6208 64.0345C42.5533 62.7196 41.1223 61.7017 39.9046 62.1094C39.5104 62.2417 39.4078 62.1121 39.5212 61.6963C39.667 61.1617 39.6481 60.6433 39.4024 60.1438C38.8786 59.0827 37.7932 58.6696 36.6376 59.0773C36.5323 59.1151 36.4108 59.0962 36.2947 59.1043C36.3001 58.9936 36.2731 58.8721 36.3136 58.7776C36.8455 57.5248 36.3244 56.3881 35.0122 56.002C34.159 55.7509 33.3598 55.8967 32.7604 56.569C32.3716 57.0064 31.999 57.4573 31.6318 57.9136C33.7432 58.9072 38.0065 61.4614 45.2641 67.9765Z" fill="#0045FF"/>
</svg>
