<?xml version="1.0" encoding="UTF-8"?>
<svg width="60px" height="90px" viewBox="0 0 60 90" version="1.1" xmlns="http://www.w3.org/2000/svg" xmlns:xlink="http://www.w3.org/1999/xlink">
    <title>logo</title>
    <g id="页面-1" stroke="none" stroke-width="1" fill="none" fill-rule="evenodd">
        <g id="logo" transform="translate(-144.000000, -152.000000)">
            <g transform="translate(144.000000, 152.000000)">
                <g id="形状结合" fill="#4C72FF">
                    <path d="M59.745978,6.11681133 C59.8983912,6.77700139 60,7.43719144 60,8.0973815 L60,56.3420394 C60,60.0492605 57.4597798,63.2994269 53.8526672,64.2135362 L12.0406435,74.8273609 L12.2438611,74.8273609 L12.2438611,78.5853659 L10.9229467,77.9251758 C10.9229467,77.9251758 10.9737511,77.9251758 10.9737511,77.9759596 C10.1608806,77.5696888 9.44961897,77.2142019 8.78916173,76.9094988 L8.43353091,76.7571472 C6.04572396,75.5891187 4.77561389,74.9289286 4.52159187,74.7765771 C4.62320068,74.8273609 4.72480948,74.8781448 4.87722269,74.9289286 L5.0296359,74.9797125 L4.87722269,74.9289286 C2.64182896,73.9640355 0.914479255,72.0342492 0.254022015,69.4950566 C0.101608806,68.8348666 0,68.1746765 0,67.5144865 L0,19.2698286 C0,15.5626075 2.54022015,12.3124411 6.14733277,11.3983318 L49.8391194,0.276668536 C54.2082981,-0.891360023 58.6282811,1.7494002 59.745978,6.11681133 Z" id="路径"></path>
                </g>
                <g id="形状结合_1_" transform="translate(0.000000, 12.292683)" fill="#0045FF">
                    <path d="M4.07592408,0.0859865782 C5.09490509,-0.523108545 1.57942058,2.21781951 1.98701299,4.70495793 C2.24175824,6.22769573 3.61738262,7.90270732 6.11388611,9.78075062 L40.1988012,26.0232872 C43.0519481,27.3937512 44.8351648,30.2361952 44.8351648,33.3831866 L44.8351648,33.3831866 L44.6823177,69.6243464 C44.6823177,70.8932946 44.3766234,72.1114848 43.8161838,73.2281592 C41.7782218,77.2380355 36.8871129,78.8622891 32.8621379,76.831972 L32.8621379,76.831972 L4.48351648,62.5689946 C1.73226773,61.1985306 0,58.4068446 0,55.310611 L0,55.310611 L0,6.78603293 C0,6.17693781 0.203796204,2.26857743 4.07592408,0.0859865782 Z" id="路径"></path>
                </g>
                <g id="形状" transform="translate(10.329670, 66.731707)" fill="#00B5FF">
                    <path d="M34.5054945,0 L34.4546014,15.1908218 C34.4546014,16.4609574 34.1492431,17.6802875 33.5894194,18.7980069 C31.6045901,22.7608299 26.7697494,24.3866035 22.8000908,22.4559974 L22.6474116,22.405192 L2.08661545,12.0408855 C0.712502836,11.0755824 0,10.3135011 0,9.75464139 C0,8.99256004 0.356251418,8.84014376 0.916075075,8.58611664 L1.11964731,8.4845058 L1.32321955,8.43370037 L1.52679179,8.38289495 L1.73036403,8.33208952 L34.5054945,0 L34.2510292,0 L34.5054945,0 Z" id="路径"></path>
                </g>
            </g>
        </g>
    </g>
</svg>