<?xml version="1.0" standalone="no"?><!DOCTYPE svg PUBLIC "-//W3C//DTD SVG 1.1//EN" "http://www.w3.org/Graphics/SVG/1.1/DTD/svg11.dtd"><svg t="1631174426993" class="icon" viewBox="0 0 1024 1024" version="1.1" xmlns="http://www.w3.org/2000/svg" p-id="10858" xmlns:xlink="http://www.w3.org/1999/xlink" width="32" height="32"><defs><style type="text/css"></style></defs><path d="M842.10176 599.169707m-8.533333 0a8.533333 8.533333 0 1 0 17.066666 0 8.533333 8.533333 0 1 0-17.066666 0Z" fill="#0045ff" p-id="10859"></path><path d="M755.252053 751.451307m-13.963946 0a13.963947 13.963947 0 1 0 27.927893 0 13.963947 13.963947 0 1 0-27.927893 0Z" fill="#0045ff" p-id="10860"></path><path d="M604.509013 840.648533m-19.393706 0a19.393707 19.393707 0 1 0 38.787413 0 19.393707 19.393707 0 1 0-38.787413 0Z" fill="#0045ff" p-id="10861"></path><path d="M422.59968 841.506133m-24.82432 0a24.82432 24.82432 0 1 0 49.64864 0 24.82432 24.82432 0 1 0-49.64864 0Z" fill="#0045ff" p-id="10862"></path><path d="M271.629653 754.343253m-30.254933 0a30.254933 30.254933 0 1 0 60.509867 0 30.254933 30.254933 0 1 0-60.509867 0Z" fill="#0045ff" p-id="10863"></path><path d="M183.255893 604.168533m-35.684693 0a35.684693 35.684693 0 1 0 71.369387 0 35.684693 35.684693 0 1 0-71.369387 0Z" fill="#0045ff" p-id="10864"></path><path d="M182.457173 422.737067m-41.115306 0a41.115307 41.115307 0 1 0 82.230613 0 41.115307 41.115307 0 1 0-82.230613 0Z" fill="#0045ff" p-id="10865"></path><path d="M269.559467 271.726933m-46.545067 0a46.545067 46.545067 0 1 0 93.090133 0 46.545067 46.545067 0 1 0-93.090133 0Z" fill="#0045ff" p-id="10866"></path><path d="M419.694933 183.294293m-51.97568 0a51.97568 51.97568 0 1 0 103.95136 0 51.97568 51.97568 0 1 0-103.95136 0Z" fill="#0045ff" p-id="10867"></path><path d="M601.595733 182.546773m-57.406293 0a57.406293 57.406293 0 1 0 114.812587 0 57.406293 57.406293 0 1 0-114.812587 0Z" fill="#0045ff" p-id="10868"></path><path d="M753.19296 270.475093m-62.836053 0a62.836053 62.836053 0 1 0 125.672106 0 62.836053 62.836053 0 1 0-125.672106 0Z" fill="#0045ff" p-id="10869"></path><path d="M841.32608 421.937493m-68.266667 0a68.266667 68.266667 0 1 0 136.533334 0 68.266667 68.266667 0 1 0-136.533334 0Z" fill="#0045ff" p-id="10870"></path></svg>