<?xml version="1.0" encoding="UTF-8"?>
<svg width="103px" height="48px" viewBox="0 0 103 48" version="1.1" xmlns="http://www.w3.org/2000/svg" xmlns:xlink="http://www.w3.org/1999/xlink">
    <title>编组 15</title>
    <g id="页面-1" stroke="none" stroke-width="1" fill="none" fill-rule="evenodd">
        <g id="inst-导航" transform="translate(-320.000000, -26.000000)">
            <g id="编组-15" transform="translate(320.000000, 26.000000)">
                <text id="inst" font-family="SamsungSharpSans-Bold, Samsung Sharp Sans" font-size="30" font-weight="bold" fill="#0045FF">
                    <tspan x="50" y="35">inst</tspan>
                </text>
                <g id="logo">
                    <g id="形状结合" fill="#4C72FF">
                        <path d="M31.8645216,3.26831014 C31.9458086,3.62106024 32,3.97381035 32,4.32656046 L32,30.1044529 C32,32.0852804 30.6452159,33.8218963 28.7214225,34.3103195 L6.42167655,39.9814558 L6.53005927,39.9814558 L6.53005927,41.989418 L5.82557155,41.6366679 C5.82557155,41.6366679 5.85266723,41.6366679 5.85266723,41.6638025 C5.41913633,41.4467255 5.03979678,41.2567832 4.68755292,41.0939754 L4.49788315,41.0125715 C3.22438611,40.3884752 2.54699407,40.0357251 2.41151566,39.9543212 C2.46570703,39.9814558 2.51989839,40.0085905 2.60118544,40.0357251 L2.68247248,40.0628597 L2.60118544,40.0357251 C1.40897544,39.5201672 0.487722269,38.4890515 0.135478408,37.1323204 C0.0541913633,36.7795703 0,36.4268202 0,36.07407 L0,10.2961776 C0,8.31535012 1.35478408,6.57873421 3.27857748,6.09031099 L26.5808637,0.147828424 C28.9110923,-0.476267918 31.2684166,0.934732508 31.8645216,3.26831014 Z" id="路径"></path>
                    </g>
                    <g id="形状结合_1_" transform="translate(0.000000, 6.518519)" fill="#0045FF">
                        <path d="M2.17027417,0.0459010913 C2.71284271,-0.279244198 0.840981241,1.1839096 1.05800866,2.5115862 C1.19365079,3.32444942 1.92611833,4.21859896 3.25541126,5.22113027 L21.404329,13.8916713 C22.9235209,14.6232482 23.8730159,16.1405929 23.8730159,17.8205102 L23.8730159,17.8205102 L23.7916306,37.1666549 C23.7916306,37.8440409 23.62886,38.4943315 23.3304473,39.0904312 C22.2453102,41.230971 19.6409812,42.0980251 17.4978355,41.0142075 L17.4978355,41.0142075 L2.38730159,33.4003886 C0.922366522,32.6688117 0,31.1785625 0,29.5257406 L0,29.5257406 L0,3.62249927 C0,3.29735398 0.108513709,1.21100504 2.17027417,0.0459010913 Z" id="路径"></path>
                    </g>
                    <g id="形状" transform="translate(5.417989, 35.555556)" fill="#00B5FF">
                        <path d="M18.4550265,0 L18.4278067,8.12441806 C18.4278067,8.80371723 18.2644878,9.45584444 17.96507,10.0536277 C16.9034977,12.1730411 14.3176164,13.042544 12.1944718,12.0100093 L12.1128123,11.9828373 L1.11601192,6.43975612 C0.381077242,5.92348876 0,5.51590925 0,5.21701762 C0,4.80943812 0.190538621,4.72792222 0.489956455,4.59206238 L0.598835667,4.53771845 L0.707714879,4.51054648 L0.816594091,4.48337452 L0.925473303,4.45620255 L18.4550265,0 L18.3189274,0 L18.4550265,0 Z" id="路径"></path>
                    </g>
                </g>
            </g>
        </g>
    </g>
</svg>