<?xml version="1.0" standalone="no"?>
<!DOCTYPE svg PUBLIC "-//W3C//DTD SVG 20010904//EN"
 "http://www.w3.org/TR/2001/REC-SVG-20010904/DTD/svg10.dtd">
<svg version="1.0" xmlns="http://www.w3.org/2000/svg"
 width="612.000000pt" height="612.000000pt" viewBox="0 0 612.000000 612.000000"
 preserveAspectRatio="xMidYMid meet">
<metadata>
Created by potrace 1.11, written by Peter Selinger 2001-2013
</metadata>
<g transform="translate(0.000000,612.000000) scale(0.100000,-0.100000)"
fill="#000000" stroke="none">
<path d="M5338 5944 c-2 -1 -16 -4 -33 -7 -150 -26 -256 -82 -374 -198 -97
-96 -171 -246 -189 -384 -7 -61 -6 -178 3 -225 4 -19 8 -39 9 -45 1 -5 4 -14
7 -20 4 -5 14 -34 24 -63 23 -71 101 -186 169 -249 99 -93 241 -162 372 -181
78 -12 236 -4 263 13 4 2 20 6 36 9 44 8 153 63 214 109 52 39 131 114 131
125 0 3 8 15 19 26 45 50 103 187 120 286 9 55 8 218 -3 255 -3 11 -9 36 -14
55 -21 83 -87 200 -160 281 -80 90 -236 177 -366 204 -65 13 -218 20 -228 9z"/>
<path d="M2517 5274 c-1 -1 -56 -4 -122 -8 -66 -3 -131 -8 -145 -10 -14 -3
-43 -7 -65 -10 -184 -24 -400 -83 -595 -161 -156 -63 -412 -202 -500 -272 -8
-6 -46 -35 -85 -64 -244 -183 -487 -454 -641 -715 -54 -92 -164 -306 -164
-319 0 -4 -6 -21 -14 -38 -16 -37 -57 -147 -60 -162 -1 -5 -4 -14 -8 -20 -3
-5 -9 -26 -13 -45 -4 -19 -10 -39 -13 -45 -4 -5 -7 -19 -8 -30 -1 -11 -14 -69
-27 -130 -42 -181 -51 -276 -51 -530 0 -204 11 -323 45 -500 24 -121 76 -305
92 -324 7 -8 10 -16 8 -18 -8 -9 58 -169 126 -303 129 -253 271 -449 473 -650
113 -113 172 -165 254 -225 23 -16 43 -32 46 -35 7 -10 152 -106 194 -130 20
-11 52 -29 71 -40 52 -29 139 -74 146 -75 3 0 25 -10 50 -22 151 -73 451 -165
614 -187 22 -3 51 -8 65 -11 128 -26 570 -27 705 -1 11 2 45 7 75 11 30 4 62
9 70 11 8 2 47 11 85 20 162 37 251 65 420 135 17 7 32 13 35 14 21 6 162 78
240 123 298 171 547 389 762 667 57 73 138 194 138 205 0 5 4 10 9 12 19 7
179 331 216 438 1 3 4 12 8 20 13 36 57 177 60 195 1 11 5 25 9 30 9 15 48
214 64 323 9 66 17 227 17 337 0 306 -50 578 -164 895 -31 83 -163 360 -178
370 -4 3 -10 13 -14 23 -6 16 -109 175 -134 207 -118 149 -164 202 -258 295
-61 61 -130 126 -154 145 -24 19 -58 47 -75 63 -17 15 -34 27 -38 27 -3 0 -13
6 -21 14 -16 17 -190 131 -257 169 -75 43 -292 147 -306 147 -3 0 -20 6 -37
14 -31 14 -146 54 -177 62 -8 2 -49 13 -90 24 -41 11 -84 22 -95 24 -214 40
-222 41 -360 51 -79 7 -224 12 -228 9z"/>
</g>
</svg>
