<?xml version="1.0" encoding="UTF-8"?>
<svg width="160px" height="160px" viewBox="0 0 160 160" version="1.1" xmlns="http://www.w3.org/2000/svg" xmlns:xlink="http://www.w3.org/1999/xlink">
    <title>undraw_Browsing_re_eycn</title>
    <g id="页面-1" stroke="none" stroke-width="1" fill="none" fill-rule="evenodd">
        <g id="inst-导航" transform="translate(-1080.000000, -2812.000000)">
            <g id="编组-10" transform="translate(0.000000, 2405.000000)">
                <g id="编组-3" transform="translate(1000.000000, 327.000000)">
                    <g id="undraw_Browsing_re_eycn" transform="translate(80.000000, 80.000000)">
                        <polygon id="路径-2" points="1.73489936 28.7183959 0.101543362 143.849047 158.840442 160 158.840442 9.2982112"></polygon>
                        <path d="M158.456953,9.67411171 L0.137791241,28.7176831 C0.119401908,28.7199438 0.100752211,28.7168 0.0841202606,28.7086356 C0.0668155201,28.6999097 0.0518098543,28.6872299 0.0403191976,28.6716234 C0.0270410919,28.6538522 0.0170129951,28.6338712 0.0106988675,28.6126049 C0.00342940912,28.588185 0,28.5628211 0,28.5373428 C0,28.5109848 0.00367994601,28.4847554 0.010905152,28.459407 C0.0176722754,28.435971 0.0278570639,28.4136605 0.041131112,28.393195 C0.0526869301,28.3748023 0.0675355985,28.3586985 0.084932175,28.3456914 C0.100648266,28.333891 0.119126477,28.3263154 0.138603155,28.3236877 L158.456943,9.01731527 C158.506691,9.01092624 158.557183,9.0135032 158.606023,9.02492399 C158.649955,9.03514825 158.69141,9.05402209 158.727969,9.0804436 C158.762206,9.1052422 158.790336,9.13752377 158.810218,9.17483195 C158.830148,9.21289914 158.840442,9.25524246 158.840442,9.2982112 C158.840442,9.34376416 158.829809,9.38869188 158.810218,9.42981803 C158.789901,9.47256507 158.762038,9.51129598 158.727969,9.54414986 C158.692177,9.57891761 158.650996,9.60766629 158.606023,9.62928186 C158.55915,9.65235638 158.508778,9.66750482 158.456953,9.67411171 Z" id="b71ccbba-e8b4-459a-9884-0222885cf9eb" fill="#CACACA" fill-rule="nonzero"></path>
                        <path d="M158.742112,159.997895 L0.101543362,143.849047 C0.0831067807,143.847217 0.0656016913,143.84006 0.0511649988,143.828448 C0.0361954264,143.816138 0.0243371452,143.800475 0.0165515274,143.782727 C0.00749631802,143.762477 0.00209808545,143.740784 1.08769995e-05,143.718651 C1.08769995e-05,143.693231 1.08769995e-05,143.667695 0.0066895443,143.642876 C0.012477061,143.617162 0.0218094173,143.592376 0.0344189336,143.56923 C0.0461614664,143.547849 0.0609927545,143.528316 0.0784342151,143.511262 C0.0937440369,143.495852 0.111764775,143.483398 0.131592129,143.474524 C0.149513305,143.466456 0.169204096,143.463118 0.188783168,143.464829 L158.886186,159.357091 C158.936125,159.36177 158.984821,159.37536 159.029966,159.397216 C159.070587,159.416829 159.106892,159.444341 159.136761,159.478143 C159.164729,159.509845 159.185097,159.547511 159.196314,159.588272 C159.207405,159.629785 159.208236,159.673372 159.198733,159.715277 C159.188436,159.759652 159.168515,159.801223 159.140379,159.837049 C159.111177,159.874299 159.075494,159.905975 159.035044,159.930554 C158.992498,159.956624 158.946014,159.975638 158.897394,159.986861 C158.846598,159.99909 158.794127,160.002819 158.742112,159.997895 L158.742112,159.997895 Z" id="fbe4cf51-249d-4766-a31e-46e69d2d3573" fill="#CACACA" fill-rule="nonzero"></path>
                        <path d="M3.2817301,21.1524048 C3.48790559,21.1205778 3.69888638,21.1491451 3.8891743,21.2346541 C4.08489291,21.3252967 4.25587546,21.4617863 4.38763157,21.6325556 C4.53891946,21.8276465 4.65321675,22.0487836 4.72487225,22.2850333 C4.80867397,22.5581483 4.85027989,22.8424584 4.8482515,23.1281337 C4.84850217,23.4249547 4.80696825,23.7203332 4.72487225,24.0055752 C4.64963145,24.2699554 4.53600787,24.5218658 4.38763157,24.7532584 C4.25560429,24.9617064 4.086692,25.1443467 3.8891743,25.2922268 C3.71095788,25.4256572 3.50209018,25.5122021 3.2817301,25.5439229 C3.07558949,25.5719879 2.8657299,25.5399266 2.67737222,25.4515921 C2.4839764,25.3580079 2.3155956,25.2197936 2.18611376,25.0483457 C2.03796332,24.8535981 1.92609448,24.6337628 1.85586295,24.3993642 C1.77399889,24.129397 1.73323833,23.8486449 1.73495117,23.5665437 C1.73489936,23.2734219 1.77559959,22.9817161 1.85586295,22.6997973 C1.92949352,22.4376596 2.04066346,22.187554 2.18591805,21.9572526 C2.31598042,21.7486718 2.48244408,21.5651436 2.6773828,21.4154069 C2.85391648,21.2789989 3.06159448,21.1886208 3.2817301,21.1524048 Z" id="aefee446-e8cd-48bc-a6ae-8085c53a4aa5" fill="#3F3D56" fill-rule="nonzero"></path>
                        <path d="M8.78285482,20.3269894 C8.99824094,20.2937042 9.21865069,20.3222255 9.41847007,20.4092387 C9.62250059,20.5002189 9.80164877,20.6389495 9.94079286,20.8137201 C10.0986893,21.012018 10.2183448,21.2379418 10.2936609,21.4799766 C10.3812792,21.7589161 10.4247805,22.0498319 10.4225913,22.3422006 C10.42267,22.6461967 10.379036,22.9486247 10.2930421,23.2402043 C10.2140998,23.5112066 10.0953913,23.7689986 9.94079286,24.0051626 C9.80192141,24.2195086 9.6252147,24.4068033 9.41930315,24.5578991 C9.23211057,24.6957843 9.01378513,24.7853463 8.78368789,24.8186426 C8.56838439,24.848008 8.34916596,24.8158561 8.1513626,24.7259019 C7.9498667,24.6314316 7.77367497,24.4904782 7.63727797,24.3146342 C7.48247977,24.116735 7.36518875,23.892188 7.29119615,23.6520803 C7.20560775,23.3764773 7.1629531,23.0893418 7.16473057,22.8007603 C7.16474102,22.5007027 7.20732046,22.202164 7.29119615,21.9140678 C7.36849752,21.6449476 7.48481979,21.388608 7.63645548,21.1532194 C7.77327581,20.9389259 7.94738892,20.7508835 8.15054011,20.5980074 C8.33610449,20.4575375 8.55316239,20.3645037 8.78285482,20.3269894 L8.78285482,20.3269894 Z" id="a4b9cd5e-e7a9-439c-9762-a8720b874a73" fill="#3F3D56" fill-rule="nonzero"></path>
                        <path d="M14.5412268,19.4616817 C14.7664145,19.4265941 14.996922,19.4547136 15.2070707,19.5429075 C15.4196375,19.6349894 15.6070061,19.7767323 15.7534415,19.9562327 C15.918601,20.1578463 16.0441834,20.3888481 16.1235819,20.6370851 C16.2155464,20.9217533 16.2614369,21.219287 16.259518,21.5184354 C16.2594706,21.829969 16.2136698,22.1398067 16.1235819,22.4380303 C16.040275,22.7168161 15.9154984,22.9814818 15.7534415,23.2231409 C15.6071713,23.4438342 15.4220452,23.6361353 15.2070707,23.7906876 C15.0100606,23.932652 14.7816021,24.0247965 14.5412268,24.0592435 C14.3161163,24.0901065 14.0868562,24.058006 13.8788792,23.9665028 C13.6687983,23.8713705 13.4842409,23.727826 13.3403234,23.5476264 C13.1790328,23.3460851 13.0565907,23.1163314 12.9792304,22.8700613 C12.8897617,22.588923 12.8450733,22.295461 12.8468038,22.0004349 C12.8467554,21.6926574 12.8913661,21.3865015 12.9792304,21.0915324 C13.0604122,20.8153283 13.1820998,20.5526879 13.3403234,20.3121792 C13.4843993,20.0912673 13.6668657,19.8979371 13.8790855,19.7413399 C14.0743,19.596582 14.3013475,19.5006875 14.5412268,19.4616817 Z" id="a94385bb-e1a1-4da4-9c03-9925c8c84fb9" fill="#3F3D56" fill-rule="nonzero"></path>
                        <path d="M149.924579,1.29472927 L140.271083,2.69036781 C140.180841,2.70405192 140.088829,2.70063372 139.999851,2.68029161 C139.919747,2.66178702 139.844387,2.62676814 139.77859,2.57747468 C139.716012,2.53060339 139.66507,2.46995056 139.629711,2.40021817 C139.593333,2.32737868 139.574596,2.24700512 139.575004,2.16558813 C139.575597,2.07887091 139.594225,1.99322488 139.629711,1.9140983 C139.666144,1.83239877 139.716522,1.75766588 139.77859,1.69324701 C139.842906,1.6261315 139.917617,1.56981944 139.999851,1.52647661 C140.084559,1.4815904 140.176273,1.45141335 140.271083,1.43723215 L149.924373,0.00931008563 C150.019283,-0.00543408991 150.116093,-0.00264632959 150.209997,0.0175350166 C150.294088,0.0354343629 150.373601,0.0704311531 150.443599,0.120351943 C150.580335,0.218095298 150.660655,0.376508393 150.658728,0.544575896 C150.658081,0.634069149 150.638382,0.72240189 150.600909,0.803674444 C150.562235,0.888317925 150.508989,0.965507409 150.443599,1.03172189 C150.303691,1.17357808 150.121457,1.26610295 149.924373,1.29534548 L149.924579,1.29472927 Z" id="e9fb7174-288f-46c4-ab91-f423808d7a61" fill="#3F3D56" fill-rule="nonzero"></path>
                        <path d="M149.924579,3.70455469 L140.271083,5.04117208 C140.180737,5.0543021 140.088728,5.05032595 139.999851,5.02945089 C139.919786,5.01083298 139.844448,4.97582454 139.77859,4.92663397 C139.716036,4.87940017 139.665111,4.81848699 139.629711,4.74855231 C139.592942,4.67475369 139.574196,4.5932883 139.574985,4.51084123 C139.575582,4.42425429 139.594212,4.33873891 139.629711,4.25976133 C139.66613,4.1783612 139.716517,4.10396432 139.77859,4.03993881 C139.842985,3.9735266 139.917705,3.91797536 139.999851,3.87544019 C140.084635,3.83105808 140.176356,3.80143414 140.271083,3.78783807 L149.924373,2.41913815 C150.019397,2.40501255 150.116205,2.40842774 150.209997,2.42921435 C150.294209,2.44785307 150.37371,2.48354486 150.443599,2.53408884 C150.50954,2.58190455 150.563522,2.64433145 150.601319,2.71648395 C150.639712,2.79149094 150.659396,2.87467014 150.658711,2.958929 C150.658098,3.04829154 150.638396,3.13649324 150.600909,3.21761498 C150.56205,3.30170501 150.508658,3.37827859 150.443189,3.4438138 C150.303155,3.58492187 150.120806,3.67634816 149.92396,3.70414477 L149.924579,3.70455469 Z" id="f4f63b1d-19b6-4660-a2ee-fe9c59ab2b83" fill="#3F3D56" fill-rule="nonzero"></path>
                        <path d="M149.924579,6.11438011 L140.271083,7.38931317 C140.180633,7.40188514 140.088627,7.3973511 139.999851,7.37594699 C139.919665,7.35659087 139.844339,7.32088743 139.77859,7.27107251 C139.649066,7.17279355 139.57359,7.01909735 139.574991,6.85651484 C139.575474,6.77000431 139.594036,6.68454816 139.629504,6.60564122 C139.66595,6.52445064 139.716416,6.45031718 139.77859,6.38664119 C139.842899,6.32013161 139.917636,6.26456785 139.999851,6.22214257 C140.0847,6.17823693 140.176433,6.14916719 140.271083,6.13619072 L149.924373,4.82919366 C150.01951,4.81568919 150.116317,4.81973177 150.209997,4.84112113 C150.29428,4.86031659 150.373766,4.89649168 150.443599,4.94743696 C150.509546,4.99567083 150.563511,5.05843095 150.601319,5.13086085 C150.639658,5.20596043 150.659338,5.28919212 150.658708,5.37350954 C150.658117,5.46274249 150.638413,5.5508145 150.600909,5.6317856 C150.56216,5.71593864 150.508755,5.79253056 150.443189,5.85798442 C150.302965,5.9982608 150.120532,6.0885741 149.92396,6.11502806 L149.924579,6.11438011 Z" id="eb3f2030-579f-46ae-b7f9-06846804faba" fill="#3F3D56" fill-rule="nonzero"></path>
                        <polygon id="ed3b43a5-e52b-42db-ae2c-bbf19919dda8" fill="#0045FF" fill-rule="nonzero" opacity="0.041924" points="104.028679 28.3670788 150.659097 24.417668 150.659097 52.213235 104.028679 52.8217053"></polygon>
                        <path d="M140.365673,64.7780943 L112.672716,64.2278174 C112.352929,64.2220546 112.047633,64.0934123 111.820156,63.8685757 C111.711016,63.7608315 111.62355,63.6331569 111.562499,63.4924689 C111.50017,63.348349 111.46811,63.1929819 111.46811,63.0359614 C111.46811,62.880261 111.500114,62.7262226 111.562499,62.5835664 C111.623202,62.444922 111.710774,62.3196788 111.820156,62.215071 C111.930694,62.1093198 112.060641,62.0259458 112.20284,61.9695422 C112.35233,61.9104359 112.511983,61.8813005 112.672714,61.883794 L140.365461,62.2485896 C140.553282,62.2507502 140.739159,62.286908 140.914093,62.3553127 C141.07951,62.4198259 141.231772,62.5139707 141.363404,62.6331249 C141.49034,62.7475073 141.593479,62.8857939 141.66692,63.0400739 C141.740141,63.1951066 141.778375,63.3644036 141.778375,63.5358574 C141.778375,63.706153 141.740377,63.8743026 141.66692,64.027941 C141.593819,64.1797504 141.490545,64.3150691 141.363404,64.4256362 C141.23142,64.5406606 141.079008,64.6298759 140.914093,64.6886436 C140.738165,64.7514503 140.552217,64.7814891 140.365461,64.7772718 L140.365673,64.7780943 Z" id="ac2eae0c-5080-4fe0-b0c3-f9d754c11698" fill="#0045FF" fill-rule="nonzero" opacity="0.040219"></path>
                        <path d="M135.608116,60.4083737 L116.860246,60.2508596 C116.695102,60.2497517 116.531723,60.2167964 116.379063,60.1538002 C116.233343,60.0936424 116.100296,60.0065026 115.986919,59.8969628 C115.875295,59.7893613 115.785685,59.6610586 115.723089,59.5192137 C115.594217,59.22594 115.594217,58.8920673 115.723089,58.5987937 C115.785612,58.4576919 115.875253,58.3302522 115.986919,58.2237183 C116.100313,58.1153272 116.233335,58.0295536 116.37886,57.9709934 C116.531855,57.9094199 116.695329,57.8780655 116.860248,57.8786542 L135.608119,57.9107425 C135.790905,57.9107123 135.972137,57.9443096 136.142766,58.0098569 C136.304135,58.0717663 136.45264,58.1630317 136.580766,58.2790343 C136.705005,58.3912484 136.805666,58.5270693 136.876882,58.6785808 C137.021707,58.9876311 137.021707,59.3450575 136.876882,59.6541078 C136.805744,59.8045972 136.70512,59.9392752 136.580975,60.0501607 C136.452753,60.1649664 136.304202,60.2547941 136.142975,60.3150167 C135.972048,60.3789118 135.790794,60.4107011 135.608325,60.4087862 L135.608116,60.4083737 Z" id="b3e575b2-619a-4403-8cc7-960fb099e65d" fill="#0045FF" fill-rule="nonzero" opacity="0.040219"></path>
                        <polygon id="b6f8ac03-6581-403f-aeca-47fca949167f" fill="#0045FF" fill-rule="nonzero" opacity="0.040219" points="104.028679 72.8364903 150.659097 74.9625423 150.659097 102.758107 104.028679 97.2909131"></polygon>
                        <path d="M140.365673,113.981821 L112.672716,109.823283 C112.507556,109.797993 112.348354,109.742951 112.202843,109.660831 C112.059109,109.579873 111.929794,109.475642 111.820159,109.35238 C111.711693,109.231571 111.624565,109.093193 111.562501,108.943167 C111.500918,108.794563 111.468859,108.635389 111.468086,108.474532 C111.467016,108.322443 111.499233,108.171959 111.562501,108.033651 C111.622355,107.904423 111.710396,107.790242 111.820159,107.699497 C111.932116,107.607463 112.062666,107.540749 112.202843,107.503937 C112.356189,107.464036 112.516034,107.455642 112.672716,107.479262 L140.365464,111.452113 C140.557124,111.480017 140.742645,111.540304 140.914096,111.630398 C141.080985,111.717556 141.232707,111.831088 141.363407,111.96661 C141.48984,112.096892 141.592554,112.248249 141.666923,112.413863 C141.739261,112.574357 141.777226,112.748209 141.778404,112.924248 C141.779565,113.090056 141.741365,113.253775 141.666923,113.401937 C141.594732,113.543152 141.490852,113.665752 141.363407,113.76015 C141.229501,113.858823 141.076464,113.928444 140.914096,113.964551 C140.733903,114.004566 140.547795,114.010356 140.365464,113.98162 L140.365673,113.981821 Z" id="a17e3a22-ba16-4351-b475-1e8c7f62d0cf" fill="#0045FF" fill-rule="nonzero" opacity="0.040219"></path>
                        <path d="M135.608116,108.992723 L116.860246,106.392275 C116.691533,106.368452 116.528517,106.314323 116.379063,106.232497 C116.232158,106.152214 116.099689,106.047964 115.987123,105.924047 C115.876196,105.80314 115.786946,105.664013 115.723293,105.512779 C115.660125,105.362915 115.62721,105.20204 115.626415,105.039409 C115.625372,104.885097 115.658373,104.73245 115.723087,104.592359 C115.784661,104.460613 115.874783,104.344222 115.986917,104.251625 C116.101734,104.157278 116.235353,104.088506 116.378857,104.049897 C116.535734,104.00799 116.699414,103.997918 116.860246,104.020277 L135.608116,106.494878 C135.794734,106.519901 135.975616,106.577019 136.142763,106.663703 C136.305631,106.747798 136.453597,106.858046 136.580763,106.990056 C136.70429,107.117444 136.804452,107.265563 136.876673,107.427646 C136.947288,107.585767 136.984261,107.75684 136.98527,107.930009 C136.98633,108.093961 136.949154,108.255905 136.876673,108.402969 C136.806479,108.543098 136.705282,108.665391 136.580763,108.760566 C136.450777,108.859472 136.301606,108.930206 136.142763,108.968257 C135.967681,109.010077 135.786247,109.018245 135.608116,108.992324 L135.608116,108.992723 Z" id="e3c2f847-4324-4f71-a395-b34127131530" fill="#0045FF" fill-rule="nonzero" opacity="0.040219"></path>
                        <path d="M76.9402921,97.5010693 L3.62555072,88.1144899 C3.42600597,88.0860625 3.23683264,88.0078436 3.07548004,87.8870481 C2.89810277,87.7548507 2.7464459,87.591275 2.62801999,87.4044218 C2.49551404,87.1975329 2.39414921,86.9722846 2.32717794,86.7359042 C2.25389158,86.4803603 2.21675034,86.2158187 2.21675034,85.9499737 L2.21675034,39.6500179 C2.21675034,39.3856375 2.25361896,39.1225485 2.32717794,38.8686072 C2.39373705,38.636712 2.4951776,38.4162883 2.62801999,38.2148971 C2.7461464,38.0335476 2.89797654,37.8765515 3.07527375,37.7524259 C3.23803071,37.638544 3.42757735,37.5688906 3.62534708,37.5502883 L76.9402921,31.547411 C77.5759986,31.4927667 78.2032727,31.7224135 78.6534288,32.1745951 C78.8791578,32.4006411 79.0570704,32.6698164 79.1765635,32.9660794 C79.3053094,33.2857782 79.3708807,33.6273973 79.3696864,33.972044 L79.3696864,95.1876872 C79.3714322,95.5294516 79.3058187,95.8682145 79.1765635,96.184599 C79.057868,96.4742285 78.8796393,96.7356855 78.6534288,96.9520248 C78.4334062,97.161535 78.1695997,97.3195655 77.8810629,97.4147023 C77.5778431,97.5133166 77.2563986,97.5428266 76.9402921,97.5010693 Z" id="e0ac5af8-db2c-46e2-8c29-d7faefa5f799" fill="#FFFFFF" fill-rule="nonzero"></path>
                        <path d="M47.9516341,63.3598412 C47.754949,63.1041579 47.5332769,62.8687086 47.2899027,62.6569825 C47.0584056,62.4555324 46.8061913,62.2792084 46.5374934,62.1309704 C46.2784264,61.9880939 46.0040063,61.875028 45.7194831,61.793936 C45.4397095,61.7143767 45.1514155,61.6686057 44.860758,61.6576005 C44.5733316,61.6469023 44.2856694,61.6711391 44.0040851,61.7297789 C43.7235243,61.788453 43.4508327,61.879902 43.1916233,62.0022436 C42.9268091,62.127368 42.6767875,62.2816576 42.4462012,62.4622473 C42.2059822,62.6504469 41.986188,62.8633492 41.7904336,63.0974527 L22.0633334,86.6727864 C21.8354917,86.9521421 21.5435873,87.1723757 21.212418,87.314778 C20.9090328,87.4416091 20.5780694,87.4880694 20.2514896,87.4496721 C19.910314,87.4071183 19.5836479,87.2860524 19.2971437,87.0959816 C18.9685223,86.8774556 18.6851828,86.5975375 18.4626808,86.2715949 L15.8494801,82.514867 C15.548897,82.0695531 15.1634528,81.6878816 14.7152039,81.3916932 C14.332124,81.1392826 13.8940514,80.9825154 13.4378034,80.9345668 C13.0046364,80.8930629 12.5681971,80.966843 12.1727429,81.1484256 C11.7397352,81.3528446 11.3619998,81.6580226 11.0711602,82.0384107 L6.34342493,88.0328515 L72.4332098,96.3768641 L72.4332098,95.2047453 L47.9516341,63.3598412 Z" id="ef100bb2-3038-4c55-8635-fb645de4c704" fill="#0045FF" fill-rule="nonzero"></path>
                        <path d="M76.9400805,98.3861168 L3.62555072,88.7938903 C3.35819214,88.7549658 3.10490564,88.6494651 2.88896981,88.4870845 C2.65167568,88.3093853 2.44887568,88.0897922 2.29057567,87.8391398 C2.11358083,87.5620229 1.97820234,87.2604366 1.88876531,86.9440161 C1.79088817,86.6022615 1.74112025,86.2485175 1.74112025,85.8930233 L1.74112025,39.6849752 C1.74112025,39.3316862 1.7905779,38.9801366 1.88876531,38.640766 C1.97753259,38.3298963 2.1130153,38.0343173 2.29057567,37.7641471 C2.44854883,37.5210652 2.65159969,37.3104754 2.88876352,37.1437492 C3.10656282,36.9906237 3.36035306,36.8966037 3.62534708,36.870872 L76.9398742,30.6607238 C77.7927924,30.585098 78.6353549,30.8914527 79.2405144,31.4972337 C79.5443267,31.8002136 79.783872,32.1613882 79.9448065,32.5591304 C80.1181491,32.9885227 80.2064255,33.4475002 80.2047807,33.910558 L80.2047807,95.287624 C80.207204,95.7468906 80.1188698,96.2021164 79.9448065,96.6271268 C79.7849339,97.0159112 79.5449605,97.3666602 79.2405144,97.6565311 C78.9445266,97.9371841 78.5898067,98.1484705 78.2020626,98.2750776 C77.7949018,98.4058531 77.363638,98.4438636 76.9398795,98.3863231 L76.9400805,98.3861168 Z" id="b26a6d5f-b740-4ee8-acda-543250f0498e" fill="#00B5FF" fill-rule="nonzero" opacity="0.102074033"></path>
                        <polygon id="路径" fill="#FFB6B6" fill-rule="nonzero" points="13.9083409 146.566945 16.1126752 146.566681 17.1612878 138.064324 13.9080764 138.064588"></polygon>
                        <path d="M13.3461391,145.847187 L17.6872417,145.84701 L17.6874163,145.84701 C19.2152558,145.847091 20.4538009,147.085616 20.4539075,148.613456 L20.4539075,148.703356 L13.3462713,148.703621 L13.3461391,145.847187 Z" id="路径" fill="#2F2E41" fill-rule="nonzero"></path>
                        <polygon id="路径" fill="#FFB6B6" fill-rule="nonzero" points="34.2257715 149.476085 36.4301059 149.47582 37.4787185 140.973463 34.2255071 140.973728"></polygon>
                        <path d="M33.6635565,148.756326 L38.0046592,148.756149 L38.0048337,148.756149 C39.5326732,148.756231 40.7712183,149.994756 40.771325,151.522596 L40.771325,151.612496 L33.6636861,151.61276 L33.6635565,148.756326 Z" id="路径" fill="#2F2E41" fill-rule="nonzero"></path>
                        <polygon id="路径" fill="#FFB6B6" fill-rule="nonzero" points="31.5644378 81.1700167 33.002875 90.3398891 19.3378531 90.5197268 21.1359659 81.7095299"></polygon>
                        <path d="M32.6061715,88.1009121 L36.9583686,99.6895145 L37.4977681,147.714558 L33.8118539,147.714558 L25.0016569,109.129022 L16.9106416,143.798113 L13.3146384,143.798113 L15.8318375,104.45422 C15.8318375,104.45422 15.0895388,95.9735489 18.8884413,90.9692074 L19.8131246,88.2977181 L32.6061715,88.1009121 Z" id="路径" fill="#2F2E41" fill-rule="nonzero"></path>
                        <path d="M13.937784,97.1348272 C14.7079921,96.9249323 15.3456701,96.3846624 15.6792303,95.6593942 C16.0127905,94.9341261 16.0079684,94.098362 15.6660615,93.3769911 L21.4792813,74.424497 L17.2034333,73.5768795 L11.886674,92.1542956 C10.6864992,92.8236746 10.1766762,94.2849368 10.6999772,95.5556231 C11.2232783,96.8263095 12.6142895,97.5047596 13.937784,97.1348272 Z" id="路径" fill="#FFB6B6" fill-rule="nonzero"></path>
                        <path d="M21.6047499,86.234514 C21.5249717,86.234514 21.4453902,86.2265995 21.3671393,86.2110637 L21.3671393,86.2110637 C20.8264193,86.1028809 20.4239914,85.6477235 20.3828663,85.0978232 C20.2476998,83.2471953 19.5779682,80.0258706 18.3922664,75.5231256 C17.571616,72.3855424 18.8385278,69.0735393 21.5436614,67.2846437 C24.248795,65.495748 27.7924258,65.6265556 30.3583085,67.6100227 C31.9775108,68.8503596 33.0199899,70.6981201 33.2443363,72.725414 C33.8336301,77.9149963 32.7226482,83.1254345 32.2176745,85.1247328 C32.0812709,85.6611283 31.6037666,86.0406226 31.0504245,86.0523992 L21.6309295,86.2342257 C21.6221783,86.234514 21.6134958,86.234514 21.6047499,86.234514 Z" id="路径" fill="#3F3D56" fill-rule="nonzero"></path>
                        <path d="M47.9210855,69.586627 C47.8645073,69.7135323 47.8180233,69.844701 47.7820657,69.9789139 L35.991524,73.9854364 L33.7132446,71.9951248 L30.2601145,75.040859 L33.9509425,78.9562752 C34.5634137,79.6060163 35.5312532,79.7734812 36.3264295,79.3673049 L48.9430371,72.9227674 C49.8772134,73.4957948 51.0685009,73.4309856 51.9349993,72.7599966 C52.8014977,72.0890076 53.1623953,70.9518537 52.841407,69.903993 C52.5204187,68.8561322 51.5845247,68.116221 50.4908751,68.0456788 C49.3972255,67.9751367 48.3740313,68.5886836 47.9210855,69.5866243 L47.9210855,69.586627 Z" id="路径" fill="#FFB6B6" fill-rule="nonzero"></path>
                        <path d="M35.5804943,74.2044206 L31.2823359,77.9585329 C31.0348693,78.1746691 30.7055808,78.2723866 30.3802757,78.2262223 C30.0549706,78.1800581 29.7658699,77.9945846 29.5883069,77.7181322 L26.5139467,72.9307702 C25.3837331,71.6215328 25.5259658,69.644634 26.8319611,68.5106756 C28.1379563,67.3767172 30.1152543,67.5132879 31.2529483,68.8160303 L35.5701457,72.4934472 C35.8202023,72.7065822 35.9651033,73.0180042 35.9671113,73.346563 C35.9690778,73.6751217 35.8279544,73.9882737 35.5804943,74.2044179 L35.5804943,74.2044206 Z" id="路径" fill="#3F3D56" fill-rule="nonzero"></path>
                        <path d="M20.8001797,79.2771084 L15.4885696,77.1903984 C15.1827593,77.0702533 14.9443901,76.8229476 14.8355764,76.5129244 C14.7267626,76.2029013 14.7582824,75.8608684 14.9219221,75.5759529 L17.7558895,70.642478 C18.3976486,69.0363701 20.2179723,68.2523396 21.8259188,68.8894782 C23.4338652,69.5266169 24.2231262,71.3446789 23.5906132,72.9544506 L22.3141991,78.480065 C22.240148,78.800176 22.0304295,79.0722015 21.7396917,79.2252576 C21.4489539,79.3783137 21.1059939,79.3972404 20.8001797,79.2771057 L20.8001797,79.2771084 Z" id="路径" fill="#3F3D56" fill-rule="nonzero"></path>
                        <circle id="椭圆形" fill="#FFB6B6" fill-rule="nonzero" cx="24.7375679" cy="59.086778" r="5.77771778"></circle>
                        <path d="M32.4725283,57.1391223 L23.2981971,57.1391223 L23.2981971,53.1400551 C25.3118506,52.3400629 27.2823324,51.6597156 28.4734611,53.1400551 C30.682078,53.1400668 32.4725283,54.9305001 32.4725283,57.1391223 L32.4725283,57.1391223 Z" id="路径" fill="#2F2E41" fill-rule="nonzero"></path>
                        <circle id="椭圆形" fill="#2F2E41" fill-rule="nonzero" cx="22.7692626" cy="58.4614558" r="6.61168081"></circle>
                        <circle id="椭圆形" fill="#2F2E41" fill-rule="nonzero" cx="18.0088524" cy="53.4365784" r="4.23147572"></circle>
                    </g>
                </g>
            </g>
        </g>
    </g>
</svg>