<?xml version="1.0" encoding="UTF-8"?>
<svg width="215px" height="160px" viewBox="0 0 215 160" version="1.1" xmlns="http://www.w3.org/2000/svg" xmlns:xlink="http://www.w3.org/1999/xlink">
    <title>undraw_Windows_re_uo4w</title>
    <g id="页面-1" stroke="none" stroke-width="1" fill="none" fill-rule="evenodd">
        <g id="inst-导航" transform="translate(-1080.000000, -4172.000000)" fill-rule="nonzero">
            <g id="编组-10" transform="translate(0.000000, 2405.000000)">
                <g id="编组-3备份-4" transform="translate(1000.000000, 1687.000000)">
                    <g id="undraw_Windows_re_uo4w" transform="translate(80.000000, 80.000000)">
                        <polygon id="路径" fill="#FFFFFF" points="83.455036 44.4164038 0 44.4164038 0 0 83.455036 0"></polygon>
                        <rect id="矩形" fill="#CCF1FF" x="0.298765931" y="0.298765931" width="83.0566839" height="10.5563659"></rect>
                        <path d="M83.455036,44.4164038 L0,44.4164038 L0,0 L83.455036,0 L83.455036,44.4164038 Z M0.597529338,43.8188744 L82.8575066,43.8188744 L82.8575066,0.597529338 L0.597529338,0.597529338 L0.597529338,43.8188744 Z" id="形状" fill="#CCF1FF"></path>
                        <path d="M37.6506852,19.6605199 C37.256106,19.6617817 36.9368656,20.1741754 36.9376465,20.8049994 C36.9384303,21.4340694 37.2572139,21.9437249 37.6506852,21.944964 L71.3342738,21.944964 C71.728853,21.9437022 72.0480934,21.4313085 72.0473125,20.8004845 C72.0465287,20.1714145 71.7277451,19.661759 71.3342738,19.6605199 L37.6506852,19.6605199 Z" id="be9f7c95-ebd4-44b9-9282-e3238283e763" fill="#E4E4E4"></path>
                        <path d="M37.6506852,26.2793842 C37.256106,26.2806486 36.9368656,26.7930448 36.9376465,27.4238662 C36.9384303,28.0529363 37.2572139,28.5625893 37.6506852,28.5638309 L71.3342738,28.5638309 C71.728853,28.5625691 72.0480934,28.0501754 72.0473125,27.4193514 C72.0465287,26.7902814 71.7277451,26.2806259 71.3342738,26.2793842 L37.6506852,26.2793842 Z" id="b7ae55e2-855e-4db9-b102-9092ce531234" fill="#E4E4E4"></path>
                        <path d="M37.6506852,32.8182006 C37.256106,32.8194625 36.9368656,33.3318562 36.9376465,33.9626801 C36.9384303,34.5917502 37.2572139,35.1014032 37.6506852,35.1026448 L52.1447849,35.1026448 C52.5393615,35.101383 52.8586044,34.5889893 52.8578235,33.9581653 C52.8570397,33.3290953 52.5382562,32.8194423 52.1447849,32.8182006 L37.6506852,32.8182006 Z" id="b4ff7f44-8d54-4cd8-922f-1a10c770d871" fill="#E4E4E4"></path>
                        <circle id="椭圆形" fill="#E4E4E4" cx="20.5480656" cy="27.2949199" r="9.14034322"></circle>
                        <polygon id="路径" fill="#FFFFFF" points="182.844209 44.4164038 99.389171 44.4164038 99.389171 0 182.844209 0"></polygon>
                        <rect id="矩形" fill="#E4E4E4" x="99.6879369" y="0.298765931" width="83.0566839" height="10.5563659"></rect>
                        <path d="M182.844209,44.4164038 L99.389171,44.4164038 L99.389171,0 L182.844209,0 L182.844209,44.4164038 Z M99.9867028,43.8188744 L182.246668,43.8188744 L182.246668,0.597529338 L99.9867028,0.597529338 L99.9867028,43.8188744 Z" id="形状" fill="#CACACA"></path>
                        <path d="M137.039854,19.6605199 C136.645274,19.6617817 136.326034,20.1741754 136.326815,20.8049994 C136.327599,21.4340694 136.646382,21.9437249 137.039854,21.944964 L170.723447,21.944964 C171.118024,21.9437022 171.437267,21.4313085 171.436486,20.8004845 C171.435702,20.1714145 171.116919,19.661759 170.723447,19.6605199 L137.039854,19.6605199 Z" id="b31be23e-8cea-40b3-88e7-702b78781d59" fill="#E4E4E4"></path>
                        <path d="M137.039854,26.2793842 C136.645274,26.2806486 136.326034,26.7930448 136.326815,27.4238662 C136.327599,28.0529363 136.646382,28.5625893 137.039854,28.5638309 L170.723447,28.5638309 C171.118024,28.5625691 171.437267,28.0501754 171.436486,27.4193514 C171.435702,26.7902814 171.116919,26.2806259 170.723447,26.2793842 L137.039854,26.2793842 Z" id="aa955060-a795-42b6-a949-85ffda920310" fill="#E4E4E4"></path>
                        <path d="M137.039854,32.8182006 C136.645274,32.8194625 136.326034,33.3318562 136.326815,33.9626801 C136.327599,34.5917502 136.646382,35.1014032 137.039854,35.1026448 L151.533951,35.1026448 C151.92853,35.101383 152.24777,34.5889893 152.246992,33.9581653 C152.246208,33.3290953 151.927422,32.8194423 151.533951,32.8182006 L137.039854,32.8182006 Z" id="fc73c397-cba7-486e-aa16-1153498538f8" fill="#E4E4E4"></path>
                        <circle id="椭圆形" fill="#E4E4E4" cx="119.937239" cy="27.2949199" r="9.14034322"></circle>
                        <polygon id="路径" fill="#FFFFFF" points="144.292767 87.9495268 38.5514423 87.9495268 38.5514423 31.6719243 144.292767 31.6719243"></polygon>
                        <rect id="矩形" fill="#0045FF" x="38.9299912" y="32.0504732" width="105.236593" height="13.3753943"></rect>
                        <path d="M144.292767,87.9495268 L38.5514423,87.9495268 L38.5514423,31.6719243 L144.292767,31.6719243 L144.292767,87.9495268 Z M39.3085401,87.192429 L143.535669,87.192429 L143.535669,32.4290221 L39.3085401,32.4290221 L39.3085401,87.192429 Z" id="形状" fill="#3F3D56"></path>
                        <path d="M86.2565729,56.5826953 C85.756636,56.5842801 85.3521312,57.2335192 85.3531187,58.0328101 C85.3541123,58.82987 85.7580265,59.4756265 86.2565729,59.4771987 L128.93521,59.4771987 C129.435147,59.4756139 129.839652,58.8263722 129.838664,58.0270839 C129.837671,57.2300215 129.433756,56.5842675 128.93521,56.5826953 L86.2565729,56.5826953 Z" id="ae5ce118-c16e-4762-944a-d3eac5dda4be" fill="#E4E4E4"></path>
                        <path d="M86.2565729,64.9691028 C85.756636,64.9706877 85.3521312,65.6199293 85.3531187,66.4192177 C85.3541123,67.2162801 85.7580265,67.8620341 86.2565729,67.8636063 L128.93521,67.8636063 C129.435147,67.8620215 129.839652,67.2127823 129.838664,66.4134915 C129.837671,65.6164315 129.433756,64.9706751 128.93521,64.9691028 L86.2565729,64.9691028 Z" id="e85b2a84-e751-44d6-98f8-0a9fef92eb89" fill="#E4E4E4"></path>
                        <path d="M86.2565729,73.254077 C85.756636,73.2556618 85.3521312,73.9049009 85.3531187,74.7041918 C85.3541123,75.5012517 85.7580265,76.1470082 86.2565729,76.1485804 L104.621242,76.1485804 C105.121179,76.1469956 105.525683,75.4977539 105.524693,74.6984656 C105.523702,73.9014032 105.119788,73.2556492 104.621242,73.254077 L86.2565729,73.254077 Z" id="fdff5968-d41d-4113-bbcc-d74a10bcc1ca" fill="#E4E4E4"></path>
                        <circle id="椭圆形" fill="#E4E4E4" cx="64.586776" cy="66.2558284" r="11.5812315"></circle>
                        <polygon id="路径" fill="#FFB6B6" points="189.615647 153.204795 186.789401 154.463849 180.588013 144.162019 184.759369 142.303849"></polygon>
                        <path d="M191.556888,155.62318 L182.444091,159.682963 L182.392737,159.567702 C181.520119,157.60881 182.400561,155.313407 184.359346,154.44055 L184.359571,154.440449 L189.925368,151.960893 L191.556888,155.62318 Z" id="路径" fill="#2F2E41"></path>
                        <path d="M175.372737,95.5613628 C175.950718,95.0048802 176.252527,94.22097 176.196952,93.420566 C176.141377,92.6201621 175.734128,91.8854839 175.084787,91.4142183 L172.090625,66.9037375 L167.421557,68.0534132 L171.162433,92.1584202 C170.426891,93.3274145 170.681939,94.8618015 171.756103,95.7299843 C172.830266,96.5981671 174.384018,96.5257253 175.372742,95.5613628 L175.372737,95.5613628 Z" id="路径" fill="#FFB6B6"></path>
                        <path d="M173.775319,70.8522145 C173.563273,71.0432286 173.295812,71.1616026 173.011846,71.1901148 L166.903256,71.805812 C166.515068,71.8449915 166.129056,71.7132399 165.84583,71.4448977 C165.562605,71.1765555 165.410228,70.7982095 165.428416,70.4084744 L165.713628,64.2942006 C165.622675,63.3809566 165.901697,62.4693763 166.488237,61.7635028 C167.384965,60.6670756 168.853747,60.2185876 170.209996,60.6270749 C171.566245,61.0355622 172.543019,62.2206248 172.685052,63.6299155 L174.178079,69.5263344 C174.299906,70.0087824 174.144905,70.5190421 173.775319,70.8522145 L173.775319,70.8522145 Z" id="路径" fill="#0045FF"></path>
                        <path d="M169.970261,86.4571432 L152.985782,83.0808379 L152.872661,80.7093931 L152.874932,80.6944177 L154.705941,68.5308845 C154.459798,68.0180416 152.28185,63.2211054 155.446097,60.531894 C156.192214,59.8959038 156.880719,59.195278 157.503594,58.4381779 C159.507277,55.9308069 162.614296,54.566967 165.816204,54.7893199 C167.794182,54.9500031 169.603075,55.967327 170.767775,57.5740896 C172.025378,59.261427 172.59427,61.3638586 172.359112,63.4551192 L169.970261,86.4571432 Z" id="路径" fill="#0045FF"></path>
                        <polygon id="路径" fill="#FFB6B6" points="152.829527 156.683912 149.735773 156.683659 148.263722 144.749779 152.830284 144.750032"></polygon>
                        <path d="M153.618695,159.682963 L143.642478,159.682592 L143.642478,159.556409 C143.642622,157.411943 145.381033,155.673554 147.525499,155.673438 L147.525751,155.673438 L153.618874,155.673691 L153.618695,159.682963 Z" id="路径" fill="#2F2E41"></path>
                        <path d="M148.078256,152.050473 L147.405921,102.355987 C147.185919,94.9310202 149.129267,87.6022343 152.999384,81.2615567 L152.999384,81.2615567 C152.999384,81.2615567 168.015157,81.1356467 170.412633,86.3091483 L188.330615,148.643533 L183.283296,150.914826 L161.832192,104.227129 L154.135031,152.302839 L148.078256,152.050473 Z" id="路径" fill="#2F2E41"></path>
                        <path d="M145.625156,68.7791748 C145.731587,68.8943744 145.828769,69.017787 145.915798,69.148265 L159.972076,69.1636189 L161.687407,66.2109224 L166.481903,68.2172315 L163.953239,73.7395028 C163.533623,74.6558933 162.559477,75.1853024 161.562274,75.0388972 L145.740235,72.7159697 C144.948897,73.6667993 143.651768,74.02876 142.482448,73.6250473 C141.313129,73.2213347 140.515619,72.1361911 140.479474,70.8996694 C140.443328,69.6631477 141.176089,68.5332719 142.31983,68.0619448 C143.463571,67.5906178 144.779628,67.8761909 145.625156,68.7791722 L145.625156,68.7791748 Z" id="路径" fill="#FFB6B6"></path>
                        <path d="M158.677625,69.4711924 L160.725343,58.959089 C161.167881,56.6873168 163.256834,55.1182477 165.561948,55.326183 L165.561948,55.326183 C166.943179,55.4507825 168.190489,56.2033391 168.944715,57.3671539 C169.698941,58.5309688 169.876375,59.9768736 169.425923,61.2885199 L166.225751,70.6068391 L158.677625,69.4711924 Z" id="路径" fill="#0045FF"></path>
                        <circle id="椭圆形" fill="#FFB6B6" cx="165.814415" cy="46.1511722" r="6.19836719"></circle>
                        <path d="M158.299076,42.6498423 L168.141348,42.6498423 L168.141348,38.3596215 C165.98108,37.5013855 163.867144,36.7715054 162.589297,38.3596215 C160.219879,38.3596354 158.299076,40.2804245 158.299076,42.6498423 Z" id="路径" fill="#2F2E41"></path>
                        <path d="M168.686251,37.6025237 C174.570148,37.6025237 176.217057,44.977759 176.217057,49.1384984 C176.217057,51.4588972 175.167667,52.2888227 173.518662,52.5696379 L172.9363,49.4637224 L171.572315,52.7032909 C171.10911,52.7056025 170.622493,52.696636 170.118009,52.6872732 L169.655543,51.7350158 L168.624268,52.6701905 C164.49387,52.6763356 161.155566,53.2784303 161.155566,49.1384984 C161.155566,44.977759 162.599894,37.6025237 168.686251,37.6025237 Z" id="路径" fill="#2F2E41"></path>
                        <path d="M213.93384,160 L117.78242,160 C117.643042,160 117.530054,159.887012 117.530054,159.747634 C117.530054,159.608256 117.643042,159.495268 117.78242,159.495268 L213.93384,159.495268 C214.073218,159.495268 214.186206,159.608256 214.186206,159.747634 C214.186206,159.887012 214.073218,160 213.93384,160 Z" id="路径" fill="#CACACA"></path>
                    </g>
                </g>
            </g>
        </g>
    </g>
</svg>