<?xml version="1.0" encoding="UTF-8"?>
<svg width="279px" height="160px" viewBox="0 0 279 160" version="1.1" xmlns="http://www.w3.org/2000/svg" xmlns:xlink="http://www.w3.org/1999/xlink">
    <title>undraw_Around_the_world_re_n353</title>
    <g id="页面-1" stroke="none" stroke-width="1" fill="none" fill-rule="evenodd">
        <g id="inst-导航" transform="translate(-400.000000, -3092.000000)" fill-rule="nonzero">
            <g id="编组-10" transform="translate(0.000000, 2405.000000)">
                <g id="编组-3备份" transform="translate(320.000000, 607.000000)">
                    <g id="undraw_Around_the_world_re_n353" transform="translate(80.000000, 80.000000)">
                        <g id="编组-14" transform="translate(105.314794, 0.000000)">
                            <path d="M134.809755,75.173923 C123.824321,66.9613727 106.618394,59.1944897 87.6038582,53.8650274 C70.2910749,49.0124177 53.4047443,46.669571 40.0518609,47.267862 L39.9823516,45.7150129 C53.4942986,45.1098875 70.5557926,47.4724035 88.0234238,52.3683381 C107.215261,57.7475127 124.607593,65.6060803 135.74056,73.9289964 L134.809755,75.173923 Z" id="路径" fill="#CCCCCC"></path>
                            <path d="M133.669391,81.499679 C133.679137,88.7758911 132.153729,95.9723118 129.192773,102.618822 C128.945615,103.175287 128.688105,103.726567 128.420243,104.272662 C117.815506,125.993337 93.6253954,137.523515 70.0743803,132.083124 C46.5233653,126.642733 29.8413632,105.670912 29.8378635,81.4996865 C29.8378635,80.2981525 29.8787926,79.1059553 29.9606508,77.9230948 C29.9995184,77.3215575 30.0497805,76.7236523 30.1114371,76.1293791 C32.9705641,48.6499667 56.8491021,28.2228144 84.4397804,29.6536132 C112.030459,31.084412 133.667968,53.8719378 133.669391,81.4996903 L133.669391,81.499679 Z" id="路径" fill="#0045FF"></path>
                            <path d="M119.353862,103.481778 C106.605357,103.481778 91.2613324,101.128527 75.5878227,96.7354755 C58.12006,91.8395371 42.3161621,84.990763 31.0873327,77.4507472 C19.6241404,69.7533848 14.2488245,62.1687289 15.951483,56.093954 C17.6540815,50.0191867 26.1884298,46.3331873 39.9823291,45.7150129 L40.0518384,47.267862 C33.6102573,47.5564947 28.3606406,48.5139384 24.4488562,50.1135315 C20.5465664,51.7091833 18.1911704,53.8624462 17.4481498,56.5135197 C16.7051254,59.1645143 17.5982749,62.2282326 20.1027138,65.6196741 C22.6132921,69.0193102 26.6006087,72.5656635 31.9538281,76.1602901 C43.0491546,83.610684 58.6943459,90.3862855 76.0073809,95.2388162 C91.5451708,99.5937619 106.742414,101.927437 119.346265,101.927734 C120.786333,101.927734 122.190671,101.897122 123.55928,101.835899 C130.000925,101.547187 135.250542,100.589823 139.162428,98.9902295 C143.064718,97.3945777 145.420114,95.2413937 146.163134,92.5903202 C147.497251,87.8300865 143.465317,81.6448069 134.809752,75.1739193 L135.74056,73.9290678 C140.194634,77.2589541 143.491734,80.5412585 145.540331,83.6846006 C147.736479,87.0545581 148.449577,90.1921253 147.659824,93.0098633 C145.957161,99.0846307 137.422734,102.770472 123.628978,103.388733 C122.240963,103.450968 120.813347,103.481778 119.353862,103.481778 Z" id="路径" fill="#CFCFCF"></path>
                            <circle id="椭圆形" fill="#F2F2F2" cx="83.1269632" cy="19.6259814" r="1"></circle>
                            <circle id="椭圆形" fill="#CCCCCC" cx="4.20309974" cy="45.0122626" r="1.02343993"></circle>
                            <circle id="椭圆形" fill="#CCCCCC" cx="2.02178513" cy="85.0690982" r="2.02178513"></circle>
                            <circle id="椭圆形" fill="#CCCCCC" cx="123.382099" cy="23.1954006" r="1.34746975"></circle>
                            <circle id="椭圆形" fill="#CCCCCC" cx="171.172679" cy="79.1200638" r="2.18776958"></circle>
                            <circle id="椭圆形" fill="#CCCCCC" cx="154.065403" cy="44.1778542" r="1"></circle>
                            <circle id="椭圆形" fill="#CCCCCC" cx="40.0956142" cy="32.1189559" r="1.46432804"></circle>
                            <circle id="椭圆形" fill="#CCCCCC" cx="150.780119" cy="74.6839463" r="1"></circle>
                            <circle id="椭圆形" fill="#CCCCCC" cx="6.78101564" cy="113.624474" r="1.16827853"></circle>
                            <circle id="椭圆形" fill="#CCCCCC" cx="30.3788525" cy="129.885164" r="1.26517826"></circle>
                            <polygon id="路径" fill="#CCCCCC" points="67.1578548 2.49669898 64.6611558 2.49669898 64.6611558 0 63.3216928 0 63.3216928 2.49669898 60.8238666 2.49669898 60.8238666 3.83728919 63.3216928 3.83728919 63.3216928 6.33398817 64.6611558 6.33398817 64.6611558 3.83728919 67.1578548 3.83728919"></polygon>
                            <polygon id="路径" fill="#CCCCCC" points="125.073005 137.591221 123.504725 137.591221 123.504725 136.023692 122.66385 136.023692 122.66385 137.591221 121.096322 137.591221 121.096322 138.432471 122.66385 138.432471 122.66385 140 123.504725 140 123.504725 138.432471 125.073005 138.432471"></polygon>
                            <polygon id="路径" fill="#CCCCCC" points="161.256918 129.566842 160.085028 129.566842 160.085028 128.394952 159.455687 128.394952 159.455687 129.566842 158.283798 129.566842 158.283798 130.196183 159.455687 130.196183 159.455687 131.368072 160.085028 131.368072 160.085028 130.196183 161.256918 130.196183"></polygon>
                            <circle id="椭圆形" fill="#000000" opacity="0.1" cx="82.5320725" cy="40.8479378" r="4.36262547"></circle>
                            <circle id="椭圆形" fill="#000000" opacity="0.1" cx="49.0191695" cy="72.7744243" r="4.36262547"></circle>
                            <circle id="椭圆形" fill="#000000" opacity="0.1" cx="97.2063541" cy="116.598987" r="4.36262547"></circle>
                            <circle id="椭圆形" fill="#000000" opacity="0.1" cx="82.5320725" cy="79.5166688" r="4.36262547"></circle>
                            <circle id="椭圆形" fill="#000000" opacity="0.1" cx="51.2004766" cy="103.511107" r="4.36262547"></circle>
                            <circle id="椭圆形" fill="#000000" opacity="0.1" cx="105.931609" cy="56.1171288" r="4.36262547"></circle>
                            <circle id="椭圆形" fill="#000000" opacity="0.1" cx="120.407586" cy="85.6640038" r="4.36262547"></circle>
                            <circle id="椭圆形" fill="#FFFFFF" cx="82.5320725" cy="60.479758" r="5.7507375"></circle>
                            <path d="M82.5320725,52.1510934 C78.041813,52.1510934 74.4017385,55.7911679 74.4017385,60.2814273 C74.4017385,64.7716907 82.5320725,79.5166388 82.5320725,79.5166388 C82.5320725,79.5166388 90.6624065,64.7716907 90.6624065,60.2814273 C90.6624065,55.7911679 87.022332,52.1510934 82.5320725,52.1510934 Z M82.5320725,64.2474665 C80.4512131,64.2474665 78.764349,62.5605899 78.764349,60.4797305 C78.764349,58.3988711 80.4512231,56.7120044 82.5320825,56.7120044 C84.6129419,56.7120044 86.2998111,58.3988761 86.2998111,60.4797355 C86.2998111,61.4790018 85.9028564,62.4373412 85.1962677,63.1439285 C84.489679,63.8505158 83.5313388,64.2474665 82.5320725,64.2474665 L82.5320725,64.2474665 L82.5320725,64.2474665 Z" id="形状" fill="#B5E9FF"></path>
                            <circle id="椭圆形" fill="#FFFFFF" cx="51.2004766" cy="85.0690982" r="5.75072998"></circle>
                            <path d="M51.2004766,76.7404485 C46.7102172,76.7404485 43.0701427,80.380523 43.0701427,84.8707825 C43.0701427,89.3610458 51.2004766,104.10599 51.2004766,104.10599 C51.2004766,104.10599 59.3308106,89.3610458 59.3308106,84.8707825 C59.3308106,82.7144838 58.4742243,80.6465016 56.9494909,79.1217682 C55.4247575,77.5970348 53.3567753,76.7404485 51.2004766,76.7404485 Z M51.2004766,88.8368179 C49.1196167,88.8368179 47.4327531,87.1499405 47.4327531,85.0690806 C47.4327531,82.9882207 49.1196293,81.3013558 51.2004892,81.3013558 C53.2813491,81.3013558 54.9682152,82.9882307 54.9682152,85.0690906 C54.9682152,86.0683566 54.5712604,87.0266957 53.8646716,87.7332823 C53.1580828,88.439869 52.1997426,88.8368179 51.2004766,88.8368179 L51.2004766,88.8368179 Z" id="形状" fill="#B5E9FF"></path>
                            <circle id="椭圆形" fill="#FFFFFF" cx="120.407586" cy="67.221995" r="5.7507375"></circle>
                            <path d="M120.407601,58.8933454 C118.251298,58.8933454 116.183313,59.7499347 114.658579,61.274673 C113.133845,62.7994113 112.277267,64.8673993 112.277267,67.0237019 C112.277267,71.5139652 120.407601,86.2589095 120.407601,86.2589095 C120.407601,86.2589095 128.537935,71.5139652 128.537935,67.0237019 C128.537935,64.8673993 127.681357,62.7994113 126.156623,61.274673 C124.631889,59.7499347 122.563903,58.8933454 120.407601,58.8933454 Z M120.407601,70.9897148 C118.326742,70.9897148 116.639881,69.3028344 116.639881,67.221975 C116.639881,65.1411155 118.326759,63.4542527 120.407618,63.4542527 C122.488478,63.4542527 124.175343,65.1411281 124.175343,67.2219875 C124.175343,68.2212535 123.778388,69.1795925 123.0718,69.8861792 C122.365211,70.5927659 121.406871,70.9897148 120.407605,70.9897148 L120.407601,70.9897148 Z" id="形状" fill="#B5E9FF"></path>
                            <circle id="椭圆形" fill="#FFFFFF" cx="82.5320725" cy="21.8110233" r="5.7507375"></circle>
                            <path d="M82.5320725,13.4823774 C78.0418173,13.4823774 74.4017385,17.1224562 74.4017385,21.6127113 C74.4017385,26.1029784 82.5320725,40.8479265 82.5320725,40.8479265 C82.5320725,40.8479265 90.6624065,26.1029784 90.6624065,21.6127113 C90.6624065,19.4564127 89.8058202,17.3884305 88.2810868,15.8636971 C86.7563534,14.3389637 84.6883711,13.4823774 82.5320725,13.4823774 Z M82.5320725,25.5787506 C80.4512131,25.5787506 78.764349,23.8918739 78.764349,21.8110145 C78.764349,19.7301551 80.4512231,18.0432885 82.5320825,18.0432885 C84.6129419,18.0432885 86.2998111,19.7301601 86.2998111,21.8110195 C86.2998111,22.8102858 85.9028564,23.7686253 85.1962677,24.4752125 C84.489679,25.1817998 83.5313388,25.5787506 82.5320725,25.5787506 L82.5320725,25.5787506 Z" id="形状" fill="#B5E9FF"></path>
                            <circle id="椭圆形" fill="#FFFFFF" cx="97.2063541" cy="98.1569783" r="5.7507375"></circle>
                            <path d="M97.2063541,89.8283287 C92.7160946,89.8283287 89.0760201,93.4684032 89.0760201,97.9586626 C89.0760201,102.448926 97.2063541,117.19387 97.2063541,117.19387 C97.2063541,117.19387 105.336688,102.448926 105.336688,97.9586626 C105.336688,95.802364 104.480102,93.7343817 102.955368,92.2096483 C101.430635,90.684915 99.3626527,89.8283287 97.2063541,89.8283287 Z M97.2063541,101.924702 C95.1254946,101.924702 93.4386305,100.237825 93.4386305,98.1569658 C93.4386305,96.0761064 95.1255047,94.3892397 97.2063641,94.3892397 C99.2872235,94.3892397 100.974093,96.0761114 100.974093,98.1569708 C100.974093,99.1562371 100.577138,100.114577 99.8705493,100.821164 C99.1639606,101.527751 98.2056204,101.924702 97.2063541,101.924702 Z" id="形状" fill="#D4DCE8"></path>
                            <circle id="椭圆形" fill="#FFFFFF" cx="49.0191695" cy="53.9358142" r="5.7507375"></circle>
                            <path d="M49.0191733,45.6071721 C44.5289138,45.6071721 40.8888393,49.2472466 40.8888393,53.737506 C40.8888393,58.2277694 49.0191733,72.9727175 49.0191733,72.9727175 C49.0191733,72.9727175 57.1495073,58.2277694 57.1495073,53.737506 C57.1495073,49.2472466 53.5094328,45.6071721 49.0191733,45.6071721 L49.0191733,45.6071721 Z M49.0191733,57.7035415 C46.9383134,57.7035415 45.251446,56.0166678 45.251446,53.9358079 C45.251446,51.854948 46.9383184,50.1680794 49.0191783,50.1680794 C51.1000382,50.1680794 52.7869081,51.8549505 52.7869081,53.9358104 C52.7869081,54.9350758 52.3899527,55.8934141 51.683365,56.600001 C50.9767773,57.306588 50.0184387,57.7035415 49.0191733,57.7035415 Z" id="形状" fill="#D4DCE8"></path>
                            <circle id="椭圆形" fill="#FFFFFF" cx="105.931609" cy="37.8734206" r="5.7507375"></circle>
                            <path d="M105.931594,29.5447898 C101.441334,29.5447898 97.8012598,33.1848643 97.8012598,37.6751237 C97.8012598,42.1653908 105.931594,56.9103351 105.931594,56.9103351 C105.931594,56.9103351 114.061928,42.1653871 114.061928,37.67512 C114.061928,33.184862 110.421852,29.5447898 105.931594,29.5447898 Z M105.931594,41.6411629 C103.850734,41.6411629 102.163866,39.9542893 102.163866,37.8734294 C102.163866,35.7925695 103.850739,34.1057008 105.931599,34.1057008 C108.012459,34.1057008 109.699329,35.792572 109.699329,37.8734319 C109.699329,39.9542873 108.012449,41.6411629 105.931594,41.6411629 L105.931594,41.6411629 L105.931594,41.6411629 Z" id="形状" fill="#D4DCE8"></path>
                        </g>
                        <g id="编组-13" transform="translate(0.000000, 54.052410)">
                            <polygon id="路径" fill="#FFB8B8" points="51.9581632 102.682904 55.309575 102.302424 55.437502 89.1949981 50.4912671 89.7565013"></polygon>
                            <path d="M51.3284378,101.196141 L61.9286987,101.196141 L61.9286987,105.291695 L55.4239885,105.291695 C53.1620783,105.291695 51.3284378,103.458054 51.3284378,101.196141 L51.3284378,101.196141 L51.3284378,101.196141 Z" id="路径" fill="#2F2E41" transform="translate(56.628568, 103.243918) rotate(173.525940) translate(-56.628568, -103.243918) "></path>
                            <polygon id="路径" fill="#FFB8B8" points="17.4921579 102.473544 20.8650285 102.473269 22.4694805 89.4637824 17.4916077 89.4640575"></polygon>
                            <path d="M16.7695199,101.509655 L27.369778,101.509655 L27.369778,105.605209 L20.8650706,105.605209 C18.6031604,105.605209 16.7695199,103.771568 16.7695199,101.509655 L16.7695199,101.509655 L16.7695199,101.509655 Z" id="路径" fill="#2F2E41" transform="translate(22.069649, 103.557432) rotate(179.997380) translate(-22.069649, -103.557432) "></path>
                            <path d="M41.6914176,44.2962035 L43.6172001,50.5602872 L54.0714482,73.1829416 L56.8225661,94.6416614 L50.4949949,94.9167732 L46.6434298,75.1087242 L33.4380638,60.802911 L21.8833686,98.2181147 L16.6562445,97.6678911 C16.6562445,97.6678911 21.0580332,49.2482158 27.1104926,44.2962035 C27.1104926,44.2962035 37.0145171,39.6193031 41.6914176,44.2962035 Z" id="路径" fill="#2F2E41"></path>
                            <circle id="椭圆形" fill="#FFB8B8" cx="33.1488718" cy="10.5105222" r="6.75702897"></circle>
                            <path d="M42.379197,45.5342066 C42.379197,45.5342066 43.2045324,17.4728038 31.6498372,19.3985864 C20.0951419,21.3243689 24.9095983,48.4228804 24.9095983,48.4228804 C24.9095983,48.4228804 27.3856044,53.3748926 33.4380638,47.8726568 C39.4905232,42.370421 42.379197,45.5342066 42.379197,45.5342066 Z" id="路径" fill="#CCCCCC"></path>
                            <polygon id="路径" fill="#000000" opacity="0.2" points="26.4228369 31.2283934 29.1417668 41.6504534 33.284125 45.7930868 27.5232841 43.8835358"></polygon>
                            <path d="M42.464567,57.4020533 C41.6948778,57.1229837 41.0883319,56.5173224 40.8081392,55.7480413 C40.5279465,54.9787603 40.6028893,54.1248825 41.0128021,53.4161704 L34.5865015,45.9762259 L39.652509,45.3168132 L44.9783597,52.483005 C46.1490038,53.2677763 46.5476759,54.8040931 45.9063436,56.0590698 C45.2650114,57.3140465 43.7863886,57.891007 42.4645725,57.4020533 L42.464567,57.4020533 Z" id="路径" fill="#FFB8B8"></path>
                            <path d="M34.6402913,25.1142457 L35.3638353,39.3441913 L43.8923009,50.3486629 L40.3158476,53.0997808 L28.7611523,41.5450856 C28.7611523,41.5450856 24.6344755,27.5143842 27.6607052,23.3877073 C28.7955413,21.8402035 30.0464416,21.4146386 31.1667684,21.4871773 C33.0742029,21.6460078 34.5640646,23.2017282 34.6402913,25.1142457 Z" id="路径" fill="#CCCCCC"></path>
                            <path d="M32.3452372,17.6104147 C32.4106697,17.5517638 32.4446287,17.4657017 32.4368767,17.3781732 C32.4291247,17.2906447 32.3805687,17.2118906 32.3058467,17.1656525 C31.083606,16.4087195 30.3722918,15.0447457 30.4511876,13.6092683 C30.5300833,12.1737909 31.386593,10.8959868 32.6844253,10.2775603 C34.6710241,9.33037515 37.3629902,10.0672538 38.8315617,8.24712797 C39.4359058,7.45913531 39.6671691,6.44704202 39.4650451,5.47477143 C39.1481659,3.75566937 37.8558062,2.47899659 36.4084843,1.60406131 C32.7814403,-0.58855279 28.2235183,-0.52926867 24.6547296,1.75694041 C21.0859408,4.0431495 19.1266296,8.1588835 19.6021498,12.3704017 C19.7889672,14.024957 20.2995005,15.8802174 19.3156787,17.2235525 C18.4498083,18.4058317 16.8154214,18.6275195 15.3797286,18.9212894 C12.3003665,19.5513807 9.32956632,21.0049559 7.23985016,23.3528452 C5.15013401,25.7007345 4.03533151,28.9949011 4.66538703,32.0742714 C5.29544255,35.1536417 7.82313668,37.8598971 10.9298503,38.3372078 C13.4585816,38.7257179 16.0696732,37.6518218 17.9266365,35.8919564 C19.7835998,34.1320911 20.9573753,31.7555571 21.6977396,29.3066192 C22.576488,26.3999449 22.9231151,23.2678136 24.5096105,20.6786073 C26.0620993,18.1449047 29.4076843,16.3286386 32.0297693,17.6481821 C32.1326418,17.7019078 32.257954,17.6869056 32.3452372,17.6104147 L32.3452372,17.6104147 Z" id="路径" fill="#2F2E41"></path>
                            <path d="M84.7344318,105.94759 L0.275111792,105.94759 C0.123171745,105.94759 0,105.824418 0,105.672478 C0,105.520538 0.123171745,105.397366 0.275111792,105.397366 L84.7344318,105.397366 C84.8863719,105.397366 85.0095436,105.520538 85.0095436,105.672478 C85.0095436,105.824418 84.8863719,105.94759 84.7344318,105.94759 Z" id="路径" fill="#3F3D56"></path>
                        </g>
                    </g>
                </g>
            </g>
        </g>
    </g>
</svg>