<?xml version="1.0" encoding="UTF-8"?>
<svg width="265px" height="162px" viewBox="0 0 265 162" version="1.1" xmlns="http://www.w3.org/2000/svg" xmlns:xlink="http://www.w3.org/1999/xlink">
    <title>undraw_Segmentation_re_gduq</title>
    <g id="页面-1" stroke="none" stroke-width="1" fill="none" fill-rule="evenodd">
        <g id="inst-导航" transform="translate(-399.000000, -3771.000000)" fill-rule="nonzero">
            <g id="编组-10" transform="translate(0.000000, 2405.000000)">
                <g id="编组-3备份-3" transform="translate(320.000000, 1287.000000)">
                    <g id="undraw_Segmentation_re_gduq" transform="translate(80.000000, 80.000000)">
                        <path d="M229.767598,-0.5 C230.804679,-0.5 231.744292,-0.0798481945 232.424516,0.599595004 C233.104566,1.27886554 233.525371,2.21723892 233.525371,3.25403489 L233.525371,3.25403489 L233.525371,156.745946 C233.525371,157.236299 233.429733,157.721896 233.242762,158.168495 C233.108934,158.499616 232.925873,158.80863 232.694483,159.091443 C231.902563,160.027699 230.860446,160.5 229.767598,160.5 L229.767598,160.5 L3.25347572,160.5 C2.21717962,160.499057 1.2786802,160.078558 0.599346075,159.399203 C-0.0798559497,158.719979 -0.5,157.782044 -0.5,156.745965 L-0.5,156.745965 L-0.5,3.25403489 C-0.5,2.2179565 -0.0798559497,1.28002131 0.599346075,0.600797472 C1.2786802,-0.0785584641 2.21717962,-0.49905742 3.2539304,-0.5 L3.2539304,-0.5 Z" id="形状" stroke="#000000" opacity="0.197028"></path>
                        <rect id="矩形" fill="#000000" opacity="0.196502" x="0.463729826" y="13.0419666" width="232.095069" height="1"></rect>
                        <circle id="椭圆形" fill="#3F3D56" cx="8.37077339" cy="6.97680754" r="2.79072302"></circle>
                        <circle id="椭圆形" fill="#3F3D56" cx="16.3941002" cy="6.97680754" r="2.79072302"></circle>
                        <circle id="椭圆形" fill="#3F3D56" cx="24.417427" cy="6.97680754" r="2.79072302"></circle>
                        <path d="M28.0069596,71.553742 L19.7972385,71.553742 C18.8702345,71.5527137 18.1190057,70.8014849 18.1179774,69.8744808 L18.1179774,61.6647598 C18.1190057,60.7377557 18.8702345,59.9865269 19.7972385,59.9854986 L28.0069596,59.9854986 C28.9339636,59.9865269 29.6851924,60.7377557 29.6862207,61.6647598 L29.6862207,69.8744808 C29.6851924,70.8014849 28.9339636,71.5527137 28.0069596,71.553742 Z" id="路径" fill="#0045FF"></path>
                        <path d="M28.0069596,92.8243829 L19.7972385,92.8243829 C18.8702345,92.8233546 18.1190057,92.0721258 18.1179774,91.1451217 L18.1179774,82.9354007 C18.1190057,82.0083966 18.8702345,81.2571679 19.7972385,81.2561396 L28.0069596,81.2561396 C28.9339636,81.2571679 29.6851924,82.0083966 29.6862207,82.9354007 L29.6862207,91.1451217 C29.6851924,92.0721258 28.9339636,92.8233546 28.0069596,92.8243829 Z" id="路径" fill="#00B5FF" opacity="0.10245"></path>
                        <path d="M28.0069596,114.095024 L19.7972385,114.095024 C18.8702345,114.093995 18.1190057,113.342767 18.1179774,112.415763 L18.1179774,104.206042 C18.1190057,103.279038 18.8702345,102.527809 19.7972385,102.52678 L28.0069596,102.52678 C28.9339636,102.527809 29.6851924,103.279038 29.6862207,104.206042 L29.6862207,112.415763 C29.6851924,113.342767 28.9339636,114.093995 28.0069596,114.095024 Z" id="路径" fill="#CCCCCC"></path>
                        <path d="M81.7433156,67.4488814 L42.1873869,67.4488814 C41.2599566,67.4488814 40.5081258,66.6970506 40.5081258,65.7696203 C40.5081258,64.84219 41.2599566,64.0903592 42.1873869,64.0903592 L81.7433156,64.0903592 C82.6707459,64.0903592 83.4225767,64.84219 83.4225767,65.7696203 C83.4225767,66.6970506 82.6707459,67.4488814 81.7433156,67.4488814 L81.7433156,67.4488814 Z" id="路径" fill="#CCCCCC"></path>
                        <path d="M81.7433156,88.7195223 L42.1873869,88.7195223 C41.2599566,88.7195223 40.5081258,87.9676915 40.5081258,87.0402612 C40.5081258,86.1128309 41.2599566,85.3610001 42.1873869,85.3610001 L81.7433156,85.3610001 C82.6707459,85.3610001 83.4225767,86.1128309 83.4225767,87.0402612 C83.4225767,87.9676915 82.6707459,88.7195223 81.7433156,88.7195223 L81.7433156,88.7195223 Z" id="路径" fill="#CCCCCC"></path>
                        <path d="M81.7433156,109.990163 L42.1873869,109.990163 C41.2599566,109.990163 40.5081258,109.238332 40.5081258,108.310902 C40.5081258,107.383472 41.2599566,106.631641 42.1873869,106.631641 L81.7433156,106.631641 C82.6707459,106.631641 83.4225767,107.383472 83.4225767,108.310902 C83.4225767,109.238332 82.6707459,109.990163 81.7433156,109.990163 L81.7433156,109.990163 Z" id="路径" fill="#CCCCCC"></path>
                        <path d="M217.490997,64.1163952 C217.674049,64.2001043 217.850095,64.2983522 218.017446,64.410195 L234.75494,57.2665435 L235.352357,52.8574531 L242.040134,52.8165687 L241.645045,62.9287807 L219.553484,68.771057 C219.50701,68.9246083 219.451244,69.0751923 219.386495,69.2219759 C218.494912,71.1244342 216.234119,71.9494986 214.326732,71.06851 C212.419344,70.1875213 211.581719,67.9313523 212.452086,66.0190946 C213.322453,64.106837 215.573929,63.2566769 217.490997,64.1163952 L217.490997,64.1163952 Z" id="路径" fill="#FFB8B8"></path>
                        <polygon id="路径" fill="#FFB8B8" points="244.472443 155.751843 239.89739 155.751469 237.721067 138.105047 244.47319 138.10542"></polygon>
                        <path d="M236.629447,154.444355 L245.452609,154.444355 L245.452609,159.999675 L231.07413,159.999675 L231.07413,159.999675 C231.07413,158.526313 231.659419,157.113296 232.701243,156.071471 C233.743067,155.029646 235.156085,154.444355 236.629447,154.444355 L236.629447,154.444355 Z" id="路径" fill="#2F2E41"></path>
                        <polygon id="路径" fill="#FFB8B8" points="262.265148 154.458811 257.712111 154.907361 253.815852 137.559474 260.535509 136.897472"></polygon>
                        <path d="M254.596416,153.753338 L263.419579,153.753338 L263.419579,159.308659 L249.041092,159.308659 L249.041092,159.308659 C249.041092,157.835295 249.626382,156.422277 250.668208,155.380452 C251.710033,154.338627 253.123052,153.753338 254.596416,153.753338 L254.596416,153.753338 Z" id="路径" fill="#2F2E41" transform="translate(256.230335, 156.530999) rotate(-5.625290) translate(-256.230335, -156.530999) "></path>
                        <circle id="椭圆形" fill="#FFB8B8" cx="245.745849" cy="24.97555" r="9.16541842"></circle>
                        <path d="M238.875003,152.183019 C238.063321,152.185115 237.367906,151.602752 237.227462,150.80331 C234.859438,137.658207 227.119093,94.6767012 226.933964,93.4861349 C226.929874,93.4587536 226.92812,93.4310951 226.92812,93.4034108 L226.92812,90.1986715 C226.92812,90.0819404 226.964296,89.9680779 227.032357,89.8732419 L228.05493,88.4410598 C228.153392,88.3014371 228.310983,88.2153067 228.481668,88.2078291 C234.311342,87.9345125 253.403463,87.1335125 254.325818,88.2858214 L254.325818,88.2858214 C255.25218,89.4439556 254.92493,92.9529844 254.849859,93.6446609 L254.853501,93.7168169 L263.430928,148.570859 C263.570607,149.4812 262.953005,150.334866 262.044661,150.486993 L256.687273,151.369624 C255.862675,151.502083 255.065252,151.011325 254.811953,150.215494 C253.154921,144.920795 247.598925,127.109607 245.673317,120.217651 C245.648436,120.127346 245.560371,120.069558 245.467625,120.082677 C245.374878,120.095795 245.306295,120.175739 245.307435,120.269402 C245.403642,126.839216 245.636145,143.601217 245.716317,149.390443 L245.725064,150.013968 C245.73244,150.889084 245.069032,151.624359 244.197768,151.706715 L239.031708,152.176091 C238.979229,152.180827 238.926754,152.183019 238.875003,152.183019 Z" id="路径" fill="#2F2E41"></path>
                        <path d="M239.929034,37.7448568 C238.329505,38.6956918 237.372393,40.4430301 236.823237,42.2210579 C235.806362,45.5128621 235.194279,48.9162839 235.000515,52.356119 L234.420039,62.6556656 L227.234638,89.9604142 C233.462345,95.2298237 237.05474,94.0322605 245.438011,89.7220375 C253.821282,85.4118145 254.779259,91.1591753 254.779259,91.1591753 L256.455666,67.9262655 L258.850807,42.5387032 C258.313196,41.891303 257.704682,41.3062311 257.036671,40.7944547 C252.551128,37.3065146 246.713338,36.0692314 241.198519,37.4376565 L239.929034,37.7448568 Z" id="e15ec395-f7cd-4347-89a2-a03d95a452a7" fill="#B3B3B3"></path>
                        <path d="M237.59513,69.6309171 C237.788405,69.7036185 237.975645,69.7914474 238.155111,69.8935871 L254.704536,61.6102771 L254.979188,57.1227279 L261.80587,56.6520608 L262.171725,66.8815972 L240.055535,74.1954772 C239.685781,75.7813784 238.373322,76.973046 236.759195,77.1884407 C235.145068,77.4038354 233.566058,76.5980154 232.793391,75.1645628 C232.020724,73.7311101 232.215616,71.9691122 233.282878,70.7391714 C234.350139,69.5092307 236.067087,69.0679721 237.595123,69.6309171 L237.59513,69.6309171 Z" id="路径" fill="#FFB8B8"></path>
                        <path d="M258.731023,42.6549081 C262.802862,44.0920459 263.520104,59.6616028 263.520104,59.6616028 C258.72984,57.0268943 252.981289,61.3383189 252.981289,61.3383189 C252.981289,61.3383189 251.783726,57.2664726 250.346588,51.9970632 C249.464573,48.9844865 250.187727,45.7300664 252.262573,43.3745237 C252.262573,43.3745237 254.659185,41.2168784 258.731023,42.6549081 Z" id="bf6aefed-5d84-44a4-8c4e-9d1f3daa58d8" fill="#B3B3B3"></path>
                        <path d="M253.964049,27.3993843 C252.822151,26.4857281 251.264107,28.1463681 251.264107,28.1463681 L250.350439,19.9241496 C250.350439,19.9241496 244.640578,20.6081351 240.98632,19.6959157 C237.332061,18.7836962 236.761093,23.0078403 236.761093,23.0078403 C236.572704,21.3015223 236.534515,19.5819571 236.646967,17.8689579 C236.875194,15.8134005 239.844426,13.7578468 245.09742,12.387357 C250.350413,11.0168672 253.091042,16.955313 253.091042,16.955313 C256.745726,18.7822558 255.105943,28.3130479 253.964049,27.3993843 Z" id="f516f9fe-dc87-4aac-a802-2e179304beb7" fill="#2F2E41"></path>
                        <path d="M219.350167,87.7865995 C219.409202,86.7987163 219.442713,85.803978 219.442713,84.8012464 C219.442713,57.5966342 197.388999,35.54292 170.184387,35.54292 L170.184387,87.7865995 L219.350167,87.7865995 Z" id="路径" fill="#0045FF"></path>
                        <path d="M166.45271,92.2646292 L166.45271,40.0209497 C139.635876,40.0198623 117.745251,61.4709436 117.202477,88.2822845 C116.659703,115.093625 137.664227,137.413085 164.459134,138.497325 C191.254041,139.581565 213.993228,119.032168 215.618491,92.2646292 L166.45271,92.2646292 Z" id="路径" fill="#00B5FF" opacity="0.09942"></path>
                    </g>
                </g>
            </g>
        </g>
    </g>
</svg>