<?xml version="1.0" encoding="UTF-8"?>
<svg width="225px" height="160px" viewBox="0 0 225 160" version="1.1" xmlns="http://www.w3.org/2000/svg" xmlns:xlink="http://www.w3.org/1999/xlink">
    <title>undraw_Security_on_re_e491</title>
    <g id="页面-1" stroke="none" stroke-width="1" fill="none" fill-rule="evenodd">
        <g id="inst-导航" transform="translate(-1080.000000, -3492.000000)" fill-rule="nonzero">
            <g id="编组-10" transform="translate(0.000000, 2405.000000)">
                <g id="编组-3备份-2" transform="translate(1000.000000, 1007.000000)">
                    <g id="undraw_Security_on_re_e491" transform="translate(80.000000, 80.000000)">
                        <path d="M204.905946,143.934066 C206.874116,147.413005 205.205151,159.162959 205.205151,159.162959 C205.205151,159.162959 194.276198,154.536775 192.308395,151.059282 C190.345322,147.58102 191.571412,143.170009 195.047858,141.203722 C198.524305,139.237436 202.936448,140.459449 204.905946,143.934077 L204.905946,143.934066 Z" id="路径" fill="#F1F1F1"></path>
                        <path d="M205.363631,159.147808 L205.131455,159.196721 C202.895233,148.572518 195.086107,141.367953 195.007494,141.296427 L195.167149,141.12091 C195.246316,141.192899 203.111151,148.44646 205.363631,159.147808 Z" id="路径" fill="#FFFFFF"></path>
                        <path d="M222.788529,147.895386 C220.117875,152.740068 205.060727,159.303134 205.060727,159.303134 C205.060727,159.303134 202.578299,143.066668 205.247513,138.223471 C206.975234,135.09007 210.243364,133.116417 213.820829,133.045967 C217.398294,132.975517 220.741593,134.818974 222.591337,137.881925 C224.441081,140.944875 224.516251,144.761985 222.788529,147.895386 Z" id="路径" fill="#F1F1F1"></path>
                        <path d="M205.19362,159.478874 L204.967442,159.240792 C215.863146,148.893258 218.683738,134.461315 218.710962,134.316753 L219.033683,134.377466 C219.006332,134.523014 216.168436,149.056186 205.19362,159.478874 Z" id="路径" fill="#FFFFFF"></path>
                        <path d="M52.7590743,111.21071 C51.0359032,111.204969 49.3202611,110.983039 47.6523483,110.55012 L47.3236031,110.459162 L47.0186469,110.306373 C35.9934414,104.778548 26.6920715,97.4770574 19.3728606,88.6046273 C13.3140812,81.2170451 8.59039349,72.8292191 5.41418656,63.8182875 C1.61593855,53.0300028 -0.211391232,41.6466225 0.0194303869,30.2115669 C0.0240879212,29.9715368 0.028030387,29.786208 0.028030387,29.6585231 C0.028030387,24.09986 3.11350984,19.2225504 7.88863588,17.2328874 C11.5432852,15.7101121 44.7257291,2.08076137 47.1232442,1.09600246 C51.6384168,-1.16638658 56.455299,0.72193397 57.2261319,1.05215041 C58.9551565,1.75906822 89.6302963,14.3055751 96.2591785,17.462071 C103.090899,20.7152628 104.913672,26.5595121 104.913672,29.4998436 C104.913672,42.8116847 102.608192,55.2526601 98.0612634,66.4772135 C94.389153,75.5626697 89.1846078,83.950313 82.6743785,91.2747122 C70.1136195,105.410003 57.5495291,110.421041 57.4282743,110.465205 C55.9267027,110.981874 54.3468767,111.234116 52.7590743,111.21071 Z M49.8044086,103.891877 C50.8936853,104.13609 53.4015291,104.502411 55.0361072,103.906123 C57.112625,103.148841 67.6285538,97.6957122 77.4553839,86.6371122 C91.0326689,71.3579341 97.9218004,52.1506957 97.9318744,29.5489559 C97.9076223,29.0910546 97.5824443,25.8251532 93.2574826,23.7657587 C86.7571401,20.6703258 54.8729456,7.6329148 54.5516305,7.50151206 L54.4635373,7.46416686 C53.7953565,7.18416686 51.6688661,6.59438604 50.2030387,7.36252302 L49.9095483,7.49935316 C49.554151,7.64532302 14.3305975,22.1123778 10.5739838,23.6776107 C7.94612629,24.772545 7.00982766,27.4850874 7.00982766,29.658534 C7.00982766,29.8173642 7.00571807,30.048397 6.99991259,30.3470107 C6.69967971,45.8119861 10.2783619,83.8664711 49.8044086,103.891877 Z" id="形状" fill="#0045FF" opacity="0.197933"></path>
                        <path d="M48.5832606,4.27016685 C48.5832606,4.27016685 13.0395619,18.868471 9.23130164,20.4552436 C5.42304136,22.0420162 3.5189208,25.8502683 3.5189208,29.6585313 C3.5189208,33.4667943 0.662739977,83.1593889 48.5832606,107.185666 C48.5832606,107.185666 52.9325154,108.389066 56.2322524,107.185666 C59.5319894,105.982266 101.422773,85.671578 101.422773,29.4998436 C101.422773,29.4998436 101.422773,23.7874655 94.7583292,20.6139203 C88.0938853,17.4403751 55.8724168,4.27016685 55.8724168,4.27016685 C55.8724168,4.27016685 51.9154798,2.52471754 48.5832606,4.27016685 Z" id="路径" fill="#0045FF"></path>
                        <path d="M52.3915127,15.6949258 L52.3915127,93.5717067 C52.3915127,93.5717067 16.5304606,76.3096245 16.8478167,30.927945 L52.3915127,15.6949258 Z" id="路径" fill="#000000" opacity="0.05"></path>
                        <polygon id="路径" fill="#FFFFFF" points="52.8591839 71.6660272 41.4356222 56.977808 48.0789099 51.8109587 53.487951 58.7654793 71.7605538 39.4761642 77.8709648 45.2654793"></polygon>
                        <path d="M224.130269,160 L119.746707,160 C119.595396,160 119.472735,159.877338 119.472735,159.726027 C119.472735,159.574717 119.595396,159.452055 119.746707,159.452055 L224.130269,159.452055 C224.28158,159.452055 224.404242,159.574717 224.404242,159.726027 C224.404242,159.877338 224.28158,160 224.130269,160 Z" id="路径" fill="#CACACA"></path>
                        <polygon id="路径" fill="#FFB8B8" points="149.920828 155.68137 154.157814 155.681096 156.173705 139.337808 149.920006 139.338082"></polygon>
                        <path d="M148.839883,154.297956 L157.184436,154.297619 L157.184773,154.297619 C160.121618,154.29777 162.502379,156.678489 162.502581,159.615334 L162.502581,159.788142 L148.84014,159.788649 L148.839883,154.297956 Z" id="路径" fill="#2F2E41"></path>
                        <polygon id="路径" fill="#FFB8B8" points="164.167403 155.68137 168.40439 155.681096 170.42028 139.337808 164.166581 139.338082"></polygon>
                        <path d="M163.086458,154.297956 L171.431012,154.297619 L171.431348,154.297619 C174.368194,154.29777 176.748954,156.678489 176.749157,159.615334 L176.749157,159.788142 L163.086716,159.788649 L163.086458,154.297956 Z" id="路径" fill="#2F2E41"></path>
                        <polygon id="路径" fill="#2F2E41" points="156.580554 98.2876711 157.596992 150.136986 149.374801 149.627123 143.670691 116.601918 141.869047 94.0843834"></polygon>
                        <polygon id="路径" fill="#2F2E41" points="170.691343 89.5810684 171.843568 150.958904 162.254527 150.684931 160.183294 114.199931 156.580521 100.989827 141.869233 94.0845232 144.27108 77.5718684 165.887653 77.2716382"></polygon>
                        <circle id="椭圆形" fill="#FFB8B8" cx="154.159088" cy="27.285997" r="7.35294796"></circle>
                        <polygon id="路径" fill="#CCCCCC" points="160.257814 37.7364381 161.384116 39.4427395 164.386581 47.8490409 161.984664 80.5739725 147.873705 80.8745204 146.072609 43.3454792 149.846033 38.6287669"></polygon>
                        <path d="M140.368083,44.2463012 L137.966236,43.946071 C137.966236,43.946071 137.365773,44.2463012 137.065551,46.3479094 C136.765329,48.4495176 133.162559,67.0637998 133.162559,67.0637998 L137.966236,89.881293 L143.370392,82.6757697 L140.067861,70.0661094 L143.370392,57.4564382 L140.368083,44.2463012 Z" id="路径" fill="#2F2E41"></path>
                        <polygon id="路径" fill="#2F2E41" points="170.991513 43.9463012 172.792883 43.9463012 177.296444 68.2646574 173.093157 87.179178 168.889869 80.2739725 170.090691 72.768219 169.490417 66.1632875 167.388773 62.2599998"></polygon>
                        <path d="M158.504028,27.2859943 L157.167127,26.9517669 C157.167127,26.9517669 156.164458,21.2699422 153.824869,21.9383915 C151.48528,22.6068409 145.469253,23.2752957 145.469253,20.6014902 C145.469253,17.9276847 151.15108,15.5881148 154.493316,15.9223395 C157.835551,16.2565641 162.104129,17.3653532 163.183162,22.272608 C164.912907,30.1391833 159.614291,32.1261669 159.614291,32.1261669 L159.702469,31.839745 C160.201906,30.2174423 159.737353,28.4522727 158.504025,27.2859943 L158.504028,27.2859943 Z" id="路径" fill="#2F2E41"></path>
                        <path d="M138.266474,43.9460793 L147.873847,40.0430875 L150.125573,38.3918217 L156.880757,68.2647204 L160.033168,37.4911176 L172.49271,43.946071 L168.289494,64.3617176 L167.689033,72.167704 L169.490417,78.4725341 C169.490417,78.4725341 175.795239,82.9759889 173.693633,87.7796574 C171.592028,92.5833259 169.190179,92.8835752 169.190179,92.8835752 C169.190179,92.8835752 158.982346,83.2762108 158.381902,80.8743642 C157.781458,78.4725177 156.880757,74.269304 156.880757,74.269304 C156.880757,74.269304 151.776839,93.4840355 145.772264,93.1837971 C139.767688,92.8835588 139.767664,86.5787341 139.767664,86.5787341 L141.268809,79.9736711 L143.670655,73.0683779 L142.469732,61.6596327 L138.266474,43.9460793 Z" id="路径" fill="#2F2E41"></path>
                    </g>
                </g>
            </g>
        </g>
    </g>
</svg>