<?xml version="1.0" encoding="UTF-8"?>
<svg width="113px" height="70px" viewBox="0 0 113 70" version="1.1" xmlns="http://www.w3.org/2000/svg" xmlns:xlink="http://www.w3.org/1999/xlink">
    <title>编组</title>
    <g id="页面-1" stroke="none" stroke-width="1" fill="none" fill-rule="evenodd">
        <g id="编组" transform="translate(0.000000, -0.000000)" fill-rule="nonzero">
            <path d="M21.0860926,0.145287561 C17.8293426,0.555287561 14.5727176,3.25103756 13.5065926,6.35628756 C12.7962176,8.29003756 0.0645925648,63.1336626 0.00596756478,64.1300376 C-0.112657435,67.0010376 1.54521756,69.1105376 4.26896756,69.6380376 C5.27584256,69.8722876 37.6068426,69.8722876 38.6729676,69.6380376 C41.7518426,69.0517876 44.6533426,66.6495376 45.7194676,63.7199126 C46.1339676,62.6066626 59.2794676,6.70828756 59.2794676,5.77053756 C59.4572176,3.13353756 57.8579676,0.965537561 55.3122176,0.203912561 C54.7198426,0.0871625612 22.4482176,-0.0303374388 21.0859676,0.145162561 L21.0860926,0.145287561 Z" id="路径" fill="#E60012"></path>
            <path d="M51.2259676,0.145287561 C47.9692176,0.555287561 44.7125926,3.25103756 43.6469676,6.35628756 C42.9952176,8.29003756 30.2052176,63.1336626 30.2052176,64.1300376 C30.0864676,67.0010376 31.7444676,69.1105376 34.4687176,69.6380376 C35.4749676,69.8722876 67.8059676,69.8722876 68.8720926,69.6380376 C71.9514676,69.0517876 74.8529676,66.6495376 75.9185926,63.7199126 C76.3332176,62.6066626 89.4784676,6.70828756 89.4784676,5.77053756 C89.6564676,3.13353756 88.0577176,0.965537561 85.5114676,0.203912561 C84.8597176,0.0871625612 52.5880926,-0.0303374388 51.2259676,0.145162561 L51.2259676,0.145287561 Z" id="路径" fill="#00508E"></path>
            <path d="M82.6692176,0.145287561 C79.4124676,0.555287561 76.1552176,3.25103756 75.0895926,6.35628756 C74.4384676,8.29003756 61.6478426,63.1336626 61.6478426,64.1300376 C61.5297176,67.0010376 63.1878426,69.1105376 65.9113426,69.6380376 C66.9182176,69.8722876 90.9592176,69.8722876 92.0248426,69.6380376 C95.1040926,69.0517876 98.0057176,66.6495376 99.0713426,63.7199126 C99.4858426,62.6066626 112.631843,6.70828756 112.631843,5.77053756 C112.809093,3.13353756 111.210468,0.965537561 108.663968,0.203912561 C108.072218,0.0284125612 81.0704676,-0.0889624388 79.7083426,0.0871625612 L82.6692176,0.0871625612 L82.6692176,0.145287561 Z" id="路径" fill="#00908C"></path>
            <path d="M20.0793426,17.9577876 C20.0793426,18.0165376 20.0198426,18.3680376 19.9018426,18.7196626 C18.5398426,23.2899126 17.1777176,29.4422876 17.3555926,30.2039126 C17.8293426,32.4892876 21.2047176,32.3134126 22.3888426,29.9110376 C22.7440926,29.2667876 25.2903426,18.5440376 25.2903426,17.7825376 C25.2903426,17.7237876 29.3168426,17.7825376 29.3168426,17.8405376 C29.3168426,17.8405376 29.3168426,18.0165376 29.2574676,18.1926626 C29.1982176,18.3680376 28.5470926,20.8290376 27.8367176,23.7587876 C26.2373426,29.9697876 26.0600926,30.6140376 25.2310926,31.8445376 C22.5069676,35.8292876 13.3878426,35.7120376 12.6774676,31.6690376 C12.4997176,30.7900376 14.4540926,20.6535376 15.3424676,17.8991626 C15.3424676,17.7237876 20.0793426,17.8405376 20.0793426,17.9579126 L20.0793426,17.9577876 Z M80.5967176,17.9577876 C83.3204676,18.5440376 84.1492176,20.7115376 82.9057176,23.9347876 C81.6623426,27.1572876 78.9979676,28.5632876 74.3199676,28.5632876 C72.8985926,28.5632876 73.0170926,28.3290376 72.1288426,32.7235376 C71.9514676,33.5437876 71.7737176,34.3055376 71.7737176,34.4227876 C71.7142176,34.7156626 67.5099676,34.7156626 67.5693426,34.4227876 C71.1225926,19.3642876 71.4184676,18.0752876 71.4184676,17.9577876 L71.4777176,17.7825376 L75.7407176,17.7825376 C79.1160926,17.8405376 80.0635926,17.8405376 80.5967176,17.9579126 L80.5967176,17.9577876 Z M44.0614676,23.7587876 C44.6533426,23.8760376 45.0677176,24.3450376 45.0677176,24.7550376 C45.0677176,26.2196626 42.0477176,27.2160376 40.9227176,26.1024126 C39.8570926,24.9892876 42.1070926,23.2899126 44.0614676,23.7586626 L44.0614676,23.7587876 Z M33.5803426,24.8717876 C33.5803426,24.9892876 33.5210926,25.2239126 33.5210926,25.3992876 L33.4618426,25.6340376 L34.1722176,25.2820376 C36.0672176,24.3449126 37.9027176,24.5202876 38.4950926,25.6921626 C38.8502176,26.3957876 38.7909676,26.8059126 37.8438426,31.1415376 C37.6660926,31.9032876 37.4294676,32.9582876 37.3700926,33.4850376 C37.1329676,34.6575376 37.3108426,34.5987876 35.1790926,34.5987876 C33.3432176,34.5987876 33.3432176,34.5987876 33.4025926,34.4227876 C33.4025926,34.3055376 33.6395926,33.3684126 33.8763426,32.2546626 C34.8238426,28.0950376 34.8832176,27.5087876 34.0540926,27.5087876 C33.5803426,27.5087876 32.9285926,27.8016626 32.8699676,27.9775376 C32.7514676,28.3877876 31.6852176,33.4850376 31.6259676,33.9540376 L31.5078426,34.4815376 L29.6719676,34.5987876 C27.4222176,34.6575376 27.5994676,34.8329126 28.0732176,32.8407876 C28.7244676,30.2625376 29.0800926,28.4465376 29.3168426,26.8057876 C29.6127176,25.0479126 29.4353426,25.2239126 31.0933426,24.9892876 C31.8630926,24.8717876 32.6327176,24.7550376 32.8699676,24.6964126 C33.4618426,24.5202876 33.5803426,24.5789126 33.5803426,24.8717876 Z M61.7070926,24.8137876 C61.7070926,24.9304126 61.6478426,25.1651626 61.6478426,25.3407876 L61.5883426,25.6340376 L62.2993426,25.2820376 C65.9705926,23.4072876 67.3914676,24.9304126 66.3258426,29.7355376 C66.0892176,30.7900376 65.7927176,32.3134126 65.6154676,33.0167876 C65.4968426,33.7785376 65.3189676,34.4227876 65.2602176,34.4814126 C65.0229676,34.7156626 61.5297176,34.6576626 61.5883426,34.4814126 C61.5883426,34.3641626 61.8255926,33.4270376 62.0622176,32.3720376 C63.0692176,28.0950376 63.0692176,27.5675376 62.1808426,27.5675376 C61.4704676,27.5675376 61.1152176,27.8016626 60.9967176,28.3290376 C60.8187176,28.9734126 59.9304676,33.1922876 59.8123426,33.9540376 L59.6938426,34.5987876 L57.8579676,34.6575376 C55.6080926,34.7156626 55.7854676,34.9502876 56.3184676,32.7821626 C56.9109676,30.4384126 57.3254676,28.2704126 57.6213426,26.6885376 C57.8579676,25.1651626 57.6805926,25.3407876 59.1607176,25.1065376 C59.8123426,24.9892876 60.6414676,24.8717876 60.9374676,24.8137876 C61.5297176,24.5202876 61.7070926,24.5790376 61.7070926,24.8137876 L61.7070926,24.8137876 Z M97.6504676,24.7550376 C97.8869676,28.3290376 97.9464676,29.3835376 97.9464676,29.4422876 C97.9464676,29.5010376 98.4794676,28.5632876 99.0713426,27.3915376 C100.255468,25.0479126 100.018843,25.2820376 101.321593,25.1065376 C101.676843,25.0479126 102.387218,24.9304126 102.920343,24.8137876 C104.223218,24.5790376 104.223218,24.4616626 102.742468,27.0400376 C100.729343,30.4972876 97.9464676,35.3605376 96.9395926,37.1184126 C93.9199676,42.5672876 93.9199676,42.5672876 91.3737176,42.6259126 L89.8342176,42.6846626 L89.9523426,42.2744126 C90.0115926,42.0402876 90.1894676,41.5715376 90.2485926,41.2200376 L90.4260926,40.5751626 L90.8998426,40.5751626 C91.4329676,40.5751626 91.5509676,40.4576626 92.0248426,39.6374126 C92.2027176,39.3446626 92.4985926,38.8757876 92.6170926,38.5830376 C92.7945926,38.2901626 93.3868426,37.3525376 93.8607176,36.4149126 L94.8082176,34.7742876 L94.5710926,32.6067876 C94.2752176,30.0870376 93.9199676,27.0986626 93.7422176,26.2196626 C93.6234676,25.3994126 93.6234676,25.3994126 94.6897176,25.2821626 C95.1634676,25.2239126 95.9332176,25.0479126 96.3477176,24.9892876 C97.4725926,24.6377876 97.5910926,24.6377876 97.6504676,24.7550376 L97.6504676,24.7550376 Z M53.0025926,24.8137876 C57.5620926,25.6340376 55.9633426,33.4850376 50.9893426,34.5987876 C47.6139676,35.3605376 45.3049676,34.0712876 45.3049676,31.4929126 C45.3637176,26.9812876 48.7389676,24.0516626 53.0024676,24.8137876 L53.0025926,24.8137876 Z M87.1100926,25.0479126 C87.3467176,25.1651626 87.7024676,25.3994126 87.8798426,25.5754126 C88.1757176,25.8681626 88.1757176,25.8681626 88.1757176,25.6921626 C88.2350926,25.4580376 88.1757176,25.4580376 90.5445926,25.1065376 C92.4393426,24.8137876 92.3800926,24.8137876 92.2619676,25.3407876 C91.4922176,28.6219126 90.8405926,31.4929126 90.5445926,32.8995376 C90.1302176,35.0090376 90.4260926,34.7742876 88.1169676,34.7156626 L86.1625926,34.7156626 L86.1625926,34.4814126 C86.1625926,34.2472876 86.0444676,34.1299126 85.9258426,34.3055376 C85.2742176,35.3605376 82.0768426,34.9502876 81.1885926,33.6611626 C78.9979676,30.3799126 83.6755926,23.4659126 87.1099676,25.0479126 L87.1100926,25.0479126 Z M44.5939676,26.7472876 C44.5939676,26.7472876 44.5939676,27.0400376 44.5347176,27.2746626 C44.0614676,29.1495376 43.2324676,32.9582876 43.0544676,33.6611626 L42.8767176,34.5401626 L40.9227176,34.5987876 C38.6137176,34.6575376 38.7317176,34.7742876 39.2054676,33.3684126 C39.6199676,32.0205376 40.0345926,30.3799126 40.2717176,28.6219126 C40.5082176,27.0986626 40.2717176,27.3327876 41.9889676,27.0986626 C42.7585926,26.9811626 43.5877176,26.8645376 43.7649676,26.8059126 C44.2387176,26.6885376 44.5347176,26.6885376 44.5939676,26.7471626 L44.5939676,26.7472876 Z M54.9564676,38.8757876 C54.9564676,38.9345376 54.8384676,39.1692876 54.6605926,39.4620376 C54.5418426,39.7547876 54.3647176,39.9895376 54.3647176,39.9895376 C57.8579676,40.0475376 57.9765926,40.0475376 57.9172176,40.2236626 L57.2660926,42.3331626 L52.1735926,42.3331626 L51.8777176,42.5672876 C51.2259676,43.1534126 47.7919676,43.9150376 47.7919676,43.4461626 L48.4432176,41.3367876 L48.9168426,41.3367876 C49.7458426,41.3367876 49.9230926,41.1612876 50.6340926,39.9309126 L51.2259676,38.8171626 C54.3054676,38.7590376 54.9563426,38.8171626 54.9563426,38.8759126 L54.9564676,38.8757876 Z M62.7139676,38.8757876 C62.7139676,38.9345376 62.6545926,39.2272876 62.5359676,39.5794126 C62.4174676,39.8721626 62.3588426,40.1650376 62.3588426,40.2236626 C62.3588426,40.2236626 62.6545926,40.1061626 63.0097176,39.8136626 C64.3125926,38.9345376 65.4374676,38.7590376 68.7534676,38.7590376 C70.0563426,38.7590376 71.1812176,38.7590376 71.2404676,38.8171626 C71.2998426,38.9345376 69.3459676,45.2627876 69.0494676,45.8484126 C68.6349676,46.6106626 68.2203426,47.0207876 67.5694676,47.3135376 L66.9769676,47.5477876 L63.6022176,47.6065376 L60.2268426,47.6650376 L59.6345926,49.6571626 C58.4503426,53.4659126 58.4503426,53.1731626 60.1675926,52.9971626 C61.5297176,52.8796626 61.4704676,52.7630376 61.0559676,54.1689126 L60.7007176,55.3407876 L58.9834676,55.3407876 C55.2529676,55.3995376 54.7792176,55.1652876 55.1343426,53.6415376 C55.3122176,52.8797876 59.5753426,38.9345376 59.6345926,38.8171626 C59.6938426,38.7590376 62.7139676,38.7590376 62.7139676,38.8759126 L62.7139676,38.8757876 Z M78.2869676,38.8757876 C78.2869676,38.9345376 78.2277176,39.1104126 78.1689676,39.3445376 C77.9910926,39.9307876 77.9910926,39.9307876 78.7608426,39.5207876 C79.7675926,38.9931626 82.1360926,38.8171626 86.9914676,38.8171626 L88.5314676,38.8171626 L88.5314676,39.5207876 C88.5314676,40.3410376 88.5908426,40.3995376 89.3012176,40.5165376 L89.8342176,40.5751626 L89.5377176,41.6301626 L89.2419676,42.6845376 L88.1757176,42.6845376 C85.4520926,42.7432876 85.0377176,42.4504126 84.9782176,40.8685376 L84.9782176,40.1062876 L84.8009676,40.6337876 L84.6230926,41.2200376 L84.0307176,41.2200376 C83.7348426,41.2200376 83.4388426,41.2200376 83.4388426,41.2787876 C83.4388426,41.2787876 80.5374676,50.8289126 80.1228426,52.1767876 C80.0635926,52.2942876 80.1228426,52.3529126 80.4782176,52.3529126 C81.0112176,52.3529126 81.0112176,52.3529126 80.8333426,52.8210376 C80.6559676,53.3486626 80.6559676,53.3486626 81.2478426,53.3486626 C81.6623426,53.3486626 81.8995926,53.2899126 82.1953426,53.1145376 C82.6099676,52.8797876 82.6099676,52.9385376 84.5044676,50.3020376 L85.2742176,49.1884126 L83.6754676,49.1884126 C81.7215926,49.1884126 81.8995926,49.3057876 82.2547176,48.1340376 L82.5505926,47.1962876 L86.4590926,47.1962876 C86.8142176,45.9657876 86.9322176,45.6142876 86.9322176,45.5556626 C86.9322176,45.4969126 86.1032176,45.4969126 85.0377176,45.4969126 L83.1429676,45.4969126 L83.7348426,43.3875376 L89.0639676,43.3875376 C91.9654676,43.3875376 94.3937176,43.3875376 94.3937176,43.4462876 C94.3937176,43.5049126 94.2752176,43.9737876 94.0974676,44.5012876 L93.8014676,45.4970376 L92.0248426,45.5556626 L90.2485926,45.6142876 C89.9523426,46.4932876 89.8342176,46.9034126 89.7749676,47.0207876 L89.7157176,47.2549126 L91.4329676,47.2549126 C93.4462176,47.2549126 93.3275926,47.1376626 92.9129676,48.3094126 L92.6170926,49.2470376 L88.7088426,49.2470376 L88.1169676,49.9500376 L89.6564676,49.9500376 L89.8929676,51.3565376 C90.1302176,52.9385376 90.1302176,52.9385376 90.8998426,52.9385376 C91.4923426,52.9385376 91.4923426,52.8210376 91.0778426,54.2275376 L90.7219676,55.3994126 L89.5970926,55.3994126 C87.6432176,55.3994126 87.2879676,55.1066626 86.9320926,53.1144126 L86.7548426,51.8252876 L86.0444676,52.7630376 C84.0899676,55.3994126 83.9719676,55.4580376 81.4849676,55.4580376 C79.8857176,55.4580376 79.8857176,55.4580376 80.1228426,54.9892876 C80.1822176,54.7551626 80.1822176,54.7551626 79.7083426,54.7551626 C79.2345926,54.7551626 79.2345926,54.7551626 79.1160926,55.1066626 L79.0567176,55.4580376 L75.7407176,55.4580376 L75.7999676,55.2820376 C75.9779676,54.6965376 76.2737176,54.7551626 72.6618426,54.7551626 C69.5232176,54.7551626 69.3459676,54.7551626 69.4052176,54.5790376 L69.7012176,53.5246626 C70.0563426,52.4696626 69.9970926,52.4696626 70.3523426,52.4696626 C70.6485926,52.4696626 70.6485926,52.4696626 70.7667176,52.0595376 C73.5502176,42.8605376 74.4384676,39.9307876 74.5565926,39.5207876 L74.7937176,38.7590376 L76.4517176,38.7590376 C77.5173426,38.7590376 78.2869676,38.8171626 78.2869676,38.8757876 L78.2869676,38.8757876 Z M57.2660926,43.9150376 L56.6144676,45.9657876 L53.0619676,45.9657876 C52.7067176,47.1376626 52.5882176,47.4891626 52.5287176,47.6064126 C52.4694676,47.7825376 52.5880926,47.7825376 54.3054676,47.7825376 C55.3122176,47.7825376 56.1412176,47.8412876 56.1412176,47.8412876 C56.1412176,47.8992876 56.0819676,48.0165376 56.0224676,48.1925376 C55.9633426,48.3094126 55.8447176,48.7782876 55.7268426,49.2470376 L55.4895926,50.0086626 L51.8182176,50.0086626 L51.4037176,51.4151626 C50.8114676,53.4072876 50.8707176,53.4659126 53.1209676,53.1731626 C54.0685926,53.0557876 54.0093426,52.9385376 53.5947176,54.3450376 L53.2395926,55.5167876 L50.7520926,55.5167876 C46.8442176,55.5167876 46.7849676,55.3994126 47.8505926,52.0595376 C48.1470926,51.0050376 48.4430926,50.1260376 48.4430926,50.1260376 C48.4430926,50.1260376 48.0284676,50.0672876 47.4360926,50.0672876 C46.9035926,50.0672876 46.4298426,50.0672876 46.4298426,50.0086626 C46.8442176,48.5441626 47.0215926,48.0751626 47.0215926,47.9579126 C47.0808426,47.8411626 47.1994676,47.7825376 48.0878426,47.7825376 L49.0940926,47.7825376 L49.5678426,45.9657876 L48.6208426,45.9657876 C47.9098426,45.9657876 47.6733426,45.9657876 47.6733426,45.8484126 C47.6733426,45.7317876 48.2063426,44.0324126 48.2649676,43.8562876 C48.3837176,43.7396626 57.3253426,43.7976626 57.2659676,43.9150376 L57.2660926,43.9150376 Z M68.7535926,48.1340376 C68.7535926,48.2512876 68.6349676,48.6027876 68.5760926,48.8956626 C68.2203426,50.5362876 67.7472176,50.8877876 65.8520926,51.0050376 C65.2009676,51.0637876 64.6085926,51.1222876 64.6085926,51.1222876 C64.4899676,51.2979126 64.4899676,52.7044126 64.6085926,52.9385376 L64.7864676,53.1731626 L65.9705926,53.1144126 C66.6218426,53.0557876 67.1548426,53.0557876 67.1548426,53.0557876 C67.1548426,53.1731626 66.5035926,55.2239126 66.4443426,55.2820376 C66.3258426,55.3995376 62.7139676,55.3407876 62.2400926,55.1652876 C61.5297176,54.9305376 61.5297176,54.9891626 61.5883426,51.2977876 L61.6478426,48.0752876 L64.6678426,48.0752876 L64.6678426,49.3057876 L65.2603426,49.3057876 C65.9113426,49.3057876 65.9705926,49.2470376 66.2665926,48.4266626 L66.4443426,47.9579126 L67.6287176,47.9579126 C68.6942176,48.0166626 68.8128426,48.0166626 68.7535926,48.1340376 L68.7535926,48.1340376 Z M74.3198426,23.0557876 L73.6682176,25.8682876 L74.5565926,25.8682876 C79.1160926,25.9855376 81.0112176,20.7702876 76.5697176,20.4187876 C75.8592176,20.3600376 75.2080926,20.3014126 75.1488426,20.3014126 C74.9710926,20.3014126 74.9710926,20.4776626 74.3199676,23.0557876 L74.3198426,23.0557876 Z M50.7520926,27.0400376 C49.6272176,27.5087876 48.5615926,31.7276626 49.4499676,32.3720376 C50.1009676,32.8995376 51.0487176,32.0205376 51.5224676,30.5559126 C52.2922176,27.8602876 52.0549676,26.5711626 50.7520926,27.0400376 Z M86.0444676,27.3327876 C84.8597176,27.9190376 83.9719676,32.0791626 84.8597176,32.5479126 C86.0444676,33.1922876 87.5839676,30.9661626 87.5839676,28.5632876 C87.5839676,27.4501626 86.9322176,26.9226626 86.0444676,27.3327876 Z M62.1215926,41.2786626 L61.8255926,42.3331626 C61.6478426,42.8606626 61.5297176,43.3294126 61.4704676,43.3875376 C61.4704676,43.4462876 61.7663426,43.3294126 62.1808426,43.0946626 C63.3649676,42.5090376 63.7203426,42.3917876 65.4374676,42.3331626 L66.9182176,42.2744126 C67.1548426,41.5715376 67.2142176,41.2786626 67.2142176,41.2200376 C67.2734676,41.1612876 62.1808426,41.1612876 62.1215926,41.2787876 L62.1215926,41.2786626 Z M61.1153426,44.6767876 L60.8779676,45.6142876 L65.9705926,45.5555376 L66.2665926,44.6180376 C62.2400926,44.6180376 61.1153426,44.6180376 61.1153426,44.6767876 Z M77.2213426,42.5672876 C76.9843426,43.3294126 76.8069676,43.9150376 76.8662176,43.9150376 L77.5765926,43.6809126 C77.9318426,43.5634126 78.5834676,43.3875376 78.9387176,43.3294126 C79.2938426,43.2707876 79.5898426,43.2119126 79.6490926,43.2119126 C79.6490926,43.2119126 80.2415926,41.3954126 80.2415926,41.3367876 C80.2415926,41.3367876 79.6490926,41.2786626 78.9387176,41.2786626 L77.6357176,41.2786626 L77.2212176,42.5674126 L77.2213426,42.5672876 Z M76.2738426,45.5556626 C76.2738426,45.6142876 76.0372176,46.2005376 75.8592176,46.9034126 C75.6227176,47.6064126 75.4448426,48.2512876 75.4448426,48.2512876 C75.4448426,48.3094126 75.7407176,48.1925376 76.1552176,48.0165376 C76.5697176,47.8411626 77.1620926,47.6650376 77.5173426,47.6065376 C78.2869676,47.4890376 78.3462176,47.4310376 78.4057176,47.1376626 C78.4649676,47.0207876 78.5834676,46.5520376 78.7014676,46.2005376 L78.9387176,45.4970376 L77.6357176,45.4970376 C76.9253426,45.4970376 76.2735926,45.4970376 76.2735926,45.5556626 L76.2738426,45.5556626 Z M74.2013426,52.2941626 L76.8069676,52.3529126 C77.3399676,50.5949126 77.5173426,50.0086626 77.5173426,49.9500376 L74.9118426,49.8332876 L74.2013426,52.2941626 L74.2013426,52.2941626 Z" id="形状" fill="#FFFFFF"></path>
        </g>
    </g>
</svg>