<?xml version="1.0" encoding="UTF-8"?>
<svg width="128px" height="129px" viewBox="0 0 128 129" version="1.1" xmlns="http://www.w3.org/2000/svg" xmlns:xlink="http://www.w3.org/1999/xlink">
    <title>编组</title>
    <g id="页面-1" stroke="none" stroke-width="1" fill="none" fill-rule="evenodd">
        <g id="编组" transform="translate(0.000000, 0.000000)" fill-rule="nonzero">
            <path d="M101.410133,0.256 L26.4576,0.256 C11.9938652,0.316937028 0.291052102,12.0407127 0.256,26.5045334 L0.256,76.8085334 C19.4967425,87.4375698 41.1851849,92.8434994 63.1637332,92.4885334 C85.7779731,92.8874759 108.075855,87.1360382 127.675733,75.8485334 L127.675733,26.5045334 C127.580185,12.0423709 115.872382,0.345979473 101.410133,0.264533375 L101.410133,0.256 Z" id="路径" fill="#FD2821"></path>
            <path d="M63.168,92.8 C41.1499287,93.1450421 19.4226981,87.7404413 0.132266625,77.12 L0.004266625,77.056 L0.004266625,26.496 C0.0323546599,11.889291 11.8552137,0.0492724888 26.4618666,0 L101.410133,0 C116.019535,0.0676140756 127.850011,11.8866705 127.931733,26.496 L127.931733,76.032 L127.803733,76.096 C108.166937,87.4101897 85.8278256,93.183351 63.168,92.8 Z M0.516266625,76.672 C19.6706547,87.2125181 41.2437333,92.5730656 63.104,92.224 C85.5997602,92.6172098 107.782154,86.91127 127.296,75.712 L127.296,26.496 C127.288971,12.198678 115.711696,0.60422596 101.4144,0.576 L26.4618666,0.576 C12.1609305,0.62042427 0.57480828,12.1951147 0.516266625,26.496 L0.516266625,76.672 Z" id="形状" fill="#C54953"></path>
            <path d="M0.260266625,76.8 L0.260266625,101.504 C0.304831821,115.950429 12.01114,127.647204 26.4576,127.68 L101.474133,127.68 C115.921291,127.647215 127.628826,115.951118 127.675733,101.504 L127.675733,75.84 C108.079124,87.1355133 85.7789855,92.8875332 63.1637332,92.48 C41.1806814,92.874434 19.482195,87.4660009 0.256,76.8 L0.260266625,76.8 Z" id="路径" fill="#FFFFFF"></path>
            <path d="M101.410133,128 L26.4533332,128 C11.8616105,127.976545 0.0352269021,116.159699 0,101.568 L0,76.352 L0.426666625,76.608 C19.6273646,87.2143106 41.2742286,92.5988098 63.2064,92.224 C85.7587063,92.6446484 108.000395,86.9205109 127.547733,75.6650666 L127.9744,75.4090666 L127.9744,101.585067 C127.834455,116.184552 115.988851,127.961718 101.3888,128.017067 L101.410133,128 Z M0.516266625,77.312 L0.516266625,101.568 C0.581969412,115.855533 12.1741919,127.407723 26.4618666,127.424 L101.474133,127.424 C115.749407,127.402895 127.320501,115.843246 127.355733,101.568 L127.355733,76.416 C107.812312,87.5287944 85.6423785,93.1873218 63.1637332,92.8 C41.2931298,93.1310056 19.7092236,87.7952947 0.512,77.312 L0.516266625,77.312 Z" id="形状" fill="#C54953"></path>
            <path d="M14.1610666,23.744 L39.4197332,23.744 C40.7275435,23.744 41.7877333,24.8041897 41.7877333,26.112 C41.7877333,27.4198103 40.7275435,28.48 39.4197333,28.48 L14.1610666,28.48 C13.506793,28.5814436 12.843342,28.3650107 12.3747516,27.8972631 C11.9061612,27.4295155 11.6885343,26.7664552 11.7888,26.112 C11.6998362,25.4599529 11.9211641,24.8038481 12.3869214,24.3389286 C12.8526786,23.874009 13.5091808,23.6538625 14.1610666,23.744 L14.1610666,23.744 Z M52.9877333,31.808 L52.9877333,52.096 C52.9338413,53.365902 51.8886449,54.3676832 50.6175999,54.3676832 C49.3465549,54.3676832 48.3013586,53.365902 48.2474666,52.096 L48.2474666,31.808 C48.147201,31.1535448 48.3648278,30.4904845 48.8334182,30.0227369 C49.3020086,29.5549893 49.9654596,29.3385564 50.6197333,29.44 C51.2702522,29.3528155 51.9241836,29.5742748 52.387864,30.0387922 C52.8515445,30.5033097 53.0718242,31.1576393 52.9834666,31.808 L52.9877333,31.808 Z M99.0677332,35.328 L105.664,41.92 C106.552931,42.8451499 106.537824,44.3116076 105.630022,45.2182476 C104.722219,46.1248877 103.255743,46.1381161 102.331733,45.248 L95.7354666,38.656 C95.220329,38.2576566 94.9187307,37.6431868 94.9187307,36.992 C94.9187307,36.3408132 95.220329,35.7263434 95.7354666,35.328 C96.1177681,34.7954214 96.7332129,34.4796142 97.3887999,34.4796142 C98.044387,34.4796142 98.6598317,34.7954214 99.0421332,35.328 L99.0677332,35.328 Z M31.7397332,61.44 L33.6597333,61.44 L32.0597332,69.952 C31.8575922,70.6570238 31.9999176,71.4160931 32.4437332,72 C32.852826,72.5196561 33.4901572,72.8064551 34.1504,72.768 C34.9065,72.777884 35.6388118,72.503838 36.2026666,72 C36.8185313,71.4758636 37.2282932,70.7500861 37.3589333,69.952 L38.8949333,61.44 L40.8149333,61.44 L39.1509333,70.144 C38.9347913,71.4313428 38.2511022,72.5936143 37.2309333,73.408 C36.245741,74.2401368 34.996248,74.6939478 33.7066666,74.688 C32.5604584,74.7400202 31.4525401,74.2692334 30.6944,73.408 C29.9591492,72.4914161 29.6983299,71.2821629 29.9904,70.144 L31.7397332,61.44 Z M41.9797332,65.216 L43.84,65.216 L43.648,66.24 L43.712,66.24 C44.3843371,65.5478815 45.30709,65.1557115 46.272,65.152 C47.0035508,65.1380499 47.7053201,65.4414756 48.1962666,65.984 C48.749954,66.6642766 48.9406807,67.5702284 48.7082666,68.416 L47.5562666,74.624 L45.696,74.624 L46.7882666,69.0773334 C46.9560143,68.5748454 46.8598122,68.0216833 46.5322666,67.6053334 C46.2232878,67.2597266 45.7750794,67.0716671 45.312,67.0933334 C44.7978122,67.0973345 44.3006556,67.2781187 43.904,67.6053334 C43.4600493,67.9843594 43.1589665,68.5037272 43.0506666,69.0773334 L41.9626666,74.624 L40.256,74.624 L41.9797332,65.216 Z M51.2682666,65.216 L53.0645332,65.216 L51.2682666,74.56 L49.4122666,74.56 L51.2682666,65.216 Z M51.9722666,61.44 L53.8325332,61.44 L53.4442666,63.36 L51.584,63.36 L51.9722666,61.44 Z M53.7685333,69.888 C53.9010622,69.0998109 54.1155594,68.327621 54.4085333,67.584 C54.639783,67.0786296 54.9931557,66.6387467 55.4368,66.304 C55.7999004,65.9694904 56.2094736,65.6892561 56.6528,65.472 C57.216916,65.2161386 57.8296445,65.0851516 58.4490666,65.088 C59.0289796,65.0549755 59.606268,65.1881959 60.1130666,65.472 C60.4507519,65.6815853 60.7354814,65.9663148 60.9450666,66.304 C61.2609929,66.6575093 61.443588,67.1102244 61.4613333,67.584 C61.5068054,68.3572177 61.4421591,69.1329738 61.2693333,69.888 C61.1456985,70.65743 60.9308516,71.4093939 60.6293333,72.128 C60.3807453,72.6407745 60.0309717,73.0979475 59.6010666,73.472 C59.4423101,73.6151549 59.2709472,73.7436771 59.0890666,73.856 C58.9066775,74.0296512 58.6881185,74.1607867 58.4490666,74.24 C57.862451,74.4960425 57.2288529,74.6268311 56.5888,74.624 C56.0082554,74.6488064 55.4318107,74.5161209 54.9205333,74.24 C54.5670884,74.0558541 54.260569,73.7931232 54.0245333,73.472 C53.7510707,73.0702252 53.5757035,72.6098862 53.5125332,72.128 C53.5296866,71.3751099 53.6153738,70.6253465 53.7685332,69.888 L53.7685333,69.888 Z M59.4688,69.952 C59.5955111,69.471568 59.6600382,68.9768601 59.6608,68.48 C59.6578779,68.21249 59.5921088,67.9494133 59.4688,67.712 C59.3496318,67.4966154 59.1721846,67.3191682 58.9568,67.2 C58.4078014,66.9437776 57.7735318,66.9437776 57.2245332,67.2 C56.9518592,67.3111239 56.7102642,67.4868293 56.5205332,67.712 C56.3280277,67.9527481 56.1567217,68.2097071 56.0085332,68.48 C55.8135348,68.9507016 55.6843198,69.4460257 55.6245332,69.952 C55.5292067,70.4165266 55.4650635,70.8869102 55.4325332,71.36 C55.4349768,71.6480303 55.5005141,71.9320256 55.6245332,72.192 C55.7455842,72.389998 55.9242187,72.5463032 56.1365332,72.64 C56.6855318,72.8962224 57.3198014,72.8962224 57.8688,72.64 C58.1256904,72.5288525 58.3633128,72.3776382 58.5728,72.192 C58.8021584,71.9553696 58.9769181,71.6713852 59.0848,71.36 C59.2597334,70.848 59.3237334,70.4 59.4730666,69.952 L59.4688,69.952 Z M63.6970666,65.216 L65.5573332,65.216 L65.3653333,66.24 L65.4293332,66.24 C66.1016703,65.5478815 67.0244232,65.1557115 67.9893333,65.152 C68.7208841,65.1380498 69.4226535,65.4414756 69.9136,65.984 C70.4700992,66.66288 70.6625755,67.5695864 70.4298666,68.416 L69.2736,74.624 L67.4176,74.624 L68.5056,69.0773334 C68.6733477,68.5748454 68.5771456,68.0216833 68.2496,67.6053334 C67.9415818,67.2609135 67.4952119,67.0729683 67.0336,67.0933334 C66.5179445,67.0963554 66.0191226,67.2771972 65.6213333,67.6053334 C65.1852868,67.9876066 64.8919445,68.5065967 64.7893333,69.0773334 L63.6970666,74.624 L61.8410666,74.624 L63.6970666,65.216 Z M73.7578666,61.44 L78.4512,61.44 C78.9244624,61.4478853 79.3964985,61.4906681 79.8634666,61.568 C80.3437293,61.7216897 80.7818521,61.9845634 81.1434666,62.336 C81.5297937,62.6702451 81.8001751,63.118391 81.9157333,63.616 C82.0954819,64.219006 82.1175177,64.8580446 81.9797333,65.472 C81.7460218,66.5016167 81.209597,67.4377598 80.4394666,68.16 C79.5722669,69.0177181 78.3902418,69.4806522 77.1712,69.44 L74.2229333,69.44 L73.2629333,74.56 L71.3386666,74.56 L73.7578666,61.44 Z M74.5898666,67.584 L77.4741333,67.584 C78.7506603,67.5984312 79.8427235,66.6701774 80.0341333,65.408 C80.0983235,65.0481737 80.0983235,64.6798263 80.0341333,64.32 C79.960482,64.0444507 79.7747945,63.8123413 79.5221333,63.68 C79.1216575,63.4190982 78.6517108,63.2852526 78.1738666,63.296 L75.3536,63.296 L74.5898666,67.584 Z M86.5706666,73.792 C86.3254785,74.1145639 85.9920124,74.3591057 85.6106666,74.496 C85.117116,74.6744113 84.5951273,74.7611684 84.0704,74.752 C83.2541167,74.8062163 82.4562255,74.4933178 81.8944,73.8986666 C81.3931365,73.3439601 81.1997247,72.5767071 81.3781333,71.8506666 C81.5032561,71.0684962 81.9155325,70.3610848 82.5344,69.8666666 C83.2091851,69.327986 84.0433597,69.0279232 84.9066666,69.0133334 L87.4666666,69.0133334 L87.6586666,68.0533334 C87.8549332,67.2213334 87.2746666,66.8373334 85.9946666,66.8373334 C85.628704,66.84457 85.2643166,66.8874391 84.9066666,66.9653334 C84.600406,67.081266 84.3328355,67.2808352 84.1344,67.5413334 L82.9184,66.3893334 C83.7594563,65.447147 84.9912767,64.950318 86.2506666,65.0453334 C87.1727638,64.9707331 88.0943648,65.195149 88.8789332,65.6853334 C89.5081127,66.3258863 89.7299716,67.2626236 89.4549332,68.1173334 L88.2389332,74.5173334 L86.3530666,74.5173334 L86.5706666,73.792 Z M87.2106666,70.656 L85.0346666,70.656 C83.9424,70.656 83.3664,71.04 83.2384,71.808 C83.1762897,72.1173281 83.2722741,72.4372761 83.4944,72.6613334 C83.8249408,72.9594895 84.2685729,73.0995839 84.7104,73.0453334 C85.2789224,73.0935267 85.8507536,73.0057777 86.3786666,72.7893334 C86.7895051,72.4583012 87.0444663,71.971557 87.0826666,71.4453334 L87.2106666,70.656 Z M90.6709333,65.216 L92.6549332,65.216 L93.5509332,71.808 L93.6149332,71.808 L97.0282666,65.216 L99.0122666,65.216 L92.928,76.544 C92.6377519,77.1583432 92.1694781,77.6712146 91.584,78.016 C91.0890669,78.2701575 90.5403734,78.4018439 89.984,78.4000191 L89.3397333,78.4000191 L89.6597333,76.608 L90.1717333,76.608 C90.730155,76.6034858 91.2327887,76.2683966 91.4517333,75.7546666 L92.3050666,74.2186666 L90.6709333,65.216 Z M90.0906666,22.72 C90.6755342,22.6302712 91.2683417,22.8228284 91.6888414,23.2391231 C92.1093412,23.6554178 92.3078464,24.2462602 92.224,24.832 L92.224,52.352 C92.0810567,53.4102314 91.1777086,54.1997614 90.1098666,54.1997614 C89.0420247,54.1997614 88.1386766,53.4102314 87.9957333,52.352 L87.9957333,24.832 C87.9162083,24.2580622 88.107403,23.6797003 88.5133397,23.2662463 C88.9192763,22.8527923 89.494033,22.6510185 90.0693333,22.72 L90.0906666,22.72 Z" id="形状" fill="#FFFFFF"></path>
            <path d="M92.0746666,22.464 C91.6261116,22.0270274 91.0212642,21.7878545 90.3951635,21.7998795 C89.7690628,21.8119045 89.1738453,22.074126 88.7424,22.528 L79.4538666,32 L79.4538666,26.368 C79.4586951,26.0791567 79.3927786,25.7935186 79.2618666,25.536 C79.01495,24.4575308 78.0599322,23.6896328 76.9536,23.68 L54.8352,23.68 L53.7472,22.592 C53.1422517,22.0028378 52.2681817,21.782633 51.4563022,22.0148532 C50.6444227,22.2470733 50.0189987,22.8961753 49.8170942,23.7161199 C49.6151898,24.5360644 49.8677081,25.4013523 50.4789333,25.984 L52.2752,27.6906666 C52.7230253,28.1434653 53.3467334,28.3773558 53.9818666,28.3306666 L74.8032,28.3306666 L74.8032,36.7786666 L72.9472,38.6986666 L66.4106666,32.1706666 C66.2955444,32.0319771 66.1493762,31.9223509 65.984,31.8506666 C65.535445,31.413694 64.9305975,31.1745211 64.3044968,31.1865461 C63.6783961,31.1985711 63.0831785,31.4607926 62.6517333,31.9146666 L54.3232,40.1706666 C53.7093936,40.7619566 53.4629225,41.6387246 53.6787302,42.46323 C53.8945379,43.2877354 54.5389496,43.9313221 55.3637308,44.1460732 C56.1885121,44.3608243 57.0649636,44.1132301 57.6554666,43.4986666 L64.256,36.9066666 L70.9802666,43.6266666 C71.2264872,43.890069 71.5344155,44.0880229 71.8762666,44.2026666 C72.8094893,44.7083323 73.9659444,44.5246291 74.6965332,43.7546666 L74.7562666,43.6906666 L74.7562666,49.3226666 C74.7562666,49.5146666 74.6282666,49.7066666 74.5002666,49.7066666 L72.064,49.7706666 C71.217995,49.7706666 70.4362542,50.2220048 70.0132517,50.9546666 C69.5902492,51.6873284 69.5902492,52.5900049 70.0132517,53.3226667 C70.4362542,54.0553284 71.217995,54.5066666 72.064,54.5066666 L76.7573332,54.4426666 L77.1413332,54.4426666 C78.442193,54.4243765 79.4929681,53.3754914 79.5136,52.0746666 L79.5136,38.7626666 L92.1344,25.8346666 C93.044598,24.8768818 93.0160801,23.3654349 92.0704,22.4426666 L92.0746666,22.464 Z M116.992,27.584 L115.008,27.584 L115.008,24.256 C114.954109,22.9860974 113.908912,21.9843153 112.637867,21.9843153 C111.366821,21.9843153 110.321624,22.9860974 110.267733,24.256 L110.267733,27.584 L96.9898666,27.584 C96.1438617,27.584 95.3621209,28.0353382 94.9391184,28.768 C94.5161159,29.5006617 94.5161159,30.4033383 94.9391184,31.136 C95.3621209,31.8686618 96.1438617,32.32 96.9898666,32.32 L110.250667,32.32 L110.250667,49.856 C110.26576,50.0142996 110.152418,50.1559765 109.994667,50.176 L106.8544,50.176 C106.008395,50.1759999 105.226654,50.6273382 104.803652,51.36 C104.380649,52.0926617 104.380649,52.9953383 104.803652,53.728 C105.226654,54.4606618 106.008395,54.912 106.8544,54.912 L112.618667,54.912 C113.986634,54.6994376 115.009821,53.5436485 115.054933,52.16 L115.054933,32.32 L117.038933,32.32 C118.339793,32.3017099 119.390568,31.2528247 119.4112,29.952 C119.33846,28.6492266 118.279247,27.6196947 116.974933,27.584 L116.992,27.584 Z M21.5424,40.064 C21.615369,39.880011 21.6585766,39.6855769 21.6704,39.488 L41.6426666,39.488 C42.4886716,39.510865 43.2826107,39.0806549 43.7254149,38.3594257 C44.168219,37.6381964 44.1926157,36.7355199 43.7894149,35.9914256 C43.3862141,35.2473313 42.6166716,34.774865 41.7706666,34.752 L12.0448,34.752 C11.1987951,34.729135 10.4048559,35.1593451 9.96205176,35.8805743 C9.51924761,36.6018036 9.49485095,37.5044801 9.89805176,38.2485744 C10.3012526,38.9926687 11.0707951,39.465135 11.9168,39.488 L16.6101332,39.488 L12.2368,50.8202666 C11.8639969,51.8535429 12.2314521,53.008402 13.1328,53.6362666 C13.5827564,54.16072 14.2380558,54.4642435 14.9290666,54.4682666 L40.1024,54.4682666 C40.2770704,54.4832436 40.4529407,54.4614415 40.6186666,54.4042666 C40.9229988,54.4247451 41.2282417,54.381139 41.5146666,54.2762666 C42.7259134,53.8231966 43.3721148,52.5026981 42.9866666,51.2682666 L40.4266666,43.9722666 C39.9632141,42.7898415 38.6507448,42.1821533 37.4492667,42.5936967 C36.2477886,43.0052401 35.5835459,44.2900133 35.9424,45.5082666 L37.2906666,49.3482666 C37.2871513,49.5163675 37.1852392,49.6667297 37.0304,49.7322666 L18.2613332,49.7322666 C18.1641143,49.7342353 18.0712745,49.6918922 18.0090237,49.6171912 C17.9467729,49.5424903 17.9218656,49.4435368 17.9413332,49.3482666 L17.9413332,49.2202666 L21.5424,40.064 Z" id="形状" fill="#FFFFFF"></path>
            <path d="M73.4848,44.992 L92.2581333,25.728 L92.4501332,25.92 L73.6768,45.184 L73.4848,44.992 L73.4848,44.992 Z M61.44,34.432 L61.632,34.24 L73.5488,46.1866666 L73.3568,46.3786666 L61.44,34.432 Z" id="形状" fill="#FF2217"></path>
            <path d="M82.1333332,97.92 L64.4565332,97.92 L59.3962666,121.792 L76.5013333,121.792 C77.4320364,121.702157 78.1899194,121.005253 78.3573332,120.085333 L83.2256,99.6053334 C83.3622724,99.2345072 83.3161944,98.8209561 83.1012522,98.4893069 C82.8863099,98.1576577 82.527641,97.9466972 82.1333333,97.92 L82.1333332,97.92 Z" id="路径" fill="#066B6A"></path>
            <path d="M69.5722666,97.92 L51.5712,97.92 C50.6404968,98.0098428 49.8826138,98.7067467 49.7152,99.6266666 L44.8469332,120.106667 C44.6549332,121.066667 45.1029332,121.834667 45.9349332,121.834667 L64.5162666,121.834667 L69.5765332,97.8986666 L69.5722666,97.92 Z" id="路径" fill="#0A2F69"></path>
            <path d="M59.456,97.92 L51.5754666,97.92 C50.6447635,98.0098428 49.8868804,98.7067467 49.7194666,99.6266666 L44.8512,120.106667 C44.6592,121.066667 45.1072,121.834667 45.9392,121.834667 L54.4725332,121.834667 L59.456,97.92 Z" id="路径" fill="#E41D21"></path>
            <path d="M54.4554666,121.92 L45.8666666,121.92 C45.5149093,121.939235 45.1774516,121.778541 44.9706666,121.493333 C44.6855502,121.107504 44.5913512,120.612959 44.7146666,120.149333 L49.5829332,99.6693334 C49.7882717,98.7424325 50.5595985,98.0482384 51.5029332,97.9413334 L59.4944,97.9413334 L54.4341332,121.941333 L54.4554666,121.92 Z M51.5712,97.984 C50.6779325,98.0950531 49.9560262,98.7653947 49.7792,99.648 L44.9109332,120.128 C44.763016,120.539519 44.8354704,120.998075 45.1029332,121.344 C45.288402,121.580685 45.5703042,121.721636 45.8709332,121.728 L54.3274666,121.728 L59.3877332,97.984 L51.5712,97.984 Z" id="形状" fill="#C54953"></path>
        </g>
    </g>
</svg>